<svg width="12" height="14" viewBox="0 0 12 14" fill="none" xmlns="http://www.w3.org/2000/svg">
    <path d="M3.56226 7.00568C3.3163 6.82531 3.06488 6.66681 2.83532 6.47004C1.92254 5.69391 1.3869 4.71008 1.22293 3.52402C1.20653 3.44203 1.18467 3.39284 1.09722 3.35458C0.321089 3.03757 -0.110703 2.23958 0.0478029 1.40332C0.195377 0.605328 0.90592 0.00409929 1.73124 0.00409929C4.46957 -0.00136643 7.20789 -0.00136643 9.94622 0.00409929C10.777 0.00409929 11.4821 0.599862 11.6351 1.40332C11.7936 2.22865 11.3728 3.02664 10.6021 3.35458C10.5201 3.38738 10.4764 3.4311 10.46 3.52402C10.2468 4.99976 9.49803 6.13117 8.22998 6.91823C8.19719 6.94009 8.16986 6.95649 8.13706 6.97289C8.1316 6.97835 8.12613 6.98928 8.12067 7.00568C8.15893 7.03301 8.20265 7.05487 8.24091 7.0822C9.49803 7.87473 10.2414 9.00067 10.46 10.4709C10.4709 10.5529 10.5037 10.6021 10.5857 10.6404C11.3072 10.941 11.728 11.6406 11.657 12.4331C11.5914 13.1655 11.0284 13.7996 10.2796 13.9581C10.1539 13.9854 10.0173 13.9963 9.88609 13.9963C7.18603 13.9963 4.48596 14.0018 1.7859 13.9963C1.04803 13.9963 0.495992 13.6575 0.17898 12.9906C-0.1271 12.3402 -0.0341829 11.7117 0.40854 11.1432C0.588909 10.9082 0.8294 10.7442 1.10269 10.6295C1.15188 10.6076 1.20107 10.5475 1.20653 10.4983C1.43063 8.97881 2.2013 7.82554 3.51853 7.03301C3.53493 7.02208 3.55133 7.01115 3.56226 7.00568ZM9.2794 10.4873C9.0717 9.04439 7.75993 7.56865 5.82507 7.57958C3.89567 7.59051 2.60029 9.07172 2.40353 10.4873C4.69366 10.4873 6.97833 10.4873 9.2794 10.4873ZM2.40353 3.50216C2.59483 4.92324 3.923 6.43725 5.88519 6.40992C7.93483 6.38259 9.13182 4.74834 9.27393 3.50216C6.9838 3.50216 4.69366 3.50216 2.40353 3.50216ZM5.836 2.32703C7.1587 2.32703 8.48687 2.32703 9.80957 2.32703C9.8697 2.32703 9.92982 2.32703 9.98448 2.32156C10.3015 2.29423 10.5365 1.98815 10.4928 1.67661C10.4491 1.34867 10.214 1.16283 9.84783 1.16283C7.1751 1.16283 4.50236 1.16283 1.82963 1.16283C1.7859 1.16283 1.73671 1.16283 1.69298 1.1683C1.37051 1.19563 1.13001 1.50171 1.17921 1.81872C1.2284 2.13573 1.45796 2.32156 1.8023 2.32703C3.15233 2.33249 4.4969 2.32703 5.836 2.32703ZM5.85786 11.6625C4.53516 11.6625 3.20699 11.6625 1.88428 11.6625C1.8187 11.6625 1.75857 11.6625 1.69298 11.6679C1.38144 11.6953 1.14095 12.0013 1.18467 12.3129C1.23386 12.6408 1.46342 12.8212 1.83509 12.8212C4.50783 12.8212 7.18056 12.8212 9.8533 12.8212C9.89702 12.8212 9.94622 12.8212 9.98994 12.8157C10.3124 12.7884 10.5529 12.4823 10.5037 12.1599C10.4545 11.8428 10.225 11.657 9.87516 11.657C8.5306 11.6625 7.19696 11.6625 5.85786 11.6625Z" fill="#1a78c2"/>
</svg>