<svg
    width="17"
    height="17"
    viewBox="0 0 17 17"
    fill="none"
    xmlns="http://www.w3.org/2000/svg"
>
    <mask id="path-1-inside-1_73_395" fill="white">
        <path
            fillRule="evenodd"
            clipRule="evenodd"
            d="M9.69211 14.5828C13.0458 13.57 15.5926 10.8833 16.0438 7.56048C16.0736 7.33823 15.9285 7.11936 15.6942 7.03517C15.6735 7.02786 15.6526 7.02172 15.6316 7.01671C15.5837 7.00527 15.5352 6.9998 15.4871 7.00001C15.3134 7.00053 15.146 7.07442 15.0396 7.20691C13.5593 9.03875 11.179 10.1331 8.67594 10.1331C8.49868 10.1331 8.32142 10.1278 8.14437 10.1168C7.64578 10.086 7.28493 9.65279 7.28493 9.15325C7.28493 8.40906 6.82003 8.07569 6.35884 8.07569C6.05758 8.07569 5.75631 8.21038 5.46621 8.46967L2.30483 11.3319C1.60933 11.9616 1.60933 12.9819 2.30483 13.6116L5.46621 16.4739C5.75631 16.7366 6.05758 16.8679 6.35884 16.8679C6.82003 16.8679 7.28493 16.5345 7.28493 15.7903C7.28493 15.3485 7.63155 14.9876 8.06964 14.9305C8.62682 14.8579 9.16927 14.7407 9.69211 14.5828Z"
        />
    </mask>
    <path
        d="M9.69211 14.5828L10.0679 15.8273L9.69211 14.5828ZM16.0438 7.56048L17.332 7.7354L17.3323 7.73299L16.0438 7.56048ZM15.6942 7.03517L16.1338 5.81172L16.1277 5.80956L15.6942 7.03517ZM15.6316 7.01671L15.3294 8.2811L15.3308 8.28143L15.6316 7.01671ZM15.4871 7.00001L15.491 8.3L15.4926 8.29999L15.4871 7.00001ZM15.0396 7.20691L16.0508 8.02398L16.0531 8.02104L15.0396 7.20691ZM8.14437 10.1168L8.22466 8.81929L8.22466 8.81929L8.14437 10.1168ZM5.46621 8.46967L4.59988 7.50037L4.59369 7.50597L5.46621 8.46967ZM2.30483 11.3319L1.43231 10.3682L2.30483 11.3319ZM2.30483 13.6116L1.43231 14.5753H1.43231L2.30483 13.6116ZM5.46621 16.4739L4.59369 17.4376L4.5937 17.4376L5.46621 16.4739ZM8.06964 14.9305L7.90168 13.6414H7.90168L8.06964 14.9305ZM10.0679 15.8273C13.8367 14.6891 16.8027 11.6334 17.332 7.7354L14.7556 7.38557C14.3825 10.1333 12.2549 12.4509 9.31628 13.3383L10.0679 15.8273ZM17.3323 7.73299C17.455 6.81687 16.8582 6.072 16.1338 5.81174L15.2547 8.25861C14.9989 8.16671 14.6922 7.8596 14.7553 7.38797L17.3323 7.73299ZM16.1277 5.80956C16.0631 5.78675 15.998 5.76759 15.9324 5.752L15.3308 8.28143C15.3073 8.27585 15.2839 8.26897 15.2607 8.26078L16.1277 5.80956ZM15.9338 5.75233C15.7837 5.71646 15.6319 5.69939 15.4817 5.70002L15.4926 8.29999C15.4385 8.30022 15.3837 8.29408 15.3294 8.2811L15.9338 5.75233ZM15.4832 5.70001C14.9563 5.70159 14.4021 5.9247 14.0261 6.39278L16.0531 8.02104C15.89 8.22415 15.6705 8.29946 15.491 8.3L15.4832 5.70001ZM14.0285 6.38984C12.8124 7.89479 10.8148 8.83315 8.67594 8.83315V11.4331C11.5432 11.4331 14.3063 10.1827 16.0507 8.02398L14.0285 6.38984ZM8.67594 8.83315C8.52501 8.83315 8.37453 8.82856 8.22466 8.81929L8.06408 11.4143C8.26831 11.427 8.47235 11.4331 8.67594 11.4331V8.83315ZM8.22466 8.81929C8.34485 8.82673 8.44627 8.88632 8.50668 8.95547C8.56269 9.01958 8.58493 9.09089 8.58493 9.15325H5.98493C5.98493 10.2513 6.79523 11.3358 8.06408 11.4143L8.22466 8.81929ZM8.58493 9.15325C8.58493 8.50082 8.37409 7.88272 7.92058 7.42272C7.47704 6.97283 6.89956 6.77569 6.35884 6.77569V9.37569C6.2793 9.37569 6.16487 9.34524 6.06908 9.24808C6.0228 9.20113 5.99818 9.155 5.98735 9.12602C5.97718 9.09881 5.98493 9.10269 5.98493 9.15325H8.58493ZM6.35884 6.77569C5.64781 6.77569 5.05121 7.09702 4.5999 7.50039L6.33253 9.43895C6.39581 9.38239 6.43128 9.36563 6.43471 9.36412C6.43583 9.36362 6.42902 9.36673 6.41477 9.3699C6.40024 9.37312 6.38112 9.37569 6.35884 9.37569V6.77569ZM4.59369 7.50597L1.43231 10.3682L3.17735 12.2956L6.33873 9.43337L4.59369 7.50597ZM1.43231 10.3682C0.166833 11.514 0.166833 13.4296 1.43231 14.5753L3.17735 12.6479C3.09656 12.5748 3.0832 12.5101 3.0832 12.4718C3.0832 12.4335 3.09656 12.3688 3.17735 12.2956L1.43231 10.3682ZM1.43231 14.5753L4.59369 17.4376L6.33873 15.5102L3.17735 12.6479L1.43231 14.5753ZM4.5937 17.4376C5.05481 17.8551 5.65376 18.1679 6.35884 18.1679V15.5679C6.37867 15.5679 6.39636 15.5701 6.41053 15.5732C6.41736 15.5747 6.42268 15.5762 6.4264 15.5775C6.4301 15.5787 6.43195 15.5795 6.4319 15.5795C6.43137 15.5792 6.39886 15.5646 6.33873 15.5102L4.5937 17.4376ZM6.35884 18.1679C6.89956 18.1679 7.47704 17.9707 7.92058 17.5209C8.37409 17.0609 8.58493 16.4428 8.58493 15.7903H5.98493C5.98493 15.8409 5.97718 15.8448 5.98735 15.8175C5.99818 15.7886 6.0228 15.7424 6.06908 15.6955C6.16487 15.5983 6.2793 15.5679 6.35884 15.5679V18.1679ZM8.58493 15.7903C8.58493 16.0624 8.3849 16.2004 8.23761 16.2196L7.90168 13.6414C6.8782 13.7748 5.98493 14.6347 5.98493 15.7903H8.58493ZM8.23761 16.2196C8.86537 16.1378 9.47734 16.0057 10.0679 15.8273L9.31628 13.3383C8.86121 13.4757 8.38827 13.578 7.90168 13.6414L8.23761 16.2196Z"
        fill="#636363"
        mask="url(#path-1-inside-1_73_395)"
    />
    <mask id="path-3-inside-2_73_395" fill="white">
        <path
            fillRule="evenodd"
            clipRule="evenodd"
            d="M6.35476 2.28439C3.00104 3.2972 0.454247 5.98387 0.00305658 9.3067C-0.0266981 9.52895 0.118354 9.74783 0.352668 9.83201C0.372911 9.83917 0.393369 9.84521 0.41395 9.85016C0.462264 9.86182 0.511259 9.86738 0.559745 9.86718C0.733514 9.86666 0.900837 9.79276 1.00726 9.66028C2.48753 7.82843 4.86786 6.73404 7.37093 6.73404C7.54819 6.73404 7.72545 6.73942 7.90251 6.75038C8.40109 6.78123 8.76194 7.2144 8.76194 7.71394C8.76194 8.45813 9.22685 8.7915 9.68804 8.7915C9.9893 8.7915 10.2906 8.6568 10.5807 8.39752L13.742 5.53525C14.4375 4.90556 14.4375 3.88524 13.742 3.25555L10.5807 0.393283C10.2906 0.130628 9.9893 -0.000698463 9.68804 -0.00069849C9.22685 -0.00069853 8.76194 0.332671 8.76194 1.07686C8.76194 1.51866 8.41533 1.87959 7.97723 1.93668C7.42005 2.00928 6.8776 2.12649 6.35476 2.28439Z"
        />
    </mask>
    <path
        d="M6.35476 2.28439L6.73059 3.52887L6.73059 3.52887L6.35476 2.28439ZM0.00305658 9.3067L-1.28512 9.13179L-1.28545 9.1342L0.00305658 9.3067ZM0.352668 9.83201L-0.0868922 11.0555L-0.0807897 11.0576L0.352668 9.83201ZM0.41395 9.85016L0.718989 8.58645L0.717569 8.58611L0.41395 9.85016ZM0.559745 9.86718L0.555848 8.56719L0.554298 8.56719L0.559745 9.86718ZM1.00726 9.66028L-0.00387946 8.8432L-0.00624648 8.84615L1.00726 9.66028ZM7.90251 6.75038L7.82221 8.0479L7.82222 8.0479L7.90251 6.75038ZM10.5807 8.39752L11.447 9.36681L11.4532 9.36121L10.5807 8.39752ZM13.742 5.53525L14.6146 6.49895L13.742 5.53525ZM13.742 3.25555L14.6146 2.29185L14.6146 2.29185L13.742 3.25555ZM10.5807 0.393283L11.4532 -0.570415L11.4532 -0.570416L10.5807 0.393283ZM7.97723 1.93668L8.1452 3.22578L8.1452 3.22578L7.97723 1.93668ZM5.97893 1.0399C2.21014 2.17806 -0.75584 5.23384 -1.28512 9.13179L1.29124 9.48162C1.66433 6.7339 3.79193 4.41634 6.73059 3.52887L5.97893 1.0399ZM-1.28545 9.1342C-1.4081 10.0503 -0.811282 10.7952 -0.0868875 11.0554L0.792223 8.60858C1.04799 8.70047 1.3547 9.00759 1.29156 9.47921L-1.28545 9.1342ZM-0.0807897 11.0576C-0.0176049 11.08 0.0462045 11.0988 0.11033 11.1142L0.717569 8.58611C0.740533 8.59162 0.763426 8.59838 0.786125 8.60641L-0.0807897 11.0576ZM0.108912 11.1139C0.260344 11.1504 0.413641 11.1678 0.565192 11.1672L0.554298 8.56719C0.608877 8.56696 0.664184 8.57322 0.718988 8.58645L0.108912 11.1139ZM0.563641 11.1672C1.09061 11.1656 1.64477 10.9425 2.02077 10.4744L-0.00624648 8.84615C0.156907 8.64304 0.376418 8.56772 0.555848 8.56719L0.563641 11.1672ZM2.01839 10.4774C3.23451 8.97239 5.2321 8.03404 7.37093 8.03404L7.37093 5.43404C4.50363 5.43404 1.74055 6.68447 -0.00387564 8.84321L2.01839 10.4774ZM7.37093 8.03404C7.52186 8.03404 7.67234 8.03862 7.82221 8.0479L7.9828 5.45286C7.77856 5.44022 7.57452 5.43404 7.37093 5.43404L7.37093 8.03404ZM7.82222 8.0479C7.70202 8.04046 7.60061 7.98086 7.5402 7.91172C7.48418 7.84761 7.46194 7.77629 7.46194 7.71394L10.0619 7.71394C10.0619 6.61591 9.25165 5.53138 7.9828 5.45286L7.82222 8.0479ZM7.46194 7.71394C7.46194 8.36636 7.67279 8.98447 8.12629 9.44447C8.56983 9.89436 9.14731 10.0915 9.68804 10.0915L9.68804 7.4915C9.76757 7.4915 9.88201 7.52195 9.97779 7.61911C10.0241 7.66606 10.0487 7.71219 10.0595 7.74116C10.0697 7.76837 10.0619 7.7645 10.0619 7.71394L7.46194 7.71394ZM9.68804 10.0915C10.3991 10.0915 10.9957 9.77017 11.447 9.36679L9.71435 7.42824C9.65107 7.4848 9.61559 7.50155 9.61217 7.50307C9.61104 7.50357 9.61786 7.50045 9.63211 7.49729C9.64664 7.49406 9.66576 7.4915 9.68804 7.4915L9.68804 10.0915ZM11.4532 9.36121L14.6146 6.49895L12.8695 4.57156L9.70815 7.43382L11.4532 9.36121ZM14.6146 6.49895C15.88 5.35321 15.88 3.43759 14.6146 2.29185L12.8695 4.21924C12.9503 4.29239 12.9637 4.35709 12.9637 4.3954C12.9637 4.43371 12.9503 4.49841 12.8695 4.57156L14.6146 6.49895ZM14.6146 2.29185L11.4532 -0.570415L9.70815 1.35698L12.8695 4.21924L14.6146 2.29185ZM11.4532 -0.570416C10.9921 -0.987899 10.3931 -1.3007 9.68804 -1.3007L9.68804 1.2993C9.6682 1.2993 9.65052 1.29707 9.63635 1.29397C9.62952 1.29248 9.62419 1.29094 9.62048 1.28972C9.61678 1.2885 9.61493 1.28769 9.61498 1.28771C9.61551 1.28794 9.64802 1.30254 9.70815 1.35698L11.4532 -0.570416ZM9.68804 -1.3007C9.14732 -1.3007 8.56983 -1.10356 8.12629 -0.653671C7.67279 -0.193669 7.46194 0.424435 7.46194 1.07686L10.0619 1.07686C10.0619 1.0263 10.0697 1.02243 10.0595 1.04964C10.0487 1.07861 10.0241 1.12474 9.97779 1.17169C9.88201 1.26885 9.76757 1.2993 9.68804 1.2993L9.68804 -1.3007ZM7.46194 1.07686C7.46194 0.804791 7.66198 0.666765 7.80926 0.647574L8.1452 3.22578C9.16867 3.09242 10.0619 2.23253 10.0619 1.07686L7.46194 1.07686ZM7.80926 0.647574C7.1815 0.72937 6.56953 0.861536 5.97893 1.0399L6.73059 3.52887C7.18566 3.39144 7.6586 3.28918 8.1452 3.22578L7.80926 0.647574Z"
        fill="#636363"
        mask="url(#path-3-inside-2_73_395)"
    />
</svg>