<svg width="40" height="20" viewBox="0 0 40 20" fill="none" xmlns="http://www.w3.org/2000/svg">
<path d="M9.54725 0.154297C11.4355 0.154297 13.2814 0.714233 14.8514 1.7633C16.4215 2.81236 17.6452 4.30344 18.3678 6.04797C19.0904 7.7925 19.2794 9.71214 18.9111 11.5641C18.5427 13.4161 17.6334 15.1173 16.2982 16.4525C14.963 17.7877 13.2618 18.697 11.4098 19.0653C9.55784 19.4337 7.63821 19.2447 5.89368 18.5221C4.14914 17.7994 2.65807 16.5758 1.609 15.0057C0.559936 13.4357 3.33309e-10 11.5898 3.33308e-10 9.70155C-1.04757e-05 8.44778 0.246929 7.20629 0.72672 6.04796C1.20651 4.88963 1.90976 3.83714 2.7963 2.9506C3.68285 2.06405 4.73533 1.36081 5.89366 0.881017C7.05199 0.401226 8.29348 0.154286 9.54725 0.154297Z" fill="#F5AC37"/>
<path d="M9.89888 10.3762H13.5267C13.604 10.3762 13.6405 10.3762 13.6463 10.2748C13.676 9.90552 13.676 9.53443 13.6463 9.16512C13.6463 9.09332 13.6107 9.06373 13.5329 9.06373H6.31279C6.22344 9.06373 6.19935 9.0934 6.19935 9.17716V10.2392C6.19935 10.3762 6.19935 10.3762 6.34238 10.3762H9.89888ZM13.2413 7.82247C13.2517 7.79563 13.2517 7.76594 13.2413 7.73911C13.1812 7.60744 13.1091 7.48159 13.026 7.36314C12.9009 7.16153 12.7526 6.97525 12.5843 6.80808C12.5049 6.70691 12.4127 6.61663 12.3098 6.53956C11.7931 6.09993 11.1796 5.78911 10.5195 5.63263C10.1866 5.55806 9.8463 5.52201 9.5052 5.52518H6.30034C6.211 5.52518 6.19895 5.56084 6.19895 5.63862V7.75665C6.19895 7.846 6.19895 7.87009 6.31239 7.87009H13.1981C13.1981 7.87009 13.2578 7.85805 13.2699 7.82223H13.2411L13.2413 7.82247ZM13.2413 11.6174C13.14 11.6062 13.0377 11.6062 12.9363 11.6174H6.31917C6.22982 11.6174 6.19951 11.6174 6.19951 11.7371V13.8076C6.19951 13.9034 6.19951 13.9273 6.31917 13.9273H9.37445C9.5202 13.9383 9.66678 13.9284 9.80969 13.8977C10.2532 13.866 10.6896 13.7695 11.105 13.6112C11.2566 13.5585 11.4024 13.4905 11.5403 13.4084H11.5819C12.2977 13.0365 12.8797 12.4506 13.2468 11.7324C13.2468 11.7324 13.2884 11.6421 13.2416 11.6185L13.2413 11.6174ZM5.00085 15.0008V11.7012C5.00085 11.6235 5.00085 11.6119 4.90512 11.6119H3.60994C3.53814 11.6119 3.50854 11.6119 3.50854 11.5162V10.3827H4.89284C4.97014 10.3827 5.00021 10.3827 5.00021 10.2813V9.15953C5.00021 9.08774 5.00021 9.07019 4.90448 9.07019H3.60994C3.53814 9.07019 3.50854 9.07019 3.50854 8.97446V7.92474C3.50854 7.859 3.50854 7.84137 3.60427 7.84137H4.88717C4.97652 7.84137 5.00061 7.84137 5.00061 7.72794V4.51175C5.00061 4.41602 5.00061 4.39209 5.12027 4.39209H9.5955C9.91988 4.40482 10.2429 4.4407 10.5622 4.49946C11.2198 4.62137 11.8516 4.85548 12.4298 5.19157C12.8127 5.41668 13.1655 5.68936 13.4799 6.00309C13.7156 6.2482 13.9292 6.51374 14.118 6.79659C14.3057 7.08336 14.462 7.38945 14.5842 7.70959C14.5915 7.74973 14.6143 7.78539 14.6477 7.80887C14.681 7.83235 14.7223 7.84176 14.7625 7.83507H15.8306C15.9676 7.83507 15.9676 7.83507 15.9736 7.96654V8.94526C15.9736 9.04099 15.938 9.06492 15.8422 9.06492H15.018C14.9346 9.06492 14.9106 9.06492 14.9166 9.1723C14.9492 9.53546 14.9492 9.90082 14.9166 10.264C14.9166 10.3654 14.9166 10.3774 15.0304 10.3774H15.9722C16.0138 10.4311 15.9722 10.4848 15.9722 10.539C15.9782 10.6083 15.9782 10.678 15.9722 10.7473V11.4695C15.9722 11.5709 15.9425 11.601 15.8525 11.601H14.7254C14.6874 11.5938 14.6482 11.6017 14.6159 11.6228C14.5836 11.644 14.5608 11.6768 14.5522 11.7144C14.2834 12.4129 13.8541 13.0384 13.2989 13.5403C13.0961 13.7233 12.8831 13.8946 12.6608 14.0533C12.4218 14.1908 12.1895 14.3339 11.9446 14.4473C11.4938 14.6498 11.0213 14.7999 10.5363 14.8945C10.0756 14.9767 9.60813 15.0147 9.14024 15.008H4.99853V15.0019L5.00085 15.0008Z" fill="#FEFEFD"/>
<path d="M19.0023 19.0945C20.8906 19.0945 22.7364 18.5346 24.3065 17.4855C25.8765 16.4365 27.1002 14.9454 27.8228 13.2009C28.5454 11.4564 28.7345 9.53682 28.3662 7.68485C27.9978 5.83288 27.0886 4.13172 25.7534 2.7965C24.4183 1.46127 22.7172 0.551948 20.8652 0.183511C19.0133 -0.184926 17.0936 0.00407186 15.3491 0.726605C13.6046 1.44914 12.1135 2.67276 11.0643 4.24273C10.0152 5.8127 9.4552 7.65851 9.45511 9.54676C9.45204 10.8014 9.69688 12.0443 10.1756 13.204C10.6543 14.3638 11.3574 15.4175 12.2446 16.3047C13.1317 17.1919 14.1854 17.8951 15.3451 18.3738C16.5048 18.8526 17.7477 19.0975 19.0023 19.0945" fill="#2775CA"/>
<path d="M21.628 11.0591C21.628 9.6669 20.7925 9.18925 19.1219 8.99043C17.9285 8.83137 17.6899 8.51326 17.6899 7.95608C17.6899 7.3989 18.0875 7.04101 18.8833 7.04101C19.5995 7.04101 19.9987 7.27961 20.196 7.87655C20.2165 7.93417 20.2542 7.98411 20.304 8.01966C20.3537 8.05521 20.4132 8.07464 20.4744 8.07536H21.1125C21.1493 8.07622 21.1859 8.06963 21.2201 8.05594C21.2542 8.04226 21.2852 8.02179 21.3113 7.99577C21.3373 7.96975 21.3577 7.93871 21.3714 7.90455C21.3851 7.87039 21.3917 7.83381 21.3909 7.79702V7.75724C21.3137 7.3262 21.0964 6.93269 20.7726 6.63781C20.4489 6.34292 20.0369 6.16317 19.6005 6.12645V5.17163C19.6005 5.01257 19.4812 4.89328 19.2824 4.85352H18.6855C18.5264 4.85352 18.4071 4.97281 18.3674 5.17163V6.08668C17.174 6.24574 16.418 7.0415 16.418 8.03608C16.418 9.34878 17.2137 9.86572 18.8843 10.065C19.9996 10.2638 20.356 10.5015 20.356 11.1392C20.356 11.7768 19.7989 12.2132 19.0433 12.2132C18.009 12.2132 17.6506 11.7768 17.5314 11.1789C17.5194 11.1132 17.4852 11.0537 17.4345 11.0103C17.3838 10.9668 17.3197 10.9421 17.253 10.9403H16.5765C16.5397 10.9395 16.5031 10.9461 16.469 10.9598C16.4348 10.9734 16.4038 10.9939 16.3778 11.0199C16.3518 11.046 16.3313 11.077 16.3176 11.1111C16.3039 11.1453 16.2973 11.1819 16.2982 11.2187V11.2584C16.4572 12.253 17.0939 12.9688 18.4066 13.1681V14.1229C18.4066 14.2819 18.5259 14.4012 18.7248 14.441H19.3212C19.4803 14.441 19.5996 14.3217 19.6393 14.1229V13.1681C20.1716 13.1214 20.6681 12.8809 21.0347 12.4922C21.4012 12.1035 21.6122 11.5937 21.6275 11.0596" fill="white"/>
<path d="M16.9737 15.236C15.8289 14.8163 14.8405 14.0552 14.1423 13.0556C13.444 12.056 13.0696 10.8661 13.0696 9.64672C13.0696 8.42738 13.444 7.23745 14.1423 6.23783C14.8405 5.23821 15.8289 4.47712 16.9737 4.05745C17.0499 4.02428 17.1139 3.96811 17.1567 3.89683C17.1994 3.82554 17.2189 3.74268 17.2123 3.65981V3.10311C17.2176 3.03021 17.1964 2.95783 17.1526 2.89936C17.1087 2.84088 17.0452 2.80026 16.9737 2.78499C16.9177 2.77913 16.8614 2.79321 16.8147 2.82476C15.3663 3.28492 14.1019 4.19409 13.2047 5.42064C12.3074 6.64719 11.8237 8.12748 11.8237 9.64719C11.8237 11.1669 12.3074 12.6472 13.2047 13.8737C14.1019 15.1003 15.3663 16.0095 16.8147 16.4696C16.8477 16.4887 16.8848 16.4996 16.923 16.5016C16.9611 16.5036 16.9991 16.4965 17.034 16.481C17.0689 16.4655 17.0996 16.442 17.1237 16.4124C17.1477 16.3828 17.1645 16.3479 17.1725 16.3106C17.2123 16.2708 17.2123 16.231 17.2123 16.1515V15.5943C17.1997 15.5213 17.172 15.4518 17.1309 15.3901C17.0898 15.3285 17.0363 15.2761 16.9737 15.2365V15.236ZM21.1926 2.82233C21.1595 2.80331 21.1224 2.79237 21.0843 2.79039C21.0461 2.78842 21.0081 2.79546 20.9732 2.81096C20.9384 2.82647 20.9076 2.84997 20.8836 2.87959C20.8595 2.9092 20.8427 2.94408 20.8347 2.98139C20.7949 3.02115 20.7949 3.06092 20.7949 3.14045V3.69715C20.8018 3.77722 20.8268 3.85467 20.8682 3.92358C20.9095 3.9925 20.9661 4.05106 21.0335 4.09479C22.1784 4.51445 23.1667 5.27555 23.865 6.27517C24.5632 7.27479 24.9376 8.46472 24.9376 9.68406C24.9376 10.9034 24.5632 12.0933 23.865 13.0929C23.1667 14.0925 22.1784 14.8537 21.0335 15.2733C20.9573 15.3065 20.8933 15.3626 20.8505 15.4339C20.8078 15.5052 20.7883 15.5881 20.7949 15.6709V16.2315C20.7896 16.3044 20.8108 16.3768 20.8546 16.4353C20.8985 16.4938 20.962 16.5344 21.0335 16.5496C21.0896 16.5555 21.1459 16.5414 21.1926 16.5099C22.64 16.043 23.9021 15.1291 24.7973 13.8996C25.6925 12.6701 26.1749 11.1884 26.1749 9.66757C26.1749 8.1467 25.6925 6.665 24.7973 5.43553C23.9021 4.20606 22.64 3.29217 21.1926 2.82525" fill="white"/>
<path fill-rule="evenodd" clip-rule="evenodd" d="M22.7717 0.374384L18.926 8.45233C18.9113 8.48237 18.9067 8.51631 18.9127 8.54918C18.9188 8.58205 18.9352 8.61212 18.9595 8.63501L29.3459 18.5877C29.3754 18.616 29.4147 18.6318 29.4556 18.6318C29.4965 18.6318 29.5358 18.616 29.5653 18.5877L39.9517 8.63569C39.9761 8.6128 39.9925 8.58273 39.9985 8.54986C40.0045 8.51699 39.9999 8.48306 39.9853 8.45301L36.1395 0.37498C36.1271 0.347825 36.1072 0.324819 36.082 0.308717C36.0569 0.292615 36.0277 0.2841 35.9978 0.284192H22.9146C22.8846 0.283818 22.8552 0.292136 22.8298 0.308141C22.8044 0.324147 22.7843 0.347154 22.7717 0.374384" fill="#50AF95"/>
<path fill-rule="evenodd" clip-rule="evenodd" d="M30.7898 9.28153C30.7153 9.28715 30.3299 9.31014 29.4706 9.31014C28.7871 9.31014 28.3017 9.28962 28.1315 9.28153C25.49 9.16536 23.5184 8.70554 23.5184 8.15493C23.5184 7.60433 25.49 7.14519 28.1315 7.02715V8.82358C28.3043 8.83602 28.7988 8.86523 29.4824 8.86523C30.3026 8.86523 30.7134 8.83116 30.7873 8.82418V7.02834C33.4232 7.14579 35.3905 7.6056 35.3905 8.15493C35.3905 8.70426 33.4238 9.16408 30.7873 9.28084L30.7898 9.28153ZM30.7898 6.84259V5.23506H34.4683V2.78369H24.4529V5.23506H28.1306V6.84191C25.1412 6.9792 22.8928 7.57145 22.8928 8.28124C22.8928 8.99102 25.1412 9.58242 28.1306 9.72056V14.8715H30.7888V9.71835C33.7715 9.58106 36.0159 8.98949 36.0159 8.28047C36.0159 7.57145 33.7736 6.97988 30.7891 6.84191L30.7898 6.84259Z" fill="white"/>
</svg>