<svg width="18" height="19" viewBox="0 0 18 19" fill="none" xmlns="http://www.w3.org/2000/svg">
<rect width="18" height="19" rx="5" fill="#EFEFEF"/>
<path d="M8.84962 14.4512C7.50351 14.4473 6.21366 13.9108 5.26181 12.9589C4.30996 12.0071 3.77347 10.7172 3.76953 9.37111H3.76953C3.77347 8.02499 4.30996 6.73514 5.26181 5.78329C6.21366 4.83144 7.50351 4.29496 8.84962 4.29102V4.29102C10.1957 4.29496 11.4856 4.83144 12.4374 5.78329C13.3893 6.73514 13.9258 8.02499 13.9297 9.37111C13.9258 10.7172 13.3893 12.0071 12.4374 12.9589C11.4856 13.9108 10.1957 14.4473 8.84962 14.4512Z" fill="#4BDB4B"/>
<path opacity="0.4" d="M11.8045 10.3652C11.9331 10.5841 11.9695 10.8451 11.9059 11.0909C11.8422 11.3366 11.6836 11.5471 11.4649 11.6761C11.2463 11.805 10.9853 11.842 10.7395 11.7788C10.4936 11.7155 10.2828 11.5573 10.1535 11.3389L8.12143 7.86751C7.99905 7.64272 7.97042 7.37869 8.04178 7.1329C8.11314 6.8871 8.27871 6.67945 8.50244 6.55515C8.60981 6.48744 8.72989 6.44239 8.85531 6.42279C8.98072 6.40319 9.10882 6.40944 9.23173 6.44116C9.35465 6.47288 9.46977 6.52939 9.57004 6.60724C9.67031 6.68508 9.7536 6.78261 9.8148 6.89382L11.8045 10.3652Z" fill="black"/>
<path opacity="0.65" d="M7.81201 11.3388C7.75173 11.4509 7.6689 11.5493 7.56872 11.6279C7.46855 11.7065 7.3532 11.7634 7.22993 11.7952C7.10667 11.8271 6.97815 11.833 6.85247 11.8127C6.72679 11.7925 6.60667 11.7464 6.49965 11.6774C6.38753 11.6172 6.28909 11.5343 6.21053 11.4342C6.13197 11.334 6.07499 11.2186 6.04318 11.0954C6.01137 10.9721 6.00542 10.8436 6.02569 10.7179C6.04596 10.5922 6.09203 10.4721 6.16098 10.3651L8.15068 6.8937C8.21096 6.78157 8.2938 6.68313 8.39397 6.60457C8.49415 6.52601 8.6095 6.46904 8.73276 6.43723C8.85603 6.40542 8.98454 6.39946 9.11022 6.41973C9.2359 6.44001 9.35603 6.48607 9.46304 6.55502C9.57517 6.6153 9.67361 6.69814 9.75217 6.79831C9.83072 6.89849 9.8877 7.01384 9.91951 7.1371C9.95132 7.26037 9.95728 7.38888 9.937 7.51456C9.91673 7.64024 9.87067 7.76037 9.80171 7.86738L7.81201 11.3388Z" fill="black"/>
<path d="M9.92938 7.38172C9.92938 7.93207 8.9557 9.28676 8.9557 9.28676C8.9557 9.28676 8.02435 7.93207 8.02435 7.38172C8.02152 7.25485 8.04406 7.12869 8.09066 7.01064C8.13725 6.8926 8.20696 6.78506 8.29569 6.69433C8.38442 6.6036 8.49038 6.5315 8.60736 6.48229C8.72433 6.43307 8.84996 6.40771 8.97686 6.40771C9.10377 6.40771 9.2294 6.43307 9.34637 6.48229C9.46334 6.5315 9.5693 6.6036 9.65803 6.69433C9.74676 6.78506 9.81647 6.8926 9.86307 7.01064C9.90967 7.12869 9.93221 7.25485 9.92938 7.38172Z" fill="black"/>
</svg>
