<svg width="16" height="14" viewBox="0 0 16 14" fill="none" xmlns="http://www.w3.org/2000/svg">
<path d="M14.6973 7.7002H0.700697C0.515038 7.7002 0.336984 7.77395 0.205704 7.90523C0.0744238 8.03651 0.000671387 8.21456 0.000671387 8.40022L0.000671387 11.2003C0.000671387 13.1238 3.99198 14.0004 7.70031 14.0004C11.4086 14.0004 15.3999 13.1238 15.3999 11.2003V8.40022C15.3999 8.21456 15.3262 8.03651 15.1949 7.90523C15.0636 7.77395 14.8856 7.7002 14.6999 7.7002" fill="#EB5312"/>
<path d="M14.6973 4.89991H0.700697C0.515038 4.89991 0.336984 4.97366 0.205704 5.10494C0.0744238 5.23622 0.000671387 5.41427 0.000671387 5.59993L0.000671387 8.40197C0.000671387 10.3254 3.99198 11.2021 7.70031 11.2021C11.4086 11.2021 15.3999 10.3235 15.3999 8.40197V5.59993C15.3999 5.50779 15.3817 5.41655 15.3464 5.33145C15.3111 5.24635 15.2593 5.16906 15.194 5.10403C15.1287 5.03899 15.0512 4.98748 14.966 4.95245C14.8808 4.91742 14.7895 4.89957 14.6973 4.89991Z" fill="#FA7137"/>
<path d="M14.6973 2.1001H0.700697C0.515038 2.1001 0.336984 2.17385 0.205704 2.30513C0.0744238 2.43641 0.000671387 2.61447 0.000671387 2.80013L0.000671387 5.60023C0.000671387 7.52369 3.99198 8.40033 7.70031 8.40033C11.4086 8.40033 15.3999 7.52369 15.3999 5.60023V2.80013C15.3999 2.70798 15.3817 2.61674 15.3464 2.53164C15.3111 2.44654 15.2593 2.36926 15.194 2.30422C15.1287 2.23918 15.0512 2.18767 14.966 2.15265C14.8808 2.11762 14.7895 2.09976 14.6973 2.1001Z" fill="#EB5312"/>
<path d="M7.70028 0C3.99195 0 0 0.876643 0 2.8001C0 4.72356 3.99195 5.59956 7.70028 5.59956C11.4086 5.59956 15.3999 4.72356 15.3999 2.8001C15.3999 0.876643 11.4093 0 7.70028 0Z" fill="#FA7137"/>
</svg>
