<svg width="55" height="43" viewBox="0 0 55 43" fill="none" xmlns="http://www.w3.org/2000/svg">
<path d="M3.98987 6.41834L36.5667 0.116214C37.4868 -0.06214 38.4349 -0.0349216 39.3432 0.195921C40.2515 0.426765 41.0975 0.855525 41.8208 1.45152C42.544 2.04752 43.1266 2.79601 43.5268 3.64344C43.927 4.49088 44.135 5.41629 44.1357 6.35347V28.3572L17.0624 37.5965L3.98987 6.41834Z" fill="#F2E7C9"/>
<path d="M6.6447 5.79773H47.8386C49.5994 5.79988 51.2875 6.50089 52.5318 7.74678C53.7762 8.99267 54.4752 10.6815 54.4752 12.4424V36.3617C54.473 38.1214 53.7732 39.8084 52.5291 41.0528C51.285 42.2973 49.5982 42.9976 47.8386 43.0003H6.6447C4.88363 42.9998 3.19476 42.3004 1.94893 41.0557C0.703096 39.811 0.00214821 38.1228 0 36.3617L0 12.4424C0 10.6801 0.700064 8.99004 1.94619 7.74392C3.19231 6.49779 4.88241 5.79773 6.6447 5.79773Z" fill="#F5EDD6"/>
<path d="M27.0179 30.3504C26.1785 31.2157 24.8594 31.2157 24.0201 30.3504L19.3834 25.5705C18.5441 24.7052 18.5441 23.3454 19.3834 22.4801C20.2228 21.6147 21.5419 21.6147 22.3813 22.4801L25.1392 25.3233C25.3391 25.5293 25.6988 25.5293 25.8987 25.3233L33.3732 17.6177C34.2126 16.7524 35.5316 16.7524 36.371 17.6177C36.7707 18.0298 37.0105 18.5655 37.0105 19.1836C37.0105 19.8017 36.7707 20.3373 36.371 20.7494L27.0179 30.3504Z" fill="white"/>
</svg>
