<svg width="18" height="18" viewBox="0 0 18 18" fill="none" xmlns="http://www.w3.org/2000/svg">
<rect width="18" height="18" rx="5" fill="#EFEFEF"/>
<path d="M8.7075 3.67904V4.74836H6.56884V5.81769H5.49951V12.2099H6.56884V13.2792H8.7075V14.3486H10.8462V13.2792H12.9848V12.2099H14.0541V10.0712H11.9155V11.1406H10.8462V12.2099H8.7075V11.1406H7.63817V6.86326H8.7075V5.79393H10.8462V6.86326H11.9155V7.93259H14.0541V5.79393H12.961V4.7246H10.8224V3.65527H8.7075V3.67904Z" fill="#404040"/>
<path d="M11.9156 6.88672H11.2027V7.95605H11.9156V6.88672Z" fill="#1682FE"/>
<path d="M10.847 5.81787H10.1341V6.8872H10.847V5.81787Z" fill="#1682FE"/>
<path d="M8.70782 3.67896H7.99493V4.74828H8.70782V3.67896Z" fill="#1682FE"/>
<path d="M11.9158 10.071H10.8465V11.1404H11.9158V10.071Z" fill="#FF5A5A"/>
<path d="M10.847 11.1404H10.1341V12.2097H10.847V11.1404Z" fill="#FF5A5A"/>
<path d="M8.70782 13.2793H7.99493V14.3486H8.70782V13.2793Z" fill="#FF5A5A"/>
<path d="M6.5686 12.21H5.85571V13.2793H6.5686V12.21Z" fill="#F4BB3B"/>
<path d="M5.5 9.02563H4.78711V12.2336H5.5V9.02563Z" fill="#F4BB3B"/>
<path d="M5.5 5.81787H4.78711V9.02586H5.5V5.81787Z" fill="#60D8A4"/>
<path d="M6.5686 4.74829H5.85571V5.81762H6.5686V4.74829Z" fill="#1682FE"/>
</svg>
