<svg width="15" height="16" viewBox="0 0 15 16" fill="none" xmlns="http://www.w3.org/2000/svg">
    <path d="M14.9973 5.95222C14.9998 5.70628 14.9532 5.46231 14.8604 5.23454C14.7676 5.00677 14.6304 4.79974 14.4568 4.62553C14.2832 4.45132 14.0766 4.31341 13.8492 4.21984C13.6217 4.12626 13.3779 4.0789 13.1319 4.0805C11.0896 4.07583 9.01317 4.07701 7.00506 4.07831L5.44422 4.07914C5.1732 4.07553 4.90505 4.13504 4.66099 4.25295C3.94762 4.60698 3.58364 5.18867 3.57914 5.98183C3.57412 6.8731 3.57522 7.77914 3.57628 8.65534C3.57672 9.02786 3.57702 9.40041 3.57717 9.77297C3.57717 10.1588 3.57694 10.5446 3.57649 10.9304C3.57572 11.8084 3.57489 12.7162 3.57844 13.6093C3.58269 14.6852 4.39778 15.497 5.47442 15.4976C6.92717 15.4984 8.21921 15.4988 9.41152 15.4988C10.7434 15.4988 11.9507 15.4983 13.1166 15.4973C13.3637 15.5001 13.6089 15.4536 13.8379 15.3605C14.0668 15.2675 14.2749 15.1297 14.45 14.9553C14.6251 14.7809 14.7637 14.5733 14.8577 14.3448C14.9516 14.1162 14.9991 13.8712 14.9973 13.624C15.0008 11.0823 15.0008 8.50108 14.9973 5.95222ZM13.5475 6.54212C13.5476 8.87219 13.5474 11.2022 13.5469 13.5322L13.547 13.5591C13.5496 13.6191 13.5458 13.6792 13.5355 13.7383C13.5152 13.8293 13.4634 13.9101 13.3893 13.9665C13.3152 14.0229 13.2235 14.0512 13.1305 14.0465C12.7752 14.0488 12.4137 14.0485 12.0641 14.048L8.40267 14.0476C7.43684 14.0475 6.47101 14.0477 5.50519 14.0485C5.40431 14.0583 5.30293 14.0357 5.21579 13.9839C5.16025 13.95 5.11409 13.9028 5.08153 13.8464C5.04898 13.7901 5.03107 13.7265 5.02944 13.6615C5.02778 13.6292 5.02802 13.597 5.0282 13.5647L5.02829 13.5332L5.02826 12.962C5.0282 10.656 5.02838 8.34991 5.02879 6.04382L5.02873 6.01516C5.02608 5.95561 5.02985 5.89595 5.03996 5.8372C5.06014 5.751 5.10847 5.67398 5.17732 5.61831C5.24616 5.56264 5.33159 5.5315 5.42011 5.52981C5.44313 5.52886 5.46621 5.52868 5.48929 5.52868H5.51237L5.53465 5.52874L6.4969 5.52868C8.67788 5.52868 10.8589 5.52912 13.0399 5.52998C13.1201 5.52724 13.2002 5.53586 13.2779 5.55558C13.3545 5.57992 13.4214 5.62757 13.4696 5.69186C13.5177 5.75615 13.5445 5.83387 13.5462 5.91415C13.5478 5.94766 13.5476 5.98123 13.5475 6.01474L13.5475 6.04282L13.5475 6.54212Z" fill="#636363"/>
    <path d="M2.42832 10.4804L2.3764 10.4772C2.33793 10.4747 2.30226 10.4725 2.26644 10.4722C2.216 10.4718 2.16558 10.4722 2.11514 10.4727C2.02835 10.4734 1.94637 10.4742 1.86434 10.4705C1.80941 10.4714 1.75486 10.4614 1.70386 10.441C1.65286 10.4205 1.60643 10.3902 1.56729 10.3516C1.52815 10.3131 1.49708 10.2671 1.47589 10.2164C1.4547 10.1658 1.44382 10.1114 1.44388 10.0564C1.44208 10.0298 1.44243 10.0031 1.44264 9.97641L1.44279 9.9458C1.44273 7.45402 1.44276 4.96225 1.44288 2.47048L1.44279 2.44288C1.44189 2.40717 1.44293 2.37144 1.44589 2.33585C1.4509 2.23325 1.49427 2.13627 1.56741 2.06414C1.64054 1.992 1.7381 1.94996 1.84076 1.94636C1.87415 1.94323 1.91077 1.94376 1.94957 1.94411L1.99286 1.94447C2.64813 1.94535 3.30317 1.94563 3.95797 1.94529C5.73962 1.94648 7.58194 1.94772 9.39409 1.93909C9.60981 1.93968 9.76726 1.98885 9.86215 2.0901C9.949 2.18271 9.98659 2.32308 9.97383 2.50718C9.96756 2.59779 9.96919 2.68774 9.97075 2.77468C9.97146 2.81357 9.9722 2.85276 9.9722 2.89224C9.9722 2.91211 9.97611 2.93178 9.98371 2.95014C9.99132 2.9685 10.0025 2.98518 10.0165 2.99923C10.0306 3.01328 10.0472 3.02442 10.0656 3.03203C10.084 3.03963 10.1036 3.04354 10.1235 3.04354H11.2601C11.3003 3.04354 11.3387 3.0276 11.3671 2.99922C11.3955 2.97085 11.4114 2.93237 11.4114 2.89224C11.4114 2.82847 11.4119 2.76558 11.4124 2.70323C11.4135 2.56322 11.4146 2.431 11.4103 2.29489C11.4057 2.05028 11.351 1.8092 11.2498 1.58647C11.1485 1.36375 11.0028 1.16407 10.8216 0.999714C10.4627 0.663478 10.0151 0.5 9.45322 0.5H9.44687C7.64063 0.503783 5.8041 0.50325 4.02803 0.502955C3.44498 0.502778 2.86195 0.502678 2.27895 0.502658C2.10897 0.502718 1.93893 0.500648 1.7691 0.506972C1.33674 0.520299 0.924079 0.690847 0.608466 0.98665C0.20379 1.35699 -0.000942683 1.84346 3.26298e-06 2.43248C0.00281024 4.25101 0.00245657 6.09998 0.00213096 7.88813L0.00189455 9.98303C0.00192421 10.0353 0.00346096 10.0876 0.00547027 10.1398C0.0198449 10.5548 0.175271 10.9525 0.446098 11.2672C0.716924 11.582 1.08697 11.795 1.49515 11.8711C1.70354 11.901 1.91419 11.9121 2.12457 11.9042C2.21168 11.9035 2.30176 11.9028 2.38778 11.9051C2.3895 11.9052 2.39118 11.9052 2.39289 11.9052C2.43743 11.9043 2.47989 11.8861 2.51133 11.8546C2.53004 11.8405 2.54521 11.8222 2.55567 11.8013C2.56612 11.7803 2.57156 11.7572 2.57156 11.7338V10.6314C2.57157 10.5927 2.55672 10.5555 2.53007 10.5274C2.50342 10.4992 2.467 10.4824 2.42832 10.4804Z" fill="#636363"/>
</svg>