<svg width="35" height="35" viewBox="0 0 35 35" fill="none" xmlns="http://www.w3.org/2000/svg">
<path d="M17.3729 6.06514e-10C20.809 6.06508e-10 24.1678 1.0189 27.0248 2.92786C29.8818 4.83682 32.1085 7.5501 33.4234 10.7246C34.7383 13.8991 35.0824 17.3922 34.412 20.7622C33.7417 24.1322 32.0871 27.2278 29.6574 29.6574C27.2278 32.0871 24.1322 33.7417 20.7622 34.412C17.3922 35.0824 13.8991 34.7383 10.7246 33.4234C7.5501 32.1085 4.83682 29.8818 2.92786 27.0248C1.0189 24.1678 6.06514e-10 20.809 6.06512e-10 17.3729C-1.90624e-05 15.0915 0.449332 12.8324 1.3224 10.7246C2.19546 8.61678 3.47514 6.70159 5.08837 5.08837C6.70159 3.47514 8.61678 2.19546 10.7246 1.3224C12.8324 0.449332 15.0915 -1.90624e-05 17.3729 6.06514e-10Z" fill="#F5AC37"/>
<path d="M18.0132 18.5992H24.6146C24.7553 18.5992 24.8218 18.5992 24.8324 18.4147C24.8863 17.7426 24.8863 17.0674 24.8324 16.3953C24.8324 16.2647 24.7675 16.2108 24.6259 16.2108H11.4876C11.3251 16.2108 11.2812 16.2648 11.2812 16.4172V18.3498C11.2812 18.5992 11.2812 18.5992 11.5415 18.5992H18.0132ZM24.0954 13.9521C24.1141 13.9033 24.1141 13.8493 24.0954 13.8004C23.986 13.5609 23.8548 13.3319 23.7034 13.1163C23.4758 12.7495 23.2061 12.4105 22.8997 12.1063C22.7554 11.9222 22.5874 11.7579 22.4002 11.6177C21.4601 10.8177 20.3436 10.2521 19.1425 9.96735C18.5368 9.83165 17.9175 9.76604 17.2968 9.77182H11.465C11.3024 9.77182 11.2805 9.8367 11.2805 9.97824V13.8324C11.2805 13.995 11.2805 14.0388 11.4869 14.0388H24.0167C24.0167 14.0388 24.1253 14.0169 24.1474 13.9517H24.0949L24.0954 13.9521ZM24.0954 20.8577C23.9109 20.8374 23.7248 20.8374 23.5403 20.8577H11.4993C11.3367 20.8577 11.2815 20.8577 11.2815 21.0754V24.8432C11.2815 25.0174 11.2815 25.061 11.4993 25.061H17.0589C17.3241 25.081 17.5908 25.0629 17.8509 25.0071C18.6578 24.9494 19.452 24.7738 20.208 24.4857C20.4838 24.3898 20.7491 24.2662 21 24.1167H21.0758C22.3783 23.4401 23.4373 22.3739 24.1053 21.0669C24.1053 21.0669 24.181 20.9027 24.0958 20.8597L24.0954 20.8577ZM9.10034 27.0144V21.0103C9.10034 20.8687 9.10034 20.8477 8.92614 20.8477H6.56932C6.43868 20.8477 6.38483 20.8477 6.38483 20.6735V18.6109H8.90379C9.04445 18.6109 9.09918 18.6109 9.09918 18.4264V16.3852C9.09918 16.2545 9.09918 16.2226 8.92498 16.2226H6.56932C6.43868 16.2226 6.38483 16.2226 6.38483 16.0484V14.1382C6.38483 14.0186 6.38483 13.9865 6.55902 13.9865H8.89348C9.05606 13.9865 9.0999 13.9865 9.0999 13.7801V7.9277C9.0999 7.75351 9.0999 7.70996 9.31764 7.70996H17.4611C18.0514 7.73312 18.6392 7.79841 19.2202 7.90535C20.4168 8.12717 21.5664 8.55318 22.6187 9.16476C23.3153 9.57439 23.9574 10.0706 24.5294 10.6415C24.9584 11.0875 25.3471 11.5707 25.6907 12.0854C26.0321 12.6072 26.3165 13.1642 26.539 13.7467C26.5523 13.8198 26.5937 13.8847 26.6544 13.9274C26.7151 13.9701 26.7902 13.9872 26.8634 13.9751H28.807C29.0564 13.9751 29.0564 13.9751 29.0673 14.2143V15.9953C29.0673 16.1695 29.0024 16.213 28.828 16.213H27.3282C27.1766 16.213 27.1329 16.213 27.1437 16.4084C27.2032 17.0692 27.2032 17.7341 27.1437 18.3949C27.1437 18.5794 27.1437 18.6013 27.3509 18.6013H29.0647C29.1404 18.699 29.0647 18.7967 29.0647 18.8953C29.0756 19.0214 29.0756 19.1483 29.0647 19.2744V20.5886C29.0647 20.7731 29.0107 20.8278 28.8469 20.8278H26.7958C26.7268 20.8148 26.6554 20.829 26.5967 20.8675C26.5379 20.906 26.4963 20.9657 26.4807 21.0342C25.9916 22.3053 25.2104 23.4435 24.2002 24.3568C23.8312 24.6898 23.4434 25.0015 23.0389 25.2903C22.6042 25.5404 22.1813 25.8008 21.7357 26.0073C20.9154 26.3757 20.0556 26.6488 19.173 26.821C18.3347 26.9706 17.4841 27.0397 16.6327 27.0274H9.09613V27.0164L9.10034 27.0144Z" fill="#FEFEFD"/>
</svg>
