<svg width="15" height="14" viewBox="0 0 15 14" fill="none" xmlns="http://www.w3.org/2000/svg">
<path d="M6.56995 2.64111L6.57741 2.62941L6.5842 2.61731C6.74399 2.33277 6.78059 1.96709 6.54786 1.63623L6.54101 1.62649L6.53371 1.6171C6.42306 1.47471 6.2702 1.37643 6.11761 1.3242C5.98716 1.27955 5.80733 1.25262 5.62183 1.30932C5.33283 1.35581 5.13708 1.44221 4.98178 1.51076L4.97668 1.51301C1.88215 2.8787 0.462295 6.54177 1.82798 9.63629C3.19366 12.7308 6.85673 14.1507 9.95125 12.785C11.9072 11.9218 13.2905 10.1215 13.5787 7.9803L13.5815 7.95905L13.5826 7.93763C13.5977 7.62198 13.4537 7.27117 13.1152 7.0811C12.767 6.88557 12.3492 6.95997 12.0936 7.23745C11.7999 7.5018 11.482 7.73415 11.1139 7.89664C9.28244 8.70489 7.11997 7.86668 6.31173 6.03527C5.82218 4.926 5.92382 3.65545 6.56995 2.64111Z" stroke="#A1A1A1"/>
</svg>
