<svg width="109" height="78" viewBox="0 0 109 78" fill="none" xmlns="http://www.w3.org/2000/svg">
<path d="M109.468 1.03843C107.609 0.38079 105.517 0.933204 104.355 2.38001C92.7909 16.6902 74.196 25.2395 54.6422 25.2395C53.2575 25.2395 51.8728 25.1974 50.4896 25.1119C46.5947 24.8708 43.7758 21.487 43.7758 17.5846C43.7758 11.7711 40.144 9.16684 36.5413 9.16684C34.1878 9.16684 31.8344 10.2191 29.5682 12.2446L4.87178 34.6043C-0.561426 39.5234 -0.561426 47.494 4.87178 52.4131L29.5682 74.7728C31.8344 76.8247 34.1878 77.8506 36.5413 77.8506C40.144 77.8506 43.7758 75.2463 43.7758 69.4328C43.7758 65.9815 46.4835 63.1619 49.9059 62.716C82.1783 58.511 108.125 35.1465 112.199 5.14209C112.432 3.40592 111.299 1.69607 109.468 1.03843Z" fill="white"/>
<path d="M109.475 1.03772C107.621 0.377103 105.534 0.932019 104.375 2.38538C92.8436 16.7604 74.2999 25.3484 54.8 25.3484C50.8263 25.3484 47.3535 28.4146 47.3535 32.3883V44.3297C47.3535 54.5237 56.2675 62.6537 65.8841 59.2714C90.4367 50.636 108.831 30.2268 112.199 5.18639C112.43 3.41594 111.3 1.69834 109.475 1.03772Z" fill="white"/>
</svg>
