<?xml version="1.0" encoding="utf-8"?>
<!-- Generator: Adobe Illustrator 25.0.1, SVG Export Plug-In . SVG Version: 6.00 Build 0)  -->
<svg version="1.0"
	 id="svg8" xmlns:cc="http://creativecommons.org/ns#" xmlns:dc="http://purl.org/dc/elements/1.1/" xmlns:inkscape="http://www.inkscape.org/namespaces/inkscape" xmlns:rdf="http://www.w3.org/1999/02/22-rdf-syntax-ns#" xmlns:sodipodi="http://sodipodi.sourceforge.net/DTD/sodipodi-0.dtd" xmlns:svg="http://www.w3.org/2000/svg"
	 xmlns="http://www.w3.org/2000/svg" xmlns:xlink="http://www.w3.org/1999/xlink" x="0px" y="0px" viewBox="0 0 1060.9 688.8"
	 style="enable-background:new 0 0 1060.9 688.8;" xml:space="preserve">
<style type="text/css">
	.st0{fill-rule:evenodd;clip-rule:evenodd;stroke:#000000;stroke-width:1.2373;stroke-miterlimit:11.3386;}
	.st1{fill:#FFFFFF;}
</style>
<sodipodi:namedview  bordercolor="#666666" borderopacity="1.0" id="base" inkscape:current-layer="layer1" inkscape:cx="184.71274" inkscape:cy="416.19233" inkscape:document-rotation="0" inkscape:document-units="mm" inkscape:pageopacity="0.0" inkscape:pageshadow="2" inkscape:snap-bbox="true" inkscape:window-height="1051" inkscape:window-maximized="1" inkscape:window-width="1842" inkscape:window-x="69" inkscape:window-y="-9" inkscape:zoom="0.39629945" pagecolor="#ffffff" showgrid="false">
	</sodipodi:namedview>
<g id="layer1" transform="translate(295.65791,-75.71863)" inkscape:groupmode="layer" inkscape:label="Layer 1">
	<circle id="path854" class="st0" cx="234.7" cy="420.1" r="284.6"/>
	<path id="path862" class="st1" d="M77.7,261.8c-12,12.6-21.9,23.2-22,23.4c-0.1,0.3,10.7,10.9,24,23.5
		c13.3,12.7,24.9,23.8,25.7,24.5l1.5,1.4l-2.7,4.5c-23.7,39.2-28.6,86.4-13.7,129.8c2.8,8.2,7.6,18.7,11.7,25.6c2,3.4,2.9,5.6,2.7,6
		S92.6,513.7,78,529c-14.6,15.2-26.5,27.9-26.7,28.1c-0.1,0.3,40.8,39.8,44.7,43l1.5,1.3l23.1-24.1c12.7-13.3,24.6-25.8,26.4-27.7
		l3.4-3.4l3.2,2c16.3,10.4,35.4,17.6,56.5,21.4c10.6,1.9,30.8,2.4,42.1,1c21.8-2.5,43.4-9.8,61.1-20.5l4.6-2.8l4.9,4.8
		c10.7,10.4,50.7,48.4,51.1,48.6c0.4,0.2,44.3-45.7,44.2-46.3c-0.1-0.3-30.2-29.2-48.6-46.5l-6.1-5.8l2.8-4.6
		c23.5-39.1,28.4-86.5,13.2-130.2c-2.2-6.4-8.9-20.8-12.8-27.4l-1.9-3.3l25.7-26.9c14.1-14.7,25.6-27,25.5-27.3
		c-0.4-1-45.4-43.5-46-43.5c-0.4,0-11.7,11.5-25.2,25.7c-13.5,14.1-24.7,25.7-25,25.8c-0.2,0.1-1.5-0.5-2.7-1.4
		c-3.4-2.3-12-7-16.8-9.2c-14.6-6.7-28.2-10.8-44-13.1c-8.2-1.2-32.8-1.4-40.4-0.3c-18.2,2.6-33.1,7.1-48.3,14.7
		c-4.4,2.1-9.5,4.9-11.5,6.1l-3.6,2.2l-4.1-4c-2.2-2.2-12.2-11.6-22.1-21.1c-9.9-9.4-20-19-22.4-21.4l-4.4-4.3L77.7,261.8z
		 M245.6,327c15.9,1.9,30.1,7.3,43.2,16.5c6.7,4.7,16.7,14.7,21.4,21.4c26.7,37.8,21.6,89.2-12,120.7c-28.7,26.8-70.2,32.8-105.1,15
		c-25.2-12.9-43-36.5-48.7-64.8c-1.8-9-1.8-25.8,0-34.7c1.7-8.8,4-15.1,8.3-23.9C169.9,342.6,207.2,322.4,245.6,327L245.6,327z"/>
</g>
</svg>
