<svg width="23" height="24" viewBox="0 0 23 24" fill="none" xmlns="http://www.w3.org/2000/svg">
<mask id="path-1-inside-1_242_3627" fill="white">
<path fill-rule="evenodd" clip-rule="evenodd" d="M13.8448 20.4274C18.4584 19.0342 21.9619 15.3382 22.5826 10.7671C22.6235 10.4614 22.424 10.1603 22.1016 10.0445C22.0733 10.0345 22.0447 10.0261 22.016 10.0192C21.9499 10.0034 21.883 9.99582 21.8168 9.9961C21.5777 9.99682 21.3475 10.0985 21.2011 10.2807C19.1648 12.8007 15.8903 14.3062 12.4469 14.3062C12.203 14.3062 11.9592 14.2988 11.7156 14.2838C11.0297 14.2413 10.5333 13.6454 10.5333 12.9582C10.5333 11.9345 9.89379 11.4759 9.25935 11.4759C8.84492 11.4759 8.43048 11.6612 8.0314 12.0179L3.68242 15.9553C2.72565 16.8216 2.72565 18.2252 3.68242 19.0914L8.0314 23.0289C8.43048 23.3903 8.84492 23.5709 9.25935 23.5709C9.89379 23.5709 10.5333 23.1123 10.5333 22.0886C10.5333 21.4808 11.0102 20.9843 11.6128 20.9058C12.3793 20.8059 13.1255 20.6446 13.8448 20.4274Z"/>
</mask>
<path d="M13.8448 20.4274L13.3822 18.8958H13.3822L13.8448 20.4274ZM22.5826 10.7671L24.168 10.9824L24.1684 10.9794L22.5826 10.7671ZM22.1016 10.0445L22.6426 8.53869L22.6351 8.53603L22.1016 10.0445ZM22.016 10.0192L21.6431 11.5752L21.6449 11.5756L22.016 10.0192ZM21.8168 9.9961L21.8215 11.5961L21.8235 11.5961L21.8168 9.9961ZM21.2011 10.2807L22.4456 11.2864L22.4485 11.2827L21.2011 10.2807ZM11.7156 14.2838L11.6168 15.8807H11.6168L11.7156 14.2838ZM8.0314 12.0179L6.96514 10.8249L6.95753 10.8318L8.0314 12.0179ZM3.68242 15.9553L2.60856 14.7693L2.60856 14.7693L3.68242 15.9553ZM3.68242 19.0914L4.75629 17.9054H4.75629L3.68242 19.0914ZM8.0314 23.0289L6.95753 24.215H6.95754L8.0314 23.0289ZM11.6128 20.9058L11.8196 22.4923H11.8196L11.6128 20.9058ZM14.3074 21.9591C19.4318 20.4116 23.4512 16.2613 24.168 10.9824L20.9971 10.5518C20.4725 14.4151 17.485 17.6567 13.3822 18.8958L14.3074 21.9591ZM24.1684 10.9794C24.3237 9.81971 23.5681 8.87123 22.6426 8.53871L21.5606 11.5502C21.2798 11.4493 20.9233 11.1031 20.9967 10.5548L24.1684 10.9794ZM22.6351 8.53603C22.5531 8.50705 22.4703 8.48268 22.3871 8.46283L21.6449 11.5756C21.6191 11.5694 21.5935 11.5619 21.5681 11.5529L22.6351 8.53603ZM22.3888 8.46324C22.1967 8.41721 22.0023 8.39531 21.81 8.39612L21.8235 11.5961C21.7637 11.5963 21.7032 11.5895 21.6431 11.5751L22.3888 8.46324ZM21.812 8.39611C21.1382 8.39813 20.4319 8.68342 19.9537 9.27872L22.4485 11.2827C22.2631 11.5135 22.0172 11.5955 21.8215 11.5961L21.812 8.39611ZM19.9567 9.2751C18.2454 11.3928 15.442 12.7062 12.4469 12.7062V15.9062C16.3385 15.9062 20.0841 14.2087 22.4456 11.2864L19.9567 9.2751ZM12.4469 12.7062C12.2354 12.7062 12.0246 12.6998 11.8144 12.6868L11.6168 15.8807C11.8938 15.8978 12.1706 15.9062 12.4469 15.9062V12.7062ZM11.8144 12.6868C11.9263 12.6937 12.0199 12.7503 12.0722 12.8101C12.119 12.8637 12.1333 12.9177 12.1333 12.9582H8.93334C8.93334 14.382 9.98291 15.7796 11.6168 15.8807L11.8144 12.6868ZM12.1333 12.9582C12.1333 12.1013 11.857 11.3016 11.2736 10.7098C10.7026 10.1306 9.95826 9.87587 9.25935 9.87587V13.0759C9.19487 13.0759 9.08757 13.0505 8.99487 12.9564C8.9505 12.9114 8.93071 12.8708 8.92474 12.8548C8.91959 12.841 8.93334 12.869 8.93334 12.9582H12.1333ZM9.25935 9.87587C8.34059 9.87587 7.56266 10.2909 6.96517 10.8249L9.09764 13.2108C9.19654 13.1224 9.26162 13.0875 9.28746 13.0761C9.30912 13.0665 9.29655 13.0759 9.25935 13.0759V9.87587ZM6.95753 10.8318L2.60856 14.7693L4.75629 17.1414L9.10527 13.2039L6.95753 10.8318ZM2.60856 14.7693C0.950273 16.2706 0.950272 18.7762 2.60856 20.2775L4.75629 17.9054C4.60648 17.7697 4.56484 17.6303 4.56484 17.5234C4.56484 17.4165 4.60648 17.2771 4.75629 17.1414L2.60856 14.7693ZM2.60856 20.2775L6.95753 24.215L9.10527 21.8428L4.75629 17.9054L2.60856 20.2775ZM6.95754 24.215C7.56709 24.7669 8.34792 25.1709 9.25935 25.1709V21.9709C9.29076 21.9709 9.30215 21.9789 9.284 21.9709C9.26173 21.9611 9.20029 21.9289 9.10527 21.8428L6.95754 24.215ZM9.25935 25.1709C9.95826 25.1709 10.7026 24.9162 11.2736 24.337C11.857 23.7452 12.1333 22.9455 12.1333 22.0886H8.93334C8.93334 22.1778 8.91959 22.2058 8.92474 22.192C8.93071 22.176 8.9505 22.1354 8.99487 22.0904C9.08757 21.9963 9.19487 21.9709 9.25935 21.9709V25.1709ZM12.1333 22.0886C12.1333 22.2153 12.0811 22.321 12.0206 22.3863C11.9636 22.4478 11.8926 22.4828 11.8196 22.4923L11.4061 19.3192C10.083 19.4916 8.93334 20.6022 8.93334 22.0886H12.1333ZM11.8196 22.4923C12.6729 22.3812 13.5047 22.2015 14.3074 21.9591L13.3822 18.8958C12.7464 19.0878 12.0857 19.2306 11.4061 19.3192L11.8196 22.4923Z" fill="#636363" fill-opacity="0.53" mask="url(#path-1-inside-1_242_3627)"/>
<mask id="path-3-inside-2_242_3627" fill="white">
<path fill-rule="evenodd" clip-rule="evenodd" d="M9.25286 3.51007C4.63929 4.90335 1.13578 8.59929 0.515091 13.1704C0.474159 13.4761 0.6737 13.7772 0.996037 13.893C1.02411 13.9029 1.05248 13.9113 1.08102 13.9181C1.14726 13.9341 1.21443 13.9417 1.2809 13.9414C1.51995 13.9407 1.75013 13.839 1.89653 13.6568C3.93287 11.1368 7.2074 9.63126 10.6508 9.63126C10.8946 9.63126 11.1385 9.63867 11.382 9.65374C12.0679 9.69619 12.5643 10.2921 12.5643 10.9793C12.5643 12.003 13.2039 12.4616 13.8383 12.4616C14.2527 12.4616 14.6672 12.2763 15.0663 11.9196L19.4152 7.98215C20.372 7.1159 20.372 5.7123 19.4152 4.84605L15.0663 0.908561C14.6672 0.547238 14.2527 0.366578 13.8383 0.366578C13.2039 0.366577 12.5643 0.825178 12.5643 1.84893C12.5643 2.45669 12.0875 2.95322 11.4848 3.03174C10.7183 3.13161 9.97211 3.29286 9.25286 3.51007Z"/>
</mask>
<path d="M9.25286 3.51007L9.71542 5.04175L9.71542 5.04175L9.25286 3.51007ZM0.515091 13.1704L-1.07036 12.9551L-1.07076 12.9581L0.515091 13.1704ZM0.996037 13.893L0.45504 15.3988L0.462543 15.4015L0.996037 13.893ZM1.08102 13.9181L1.45515 12.3625L1.45342 12.3621L1.08102 13.9181ZM1.2809 13.9414L1.27611 12.3414L1.2742 12.3414L1.2809 13.9414ZM1.89653 13.6568L0.652052 12.6511L0.649138 12.6548L1.89653 13.6568ZM11.382 9.65374L11.4808 8.0568L11.4808 8.0568L11.382 9.65374ZM15.0663 11.9196L16.1325 13.1126L16.1401 13.1057L15.0663 11.9196ZM19.4152 7.98215L18.3414 6.79606L18.3414 6.79606L19.4152 7.98215ZM19.4152 4.84605L20.4891 3.65996L19.4152 4.84605ZM15.0663 0.908561L13.9924 2.09465L13.9924 2.09465L15.0663 0.908561ZM11.4848 3.03174L11.6916 4.61833L11.4848 3.03174ZM8.7903 1.97839C3.66587 3.52594 -0.353563 7.67617 -1.07036 12.9551L2.10054 13.3857C2.62511 9.52241 5.6127 6.28075 9.71542 5.04175L8.7903 1.97839ZM-1.07076 12.9581C-1.22602 14.1178 -0.470471 15.0663 0.455046 15.3988L1.53703 12.3873C1.81787 12.4882 2.17434 12.8344 2.10094 13.3827L-1.07076 12.9581ZM0.462543 15.4015C0.543897 15.4302 0.626058 15.4544 0.70862 15.4742L1.45342 12.3621C1.4789 12.3682 1.50431 12.3757 1.52953 12.3846L0.462543 15.4015ZM0.706882 15.4738C0.899616 15.5201 1.09471 15.5422 1.28761 15.5414L1.2742 12.3414C1.33415 12.3412 1.39491 12.348 1.45515 12.3625L0.706882 15.4738ZM1.2857 15.5414C1.95944 15.5394 2.66573 15.2541 3.14392 14.6588L0.649138 12.6548C0.834526 12.424 1.08045 12.342 1.27611 12.3414L1.2857 15.5414ZM3.141 14.6624C4.85224 12.5447 7.65569 11.2313 10.6508 11.2313L10.6508 8.03126C6.75911 8.03126 3.01351 9.72882 0.652058 12.6511L3.141 14.6624ZM10.6508 11.2313C10.8622 11.2313 11.0731 11.2377 11.2832 11.2507L11.4808 8.0568C11.2038 8.03966 10.927 8.03126 10.6508 8.03126L10.6508 11.2313ZM11.2832 11.2507C11.1714 11.2438 11.0777 11.1872 11.0255 11.1274C10.9786 11.0738 10.9643 11.0198 10.9643 10.9793L14.1643 10.9793C14.1643 9.55548 13.1148 8.15791 11.4808 8.0568L11.2832 11.2507ZM10.9643 10.9793C10.9643 11.8362 11.2407 12.6359 11.824 13.2277C12.3951 13.8069 13.1394 14.0616 13.8383 14.0616L13.8383 10.8616C13.9028 10.8616 14.0101 10.887 14.1028 10.9811C14.1472 11.0261 14.1669 11.0667 14.1729 11.0827C14.1781 11.0965 14.1643 11.0685 14.1643 10.9793L10.9643 10.9793ZM13.8383 14.0616C14.7571 14.0616 15.535 13.6466 16.1325 13.1126L14 10.7267C13.9011 10.8151 13.836 10.85 13.8102 10.8614C13.7885 10.871 13.8011 10.8616 13.8383 10.8616L13.8383 14.0616ZM16.1401 13.1057L20.4891 9.16824L18.3414 6.79606L13.9924 10.7336L16.1401 13.1057ZM20.4891 9.16824C22.1474 7.66686 22.1474 5.16135 20.4891 3.65996L18.3414 6.03214C18.4912 6.16778 18.5328 6.30718 18.5328 6.4141C18.5328 6.52102 18.4912 6.66042 18.3414 6.79606L20.4891 9.16824ZM20.4891 3.65996L16.1401 -0.277529L13.9924 2.09465L18.3414 6.03214L20.4891 3.65996ZM16.1401 -0.277527C15.5306 -0.829412 14.7497 -1.23342 13.8383 -1.23342L13.8383 1.96658C13.8069 1.96658 13.7955 1.95859 13.8137 1.96658C13.8359 1.97638 13.8974 2.00862 13.9924 2.09465L16.1401 -0.277527ZM13.8383 -1.23342C13.1394 -1.23342 12.3951 -0.978718 11.824 -0.399453C11.2407 0.192255 10.9643 0.99203 10.9643 1.84893L14.1643 1.84893C14.1643 1.75974 14.1781 1.73174 14.1729 1.74554C14.1669 1.76151 14.1472 1.80214 14.1028 1.84715C14.0101 1.94117 13.9028 1.96658 13.8383 1.96658L13.8383 -1.23342ZM10.9643 1.84893C10.9643 1.72217 11.0166 1.61646 11.077 1.55123C11.134 1.48974 11.2051 1.45467 11.2781 1.44515L11.6916 4.61833C13.0147 4.44593 14.1643 3.3353 14.1643 1.84893L10.9643 1.84893ZM11.2781 1.44515C10.4247 1.55634 9.59295 1.73599 8.7903 1.97839L9.71542 5.04175C10.3513 4.84973 11.0119 4.70688 11.6916 4.61833L11.2781 1.44515Z" fill="#636363" fill-opacity="0.53" mask="url(#path-3-inside-2_242_3627)"/>
</svg>
