<svg width="14" height="14" viewBox="0 0 14 14" fill="none" xmlns="http://www.w3.org/2000/svg">
<path d="M6.97888 4.71567e-06C10.8555 -0.00444607 14.0044 3.14226 14 7.0189C13.9955 10.8889 10.8466 14.0222 6.9455 13.9977C3.09334 13.9733 0.0133948 10.8711 4.24565e-05 7.02112C-0.0133099 3.14894 3.1245 0.0044555 6.97888 4.71567e-06ZM4.84027 11.2115C4.83805 11.2249 4.83582 11.2405 4.83582 11.256C4.8603 11.7078 5.16073 12.0171 5.61249 12.0305C5.73711 12.0349 5.86396 12.0216 5.98413 11.9927C7.01448 11.7568 7.85791 11.1648 8.68575 10.5484C8.79925 10.4638 8.81483 10.3392 8.77477 10.2101C8.69243 9.95419 8.44541 9.84292 8.18504 9.96087C7.9625 10.0632 7.75332 10.1856 7.533 10.2902H7.53078C7.40615 10.3481 7.2704 10.2301 7.30601 10.0988C7.30601 10.0966 7.30601 10.0966 7.30601 10.0944C7.73551 8.61005 8.16946 7.12572 8.60342 5.6436C8.74139 5.17182 8.49882 4.80686 8.01146 4.7579C7.96473 4.75345 7.91577 4.75567 7.86904 4.7579C7.33049 4.78238 6.82755 4.92925 6.34687 5.16959C5.89734 5.39436 5.49231 5.68811 5.11177 6.01524C4.97825 6.12874 4.91816 6.28452 4.96935 6.4492C5.01831 6.60275 5.17186 6.6339 5.31651 6.65616C5.46784 6.67841 5.59468 6.6161 5.72598 6.55379C5.8595 6.48925 5.99303 6.42027 6.131 6.37131C6.24895 6.33125 6.28233 6.36908 6.25563 6.48925C6.2445 6.54044 6.22892 6.59162 6.21334 6.64281C5.77939 8.06483 5.34321 9.48463 4.90926 10.9067C4.88256 11.0046 4.86253 11.1092 4.84027 11.2115ZM7.82453 3.23795C7.82453 3.2335 7.82453 3.22905 7.82453 3.2246C7.81785 2.68383 7.6554 2.30996 7.23257 2.08742C6.68068 1.7959 6.03754 2.0852 5.87953 2.68828C5.79942 2.99316 5.8061 3.29804 5.88398 3.60514C5.9819 3.99681 6.22447 4.24606 6.62059 4.31282C7.02116 4.37958 7.3661 4.25273 7.60199 3.9078C7.75332 3.68303 7.8134 3.42711 7.82453 3.23795Z" fill="#B4B4B4"/>
</svg>
