<svg width="13" height="13" viewBox="0 0 13 13" fill="none" xmlns="http://www.w3.org/2000/svg">
<g clip-path="url(#clip0_1_281)">
<path d="M6.5 4.08826C5.16176 4.08826 4.08823 5.16179 4.08823 6.50002C4.08823 7.83826 5.16176 8.91179 6.5 8.91179C7.83823 8.91179 8.91176 7.83826 8.91176 6.50002C8.91176 5.16179 7.83823 4.08826 6.5 4.08826Z" stroke="#A1A1A1"/>
<path d="M6.50001 2.275C6.13889 2.275 5.85001 1.98611 5.85001 1.625V0.65C5.85001 0.288889 6.13889 0 6.50001 0C6.86112 0 7.15001 0.288889 7.15001 0.65V1.66111C7.15001 1.98611 6.86112 2.275 6.50001 2.275Z" fill="#A1A1A1"/>
<path d="M6.50001 10.725C6.13889 10.725 5.85001 11.0139 5.85001 11.375V12.3861C5.85001 12.7472 6.13889 13.0361 6.50001 13.0361C6.86112 13.0361 7.15001 12.7472 7.15001 12.3861V11.375C7.15001 11.0139 6.86112 10.725 6.50001 10.725Z" fill="#A1A1A1"/>
<path d="M9.46111 3.53889C9.20833 3.28611 9.20833 2.88889 9.46111 2.63611L10.1833 1.91389C10.4361 1.66111 10.8333 1.66111 11.0861 1.91389C11.3389 2.16667 11.3389 2.56389 11.0861 2.81667L10.3639 3.53889C10.1472 3.75555 9.71388 3.75555 9.46111 3.53889Z" fill="#A1A1A1"/>
<path d="M3.5389 9.4972C3.28612 9.24442 2.8889 9.24442 2.63612 9.4972L1.9139 10.2194C1.66112 10.4722 1.66112 10.8694 1.9139 11.1222C2.16667 11.375 2.5639 11.375 2.81667 11.1222L3.5389 10.4C3.75556 10.1472 3.75556 9.71387 3.5389 9.4972Z" fill="#A1A1A1"/>
<path d="M10.725 6.49998C10.725 6.13886 11.0139 5.84998 11.375 5.84998H12.3861C12.7472 5.84998 13.0361 6.13886 13.0361 6.49998C13.0361 6.86109 12.7472 7.14998 12.3861 7.14998H11.375C11.0139 7.14998 10.725 6.86109 10.725 6.49998Z" fill="#A1A1A1"/>
<path d="M2.275 6.49998C2.275 6.13886 1.98611 5.84998 1.625 5.84998H0.65C0.288889 5.84998 0 6.13886 0 6.49998C0 6.86109 0.288889 7.14998 0.65 7.14998H1.66111C1.98611 7.14998 2.275 6.86109 2.275 6.49998Z" fill="#A1A1A1"/>
<path d="M9.46111 9.4972C9.71389 9.24442 10.1111 9.24442 10.3639 9.4972L11.0861 10.2194C11.3389 10.4722 11.3389 10.8694 11.0861 11.1222C10.8333 11.375 10.4361 11.375 10.1833 11.1222L9.46111 10.4C9.24445 10.1472 9.24445 9.71387 9.46111 9.4972Z" fill="#A1A1A1"/>
<path d="M3.5389 3.53889C3.79167 3.28611 3.79167 2.88889 3.5389 2.63611L2.81667 1.91389C2.5639 1.66111 2.16667 1.66111 1.9139 1.91389C1.66112 2.16667 1.66112 2.56389 1.9139 2.81667L2.63612 3.53889C2.85278 3.75555 3.28612 3.75555 3.5389 3.53889Z" fill="#A1A1A1"/>
</g>
<defs>
<clipPath id="clip0_1_281">
<rect width="13" height="13" fill="white"/>
</clipPath>
</defs>
</svg>
