<svg width="15" height="20" viewBox="0 0 15 20" fill="none" xmlns="http://www.w3.org/2000/svg">
<path d="M12.6413 6.78374H11.7514V5.01077C11.7571 4.4274 11.6464 3.84874 11.4259 3.30862C11.2054 2.7685 10.8794 2.27776 10.4671 1.86507C10.0547 1.45238 9.56421 1.12603 9.02426 0.905101C8.48431 0.684168 7.90574 0.573081 7.32237 0.578335C6.7387 0.57262 6.15976 0.683366 5.61941 0.904092C5.07906 1.12482 4.58816 1.45109 4.17542 1.86383C3.76269 2.27656 3.43641 2.76746 3.21569 3.30781C2.99496 3.84816 2.88421 4.42711 2.88993 5.01077V6.78374H2.00344C1.53367 6.7852 1.08355 6.97246 0.751369 7.30465C0.419187 7.63683 0.231924 8.08694 0.230469 8.55672L0.230469 17.4216C0.231924 17.8914 0.419187 18.3415 0.751369 18.6737C1.08355 19.0058 1.53367 19.1931 2.00344 19.1946H12.6413C13.1111 19.1931 13.5612 19.0058 13.8934 18.6737C14.2255 18.3415 14.4128 17.8914 14.4143 17.4216V8.55672C14.4128 8.08694 14.2255 7.63683 13.8934 7.30465C13.5612 6.97246 13.1111 6.7852 12.6413 6.78374ZM7.32237 14.7621C6.9717 14.7621 6.62892 14.6581 6.33735 14.4633C6.04579 14.2685 5.81854 13.9916 5.68435 13.6676C5.55016 13.3437 5.51505 12.9872 5.58346 12.6433C5.65187 12.2993 5.82073 11.9834 6.06868 11.7355C6.31664 11.4875 6.63255 11.3187 6.97648 11.2502C7.3204 11.1818 7.67689 11.2169 8.00085 11.3511C8.32482 11.4853 8.60172 11.7126 8.79654 12.0041C8.99136 12.2957 9.09534 12.6385 9.09534 12.9892C9.09389 13.4589 8.90662 13.909 8.57444 14.2412C8.24226 14.5734 7.79214 14.7607 7.32237 14.7621ZM10.0701 6.78374H4.57667V5.01077C4.57667 4.28193 4.8662 3.58293 5.38157 3.06756C5.89694 2.55219 6.59594 2.26266 7.32478 2.26266C8.05362 2.26266 8.75262 2.55219 9.26799 3.06756C9.78336 3.58293 10.0729 4.28193 10.0729 5.01077L10.0701 6.78374Z" fill="#1a78c2"/>
</svg>
