<svg width="133" height="21" viewBox="0 0 133 21" fill="none" xmlns="http://www.w3.org/2000/svg">
<path d="M20.6493 17.3826C19.9121 17.3984 19.1809 17.2478 18.5101 16.9419C17.8392 16.6361 17.2459 16.183 16.7744 15.6162C15.7465 14.4205 15.2014 12.8845 15.2458 11.3083V5.97434C15.2411 5.70439 15.2532 5.43441 15.2819 5.16596C15.3167 4.95714 15.382 4.75457 15.4756 4.56468C15.6912 4.15047 16.2916 3.94336 17.2768 3.94336C18.3537 3.94336 18.9848 4.23554 19.1701 4.81989C19.2792 5.2027 19.3243 5.60088 19.3037 5.99839V11.3324C19.2627 11.8222 19.4175 12.3083 19.7344 12.684C20.0513 13.0598 20.5043 13.2945 20.994 13.3366C21.0963 13.3453 21.1991 13.3453 21.3013 13.3366C21.572 13.3474 21.8421 13.3039 22.0956 13.2087C22.3492 13.1134 22.5811 12.9684 22.7778 12.7821C22.9671 12.5916 23.115 12.364 23.2123 12.1136C23.3095 11.8632 23.354 11.5954 23.343 11.327V7.24504C23.3391 6.97736 23.3507 6.70968 23.3777 6.44334C23.4142 6.22846 23.4884 6.02173 23.5969 5.83271C23.7973 5.43185 24.3901 5.23143 25.3753 5.23143C26.3454 5.23143 26.9382 5.43854 27.1538 5.85275C27.2486 6.04636 27.3139 6.25309 27.3475 6.46605C27.376 6.73228 27.3876 7.00006 27.3822 7.26775V18.2404C27.3865 18.4987 27.3754 18.7571 27.3488 19.014C27.3139 19.2226 27.2395 19.4226 27.1297 19.6033C26.8972 20.0041 26.3053 20.2032 25.3513 20.2046C24.3972 20.2059 23.8347 20.0188 23.6142 19.6487C23.4551 19.3632 23.3757 19.0402 23.3844 18.7134V15.9074C23.2672 16.0791 23.1275 16.2341 22.9689 16.3684C22.7769 16.5529 22.5724 16.7238 22.3569 16.8802C21.8497 17.2141 21.2552 17.3908 20.6479 17.3879" fill="#404040"/>
<path d="M35.9453 5.23449C37.8159 5.36142 38.484 5.8037 39.5062 6.9822C40.5283 8.1607 40.7822 9.62648 40.7822 11.3194V15.384C40.7864 15.6518 40.7744 15.9195 40.7461 16.1858C40.7153 16.3917 40.6498 16.591 40.5524 16.775C40.3359 17.1901 39.7355 17.3981 38.7512 17.399C37.6582 17.399 37.0271 17.1139 36.8579 16.5438C36.7515 16.1605 36.7064 15.7628 36.7243 15.3653V11.2967C36.7464 11.0285 36.71 10.7586 36.6175 10.5059C36.525 10.2531 36.3787 10.0235 36.1888 9.83283C35.9988 9.64219 35.7696 9.49513 35.5171 9.40183C35.2647 9.30852 34.995 9.2712 34.7267 9.29244C34.456 9.28121 34.1858 9.32452 33.9321 9.41978C33.6785 9.51503 33.4466 9.6603 33.2502 9.84695C33.0605 10.0373 32.9122 10.2648 32.8147 10.5152C32.7172 10.7656 32.6726 11.0335 32.6837 11.302V18.198C32.689 18.4657 32.6774 18.7335 32.6489 18.9997C32.6146 19.208 32.5402 19.4077 32.4298 19.5876C32.2294 20.0036 31.6366 20.2116 30.6514 20.2116C29.6831 20.2116 29.0907 20.0036 28.8742 19.5876C28.7778 19.3954 28.7115 19.1894 28.6778 18.977C28.6507 18.7107 28.6391 18.443 28.6431 18.1753V7.1853C28.6393 6.92696 28.6509 6.66862 28.6778 6.41165C28.7128 6.20351 28.7871 6.00396 28.897 5.82374C29.1116 5.43892 29.7045 5.24651 30.6754 5.24651C31.6152 5.24651 32.1942 5.42467 32.4124 5.78098C32.57 6.06981 32.6474 6.39549 32.6369 6.72432C32.7544 6.55256 32.8942 6.39711 33.0525 6.262C33.2433 6.08053 33.4514 5.91809 33.6738 5.77697C34.3705 5.40065 35.1537 5.2136 35.9453 5.23449Z" fill="#404040"/>
<path d="M50.204 6.57441C50.204 6.54368 50.2107 6.51295 50.2161 6.48355C50.3408 5.68185 50.9447 5.281 52.0279 5.281C52.4774 5.26224 52.9272 5.30723 53.3641 5.41462C53.4962 5.44794 53.6198 5.50887 53.7266 5.59339C53.8335 5.67791 53.9212 5.78411 53.9841 5.90499C54.0869 6.09617 54.1578 6.30289 54.1939 6.51696C54.2205 6.78332 54.2317 7.05101 54.2273 7.31866V15.4025C54.2317 15.6702 54.2205 15.9378 54.1939 16.2042C54.1587 16.4167 54.0925 16.6229 53.9974 16.8162C53.781 17.2161 53.2536 17.4161 52.4154 17.4161C51.5772 17.4161 51.0151 17.3128 50.7292 17.1061C50.5858 16.9989 50.4672 16.862 50.3817 16.7047C50.2961 16.5474 50.2455 16.3735 50.2334 16.1948C49.6633 17.0117 48.7124 17.4197 47.3807 17.4188C46.049 17.4179 44.8117 16.8059 43.6688 15.5829C42.5706 14.447 41.9576 12.9283 41.9596 11.3484C41.9616 9.76845 42.5784 8.25131 43.6795 7.11824C44.8277 5.90945 46.0864 5.30505 47.4555 5.30505C47.947 5.29845 48.4346 5.39305 48.8879 5.58298C49.4238 5.76018 49.8864 6.10911 50.204 6.57575V6.57441ZM46.0004 11.378C46.0026 11.6355 46.0569 11.89 46.16 12.1261C46.2631 12.3621 46.4129 12.5749 46.6004 12.7515C46.7872 12.9489 47.0131 13.1054 47.2635 13.211C47.514 13.3165 47.7837 13.3689 48.0555 13.3648C48.3236 13.3705 48.5898 13.3173 48.8352 13.209C49.0805 13.1008 49.2992 12.94 49.4758 12.7382C49.8332 12.3696 50.0355 11.8779 50.041 11.3646C50.0355 10.8477 49.8422 10.3505 49.4972 9.96562C49.3205 9.75351 49.0973 9.58487 48.845 9.47274C48.5927 9.3606 48.318 9.30797 48.0421 9.31891C47.7645 9.31083 47.4885 9.36467 47.2343 9.47653C46.9801 9.5884 46.7539 9.75547 46.5723 9.96562C46.2132 10.3477 46.011 10.8509 46.0058 11.3753" fill="#404040"/>
<path d="M59.4774 6.99448C60.2008 5.89971 61.0706 5.35233 62.087 5.35233C62.8016 5.32074 63.5106 5.49223 64.1318 5.84694C64.753 6.20165 65.2611 6.72507 65.5971 7.35658C65.7871 7.10243 65.9914 6.8593 66.2091 6.62837C66.55 6.2997 66.9349 6.01999 67.3528 5.79727C67.8432 5.50925 68.4009 5.35576 68.9696 5.35233C69.5586 5.34386 70.1421 5.46697 70.6774 5.7127C71.2128 5.95842 71.6866 6.32055 72.0642 6.77268C72.8953 7.72047 73.3108 9.28735 73.3108 11.4733V15.5139C73.3155 15.7816 73.3039 16.0493 73.2761 16.3156C73.2395 16.5313 73.1653 16.7389 73.057 16.9289C72.8565 17.344 72.2637 17.5511 71.2785 17.5502C70.3085 17.5502 69.7161 17.3347 69.5014 16.9035C69.4053 16.7106 69.3386 16.5043 69.3037 16.2916C69.2765 16.0252 69.2649 15.7575 69.2689 15.4899V11.452C69.2689 10.1158 68.7919 9.44769 67.8379 9.44769C67.6231 9.42299 67.4057 9.46017 67.2114 9.55486C67.017 9.64955 66.8538 9.7978 66.7409 9.98216C66.5245 10.4516 66.4255 10.9665 66.4523 11.4827V15.5233C66.4571 15.791 66.4455 16.0587 66.4175 16.325C66.3798 16.5361 66.3056 16.7391 66.1984 16.9249C65.9819 17.34 65.3815 17.5471 64.3972 17.5462C63.4272 17.5462 62.8344 17.3311 62.6188 16.9009C62.5237 16.7073 62.4584 16.5006 62.425 16.2876C62.3972 16.0213 62.3856 15.7535 62.3903 15.4859V11.4506C62.3903 10.1144 61.9128 9.44636 60.9579 9.44636C60.0342 9.44636 59.5723 10.1144 59.5723 11.4506V15.5393C59.5776 15.807 59.566 16.0748 59.5376 16.341C59.5019 16.5561 59.4277 16.763 59.3184 16.9516C59.0886 17.3525 58.4882 17.5529 57.5173 17.5529C56.5463 17.5529 55.9535 17.3458 55.7388 16.9316C55.6452 16.7417 55.58 16.5391 55.5451 16.3303C55.5171 16.064 55.5055 15.7963 55.5104 15.5286V7.38732C55.5057 7.11962 55.5173 6.8519 55.5451 6.58561C55.5794 6.37689 55.6538 6.17679 55.7642 5.99636C55.9958 5.58126 56.5423 5.37326 57.4037 5.37237C58.2651 5.37148 58.8272 5.51044 59.09 5.78925C59.37 6.12481 59.5089 6.55591 59.4774 6.99181" fill="#404040"/>
<path d="M78.364 3.97024C78.2995 4.08654 78.2119 4.18847 78.1067 4.2698C78.0015 4.35113 77.8808 4.41014 77.752 4.44324C76.9862 4.62764 76.1875 4.62764 75.4217 4.44324C75.2916 4.40944 75.1699 4.34883 75.0645 4.26531C74.9592 4.18179 74.8724 4.07719 74.8098 3.95821C74.7073 3.76697 74.6369 3.56024 74.6013 3.34624C74.5742 3.07991 74.5626 2.81222 74.5666 2.54454C74.5626 2.27686 74.5742 2.00917 74.6013 1.74284C74.6343 1.53704 74.7006 1.338 74.7977 1.15359C75.0124 0.744718 75.6128 0.540283 76.5989 0.540283C77.5689 0.540283 78.1537 0.748281 78.3533 1.16428C78.4618 1.35496 78.5351 1.56361 78.5697 1.78025C78.5975 2.04654 78.6091 2.31426 78.6045 2.58195C78.6092 2.84965 78.5976 3.11737 78.5697 3.38366C78.5348 3.59421 78.4639 3.79717 78.36 3.9836" fill="#404040"/>
<path d="M74.5609 7.40752C74.5563 7.13982 74.5679 6.8721 74.5957 6.60581C74.6294 6.39296 74.6956 6.18656 74.7921 5.99385C75.0068 5.593 75.6072 5.39257 76.5933 5.39257C77.1484 5.34227 77.7041 5.48272 78.1686 5.79075C78.306 5.91623 78.4144 6.0702 78.4862 6.2419C78.558 6.4136 78.5914 6.5989 78.5842 6.78486C78.5989 6.93852 78.6069 7.16166 78.6069 7.45295V15.5368C78.6119 15.8044 78.6008 16.0722 78.5735 16.3385C78.5365 16.5539 78.4619 16.761 78.353 16.9505C78.1535 17.3513 77.5611 17.5513 76.5759 17.5504C75.6058 17.5504 75.013 17.3433 74.7975 16.9291C74.7036 16.7395 74.6375 16.5375 74.601 16.3291C74.5737 16.0628 74.5621 15.7951 74.5663 15.5274L74.5609 7.40752Z" fill="#404040"/>
<path d="M14.4868 13.4512C14.4734 13.3684 14.3612 13.355 14.1541 13.363H8.24016C11.0907 10.7797 12.7453 9.26541 13.204 8.82002C13.4213 8.62593 13.5954 8.3884 13.7151 8.12279C13.8348 7.85718 13.8974 7.56941 13.8989 7.27808C13.9056 7.00893 13.8557 6.74136 13.7523 6.49275C13.649 6.24414 13.4945 6.02004 13.2989 5.83502C13.1152 5.6497 12.8964 5.50286 12.6552 5.40307C12.4141 5.30327 12.1555 5.25252 11.8946 5.25378H2.0617C1.65754 5.23906 1.25321 5.2777 0.85915 5.36869C0.683118 5.43371 0.526382 5.54219 0.403516 5.68403C0.270708 5.86335 0.174873 6.06728 0.121583 6.28397C0.0288161 6.69092 -0.0111525 7.10812 0.00266402 7.52527C-0.0176077 8.00305 0.123597 8.47373 0.403516 8.86145C0.635119 9.15451 1.18918 9.3006 2.06571 9.29971H7.63889C7.57742 9.36117 7.20819 9.68854 6.5312 10.2818C5.85421 10.8751 5.09971 11.5431 4.26772 12.2861C3.43663 13.0263 2.8211 13.5924 2.42114 13.9843C2.22815 14.1666 2.07516 14.3869 1.97188 14.6314C1.8686 14.876 1.81728 15.1393 1.82119 15.4047C1.81774 15.6716 1.86922 15.9364 1.97243 16.1826C2.07563 16.4287 2.22837 16.6511 2.42114 16.8357C2.60219 17.027 2.82065 17.1789 3.06292 17.2821C3.3052 17.3853 3.56612 17.4376 3.82946 17.4357H14.1982C14.4658 17.4381 14.7334 17.4269 14.9999 17.4023C15.2157 17.3771 15.4248 17.3109 15.6158 17.2072C15.7346 17.1419 15.8387 17.0528 15.9215 16.9454C16.0042 16.838 16.0639 16.7147 16.0969 16.5832C16.1289 16.4629 16.1784 16.3387 16.0969 16.2558C15.2418 15.5487 14.6722 14.5556 14.4934 13.4605" fill="#404040"/>
<rect x="84.7605" y="2.96143" width="48.2395" height="15.8026" rx="2" fill="url(#paint0_linear_23_11752)"/>
<path d="M91.2634 14.3586C91.2828 14.6421 91.2246 14.9256 91.0695 15.1714C90.8174 15.4738 90.352 15.5305 90.0417 15.2848C90.0029 15.247 89.9641 15.2092 89.9448 15.1714C89.809 14.9256 89.7315 14.6421 89.7702 14.3586V9.42497C89.7508 9.14143 89.809 8.85789 89.9448 8.63106C90.0611 8.46093 90.2744 8.36642 90.5071 8.36642C90.6428 8.36642 90.798 8.40422 90.9143 8.47983C91.0501 8.57435 91.147 8.68776 91.2246 8.83898C91.3797 8.66886 91.5542 8.53654 91.7675 8.46093C91.9808 8.36642 92.2135 8.32861 92.4656 8.32861C93.0861 8.32861 93.6873 8.59325 94.0945 9.06582C94.5405 9.57619 94.7732 10.2378 94.7538 10.8994C94.7732 11.5799 94.5211 12.2415 94.0751 12.7707C93.6873 13.2622 93.0861 13.5457 92.4462 13.5457C92.2329 13.5457 92.0196 13.5079 91.8063 13.4323C91.6124 13.3567 91.4185 13.2433 91.2634 13.111V14.3586ZM91.2246 10.9372C91.2052 11.2585 91.3021 11.5799 91.4961 11.8445C91.8063 12.2226 92.3687 12.2982 92.7759 11.9957C92.8341 11.9579 92.8922 11.9012 92.931 11.8256C93.1249 11.561 93.2219 11.2396 93.2025 10.9183C93.2219 10.5969 93.1249 10.2945 92.9116 10.0299C92.6014 9.6518 92.039 9.57619 91.6512 9.85973C91.593 9.89753 91.5348 9.95424 91.4767 10.0109C91.3215 10.2945 91.2246 10.6158 91.2246 10.9372Z" fill="white"/>
<path d="M95.9375 12.3938V9.44499C95.9181 9.16145 95.9763 8.87791 96.112 8.65107C96.2477 8.48095 96.461 8.36754 96.6743 8.38644C96.8101 8.38644 96.9652 8.42424 97.0816 8.49985C97.2173 8.59437 97.3143 8.70778 97.3918 8.859C97.5276 8.70778 97.7021 8.57546 97.8766 8.48095C98.0317 8.40534 98.2256 8.34863 98.4002 8.34863C98.5941 8.34863 98.788 8.42424 98.9431 8.55656C99.0982 8.68888 99.1758 8.87791 99.1758 9.06693C99.1758 9.36937 98.9043 9.61511 98.342 9.80414C98.1481 9.87975 97.9929 9.93645 97.896 9.97426C97.7409 10.031 97.6051 10.1444 97.5276 10.2767C97.45 10.4657 97.4112 10.6548 97.4306 10.8627V12.3938C97.45 12.6773 97.3918 12.9609 97.2367 13.2066C96.9846 13.5091 96.5192 13.5658 96.209 13.3011C96.1702 13.2633 96.1314 13.2444 96.112 13.2066C95.9763 12.942 95.9181 12.6584 95.9375 12.3938Z" fill="white"/>
<path d="M99.6793 10.9182C99.6599 10.2188 99.912 9.53835 100.397 9.02797C101.405 8.04504 103.034 8.04504 104.062 9.02797C104.546 9.53835 104.799 10.2188 104.779 10.9182C104.799 11.6176 104.546 12.2981 104.062 12.8085C103.053 13.7914 101.424 13.7914 100.416 12.8085C99.912 12.2981 99.6599 11.6176 99.6793 10.9182ZM101.25 10.8993C101.231 11.2207 101.328 11.542 101.521 11.8067C101.832 12.1847 102.394 12.2603 102.801 11.9579C102.859 11.9201 102.918 11.8634 102.956 11.8067C103.15 11.542 103.247 11.2207 103.228 10.8993C103.247 10.578 103.15 10.2755 102.937 10.0109C102.627 9.63286 102.064 9.55725 101.677 9.84079C101.618 9.87859 101.56 9.9353 101.521 9.99201C101.328 10.2566 101.231 10.578 101.25 10.8993Z" fill="white"/>
<path d="M106.253 9.78541H106.195C105.982 9.80431 105.749 9.7287 105.575 9.61528C105.419 9.50187 105.342 9.33174 105.342 9.16162C105.342 8.97259 105.419 8.80247 105.575 8.68905C105.769 8.55673 106.021 8.50003 106.253 8.50003V7.85734C106.234 7.5738 106.292 7.29026 106.447 7.04452C106.583 6.8744 106.796 6.76098 107.01 6.77989C107.223 6.76098 107.436 6.8744 107.572 7.04452C107.708 7.29026 107.785 7.5738 107.746 7.85734V8.50003H107.882C108.134 8.48112 108.367 8.53783 108.58 8.67015C108.735 8.78357 108.832 8.95369 108.832 9.14272C108.852 9.33174 108.755 9.50187 108.6 9.61528C108.386 9.7287 108.134 9.78541 107.882 9.7665H107.766V12.3751C107.785 12.6586 107.727 12.9421 107.591 13.1879C107.456 13.358 107.242 13.4714 107.029 13.4525C106.796 13.4714 106.583 13.3769 106.467 13.1879C106.331 12.9421 106.253 12.6586 106.273 12.3751L106.253 9.78541Z" fill="white"/>
<path d="M109.258 10.9182C109.239 10.2188 109.491 9.53835 109.975 9.02797C110.984 8.04504 112.613 8.04504 113.64 9.02797C114.125 9.53835 114.377 10.2188 114.358 10.9182C114.377 11.6176 114.125 12.2981 113.64 12.8085C112.632 13.7914 111.003 13.7914 109.995 12.8085C109.491 12.2981 109.239 11.6176 109.258 10.9182ZM110.829 10.8993C110.809 11.2207 110.906 11.542 111.1 11.8067C111.41 12.1847 111.973 12.2603 112.38 11.9579C112.438 11.9201 112.496 11.8634 112.535 11.7878C112.729 11.5231 112.826 11.2018 112.807 10.8804C112.826 10.5591 112.729 10.2566 112.516 9.99201C112.205 9.61396 111.643 9.53835 111.255 9.82189C111.197 9.85969 111.139 9.9164 111.1 9.97311C110.906 10.2566 110.809 10.578 110.829 10.8993Z" fill="white"/>
<path d="M115.232 10.9168C115.193 10.2174 115.465 9.53692 115.949 9.02655C116.434 8.53508 117.113 8.27045 117.83 8.30825C118.257 8.28935 118.664 8.38386 119.052 8.57289C119.362 8.74301 119.517 8.96984 119.517 9.25338C119.517 9.42351 119.459 9.57473 119.343 9.70705C119.226 9.82046 119.071 9.89607 118.897 9.87717C118.742 9.85827 118.586 9.82046 118.431 9.76375C118.237 9.70705 118.044 9.66924 117.85 9.65034C117.559 9.65034 117.287 9.76375 117.093 9.99059C116.899 10.2552 116.783 10.5577 116.803 10.879C116.783 11.2004 116.88 11.5217 117.093 11.7863C117.287 12.0132 117.598 12.1266 117.888 12.1077C118.082 12.1077 118.296 12.0699 118.47 11.9943C118.606 11.9376 118.761 11.8998 118.916 11.8808C119.071 11.8808 119.226 11.9376 119.323 12.0699C119.44 12.2022 119.498 12.3534 119.498 12.5235C119.498 12.7882 119.323 13.015 118.994 13.2229C118.606 13.4309 118.179 13.5254 117.733 13.5065C117.055 13.5254 116.395 13.2607 115.93 12.7882C115.465 12.3156 115.232 11.6918 115.232 10.9168Z" fill="white"/>
<path d="M120.196 10.9182C120.177 10.2188 120.429 9.53835 120.913 9.02797C121.922 8.04504 123.551 8.04504 124.578 9.02797C125.063 9.53835 125.315 10.2188 125.296 10.9182C125.315 11.6176 125.063 12.2981 124.578 12.8085C123.57 13.7914 121.941 13.7914 120.933 12.8085C120.429 12.2981 120.177 11.6176 120.196 10.9182ZM121.747 10.8993C121.728 11.2207 121.825 11.542 122.019 11.8067C122.329 12.1847 122.891 12.2603 123.299 11.9579C123.357 11.9201 123.415 11.8634 123.454 11.7878C123.648 11.5231 123.745 11.2018 123.725 10.8804C123.745 10.5591 123.648 10.2566 123.434 9.99201C123.124 9.61396 122.562 9.53835 122.174 9.82189C122.116 9.85969 122.058 9.9164 122.019 9.97311C121.844 10.2566 121.728 10.578 121.747 10.8993Z" fill="white"/>
<path d="M126.498 7.36808C126.478 7.08454 126.537 6.801 126.692 6.55526C126.828 6.38514 127.041 6.27173 127.254 6.29063C127.467 6.27173 127.681 6.38514 127.816 6.55526C127.952 6.801 128.03 7.08454 128.01 7.36808V12.3962C128.03 12.6797 127.972 12.9633 127.836 13.209C127.7 13.3791 127.506 13.4925 127.274 13.4736C127.041 13.4925 126.828 13.3791 126.711 13.209C126.575 12.9633 126.498 12.6797 126.517 12.3962L126.498 7.36808Z" fill="white"/>
<defs>
<linearGradient id="paint0_linear_23_11752" x1="86.3538" y1="13.5681" x2="135.407" y2="7.43642" gradientUnits="userSpaceOnUse">
<stop stop-color="#F74B01"/>
<stop offset="1" stop-color="#F9AC13"/>
</linearGradient>
</defs>
</svg>
