<svg width="61" height="31" viewBox="0 0 61 31" fill="none" xmlns="http://www.w3.org/2000/svg">
<path d="M9.80898 30.9995L27.1648 10.2962C27.4659 9.9372 27.6633 9.50063 27.7353 9.03477C27.8073 8.56891 27.751 8.09191 27.5727 7.6565C27.3944 7.22109 27.101 6.84424 26.725 6.56762C26.3489 6.29099 25.9049 6.12537 25.4419 6.08906L0.535156 4.13281L28.5764 4.15532C30.7468 4.06208 31.5917 4.23494 32.3906 5.27112C33.6941 6.68725 32.236 8.38894 31.5028 9.13426L9.79558 30.9995" fill="#ECECEC"/>
<path d="M25.8376 18.6L35.5605 6.83602C35.8643 6.46847 36.062 6.02101 36.1312 5.5442C36.2004 5.06739 36.1383 4.58022 35.9519 4.13774C35.7655 3.69525 35.4623 3.31508 35.0765 3.04017C34.6907 2.76526 34.2377 2.60657 33.7686 2.58202L0.535156 0.842908L37.5434 0.0221479C39.7084 -0.0718221 40.5517 0.102394 41.3476 1.14807C42.6475 2.57459 41.1935 4.29045 40.4624 5.0424L25.8376 18.6Z" fill="#ECECEC"/>
<path d="M51.1938 0L33.844 20.6969C33.5425 21.0565 33.3449 21.4938 33.2729 21.9604C33.2009 22.427 33.2573 22.9047 33.4359 23.3407C33.6145 23.7768 33.9083 24.1542 34.2849 24.4313C34.6615 24.7084 35.1062 24.8743 35.5699 24.9108L60.4676 26.8664L32.4272 26.8447C30.256 26.9379 29.4119 26.7651 28.613 25.7289C27.308 24.3128 28.7668 22.6104 29.5 21.8651L51.208 0" fill="#ECECEC"/>
<path d="M19.6517 29.6226C18.3669 28.2142 19.8033 26.5218 20.5266 25.7798L34.9812 12.4004" fill="#ECECEC"/>
<path d="M34.8448 12.4004L24.9941 24.1686C24.6868 24.5358 24.4869 24.9829 24.417 25.4591C24.3471 25.9354 24.41 26.422 24.5986 26.864C24.7872 27.306 25.0939 27.6857 25.4842 27.9603C25.8745 28.2349 26.3328 28.3935 26.8073 28.418L60.4701 30.1573L22.9888 30.9782C20.7968 31.0722 19.9435 30.898 19.1367 29.8537" fill="#ECECEC"/>
</svg>
