<svg width="131" height="20" viewBox="0 0 131 20" fill="none" xmlns="http://www.w3.org/2000/svg">
<path d="M20.2059 17.2327C19.4846 17.2482 18.7691 17.1008 18.1127 16.8015C17.4562 16.5023 16.8756 16.0588 16.4142 15.5042C15.4084 14.3342 14.8751 12.8312 14.9185 11.2889V6.0694C14.9139 5.80525 14.9257 5.54107 14.9538 5.27838C14.9879 5.07405 15.0518 4.87582 15.1434 4.69001C15.3543 4.28469 15.9418 4.08203 16.9058 4.08203C17.9597 4.08203 18.5772 4.36793 18.7585 4.93974C18.8653 5.31433 18.9094 5.70396 18.8893 6.09294V11.3124C18.8491 11.7917 19.0006 12.2674 19.3107 12.635C19.6208 13.0027 20.0641 13.2324 20.5433 13.2736C20.6433 13.2821 20.7439 13.2821 20.844 13.2736C21.1088 13.2842 21.3731 13.2416 21.6212 13.1484C21.8694 13.0552 22.0963 12.9133 22.2887 12.731C22.474 12.5446 22.6187 12.3218 22.7139 12.0768C22.8091 11.8318 22.8526 11.5698 22.8418 11.3072V7.31282C22.838 7.05089 22.8493 6.78895 22.8758 6.52833C22.9115 6.31807 22.9841 6.11578 23.0902 5.93081C23.2864 5.53857 23.8664 5.34244 24.8305 5.34244C25.7797 5.34244 26.3598 5.5451 26.5708 5.95042C26.6636 6.13987 26.7275 6.34217 26.7603 6.55056C26.7882 6.81107 26.7996 7.0731 26.7943 7.33505V18.0721C26.7985 18.3249 26.7876 18.5777 26.7616 18.8291C26.7275 19.0332 26.6547 19.2289 26.5472 19.4057C26.3197 19.798 25.7405 19.9928 24.807 19.9941C23.8734 19.9954 23.323 19.8124 23.1072 19.4502C22.9515 19.1708 22.8738 18.8547 22.8823 18.5349V15.7892C22.7677 15.9572 22.6309 16.1089 22.4757 16.2403C22.2878 16.4208 22.0878 16.5881 21.8769 16.7411C21.3806 17.0679 20.7988 17.2407 20.2046 17.2379" fill="white"/>
<path d="M35.1735 5.34529C37.0039 5.4695 37.6577 5.90228 38.6579 7.05548C39.6581 8.20868 39.9066 9.64299 39.9066 11.2996V15.2769C39.9107 15.5389 39.8989 15.8009 39.8713 16.0614C39.8411 16.263 39.777 16.4579 39.6817 16.638C39.4699 17.0442 38.8824 17.2477 37.9192 17.2486C36.8497 17.2486 36.2321 16.9697 36.0665 16.4118C35.9624 16.0367 35.9183 15.6475 35.9357 15.2586V11.2773C35.9574 11.0149 35.9218 10.7508 35.8313 10.5035C35.7408 10.2562 35.5976 10.0314 35.4117 9.8449C35.2258 9.65836 35.0016 9.51446 34.7545 9.42316C34.5075 9.33185 34.2436 9.29533 33.981 9.31612C33.7162 9.30513 33.4518 9.3475 33.2036 9.44072C32.9554 9.53393 32.7284 9.67608 32.5363 9.85872C32.3506 10.0449 32.2055 10.2676 32.1101 10.5126C32.0147 10.7577 31.971 11.0198 31.9819 11.2826V18.0305C31.9871 18.2924 31.9758 18.5545 31.9479 18.815C31.9143 19.0188 31.8415 19.2142 31.7335 19.3903C31.5374 19.7973 30.9573 20.0009 29.9932 20.0009C29.0457 20.0009 28.4661 19.7973 28.2543 19.3903C28.1599 19.2022 28.095 19.0006 28.0621 18.7927C28.0356 18.5321 28.0242 18.2702 28.0281 18.0083V7.25422C28.0244 7.00142 28.0357 6.74863 28.0621 6.49718C28.0963 6.29351 28.169 6.09825 28.2765 5.92189C28.4866 5.54534 29.0667 5.35706 30.0168 5.35706C30.9364 5.35706 31.5029 5.53139 31.7165 5.88005C31.8706 6.16268 31.9465 6.48137 31.9361 6.80314C32.0511 6.63507 32.1879 6.48295 32.3428 6.35075C32.5295 6.17317 32.7332 6.01422 32.9507 5.87613C33.6325 5.50789 34.3989 5.32485 35.1735 5.34529Z" fill="white"/>
<path d="M49.126 6.65642C49.126 6.62635 49.1326 6.59627 49.1378 6.56751C49.2598 5.78302 49.8508 5.39077 50.9107 5.39077C51.3505 5.37242 51.7907 5.41644 52.2182 5.52152C52.3475 5.55413 52.4684 5.61375 52.573 5.69646C52.6775 5.77916 52.7634 5.88308 52.8249 6.00137C52.9255 6.18844 52.9949 6.39072 53.0302 6.6002C53.0563 6.86084 53.0672 7.12278 53.0629 7.38468V15.295C53.0672 15.5569 53.0563 15.8188 53.0302 16.0794C52.9958 16.2874 52.931 16.4892 52.838 16.6783C52.6262 17.0696 52.1101 17.2653 51.2899 17.2653C50.4697 17.2653 49.9197 17.1642 49.6399 16.962C49.4995 16.8571 49.3835 16.7231 49.2998 16.5692C49.2161 16.4153 49.1666 16.2451 49.1548 16.0703C48.5969 16.8696 47.6664 17.2688 46.3633 17.2679C45.0602 17.2671 43.8495 16.6682 42.7311 15.4715C41.6565 14.36 41.0566 12.8739 41.0586 11.3279C41.0606 9.78187 41.6642 8.29731 42.7416 7.18856C43.8651 6.00573 45.0968 5.41431 46.4365 5.41431C46.9174 5.40785 47.3945 5.50042 47.8381 5.68627C48.3626 5.85967 48.8152 6.2011 49.126 6.65773V6.65642ZM45.0127 11.3568C45.0148 11.6089 45.0679 11.8579 45.1688 12.0889C45.2697 12.3199 45.4163 12.5281 45.5997 12.7009C45.7826 12.8941 46.0036 13.0472 46.2487 13.1505C46.4938 13.2538 46.7576 13.305 47.0236 13.301C47.286 13.3066 47.5464 13.2545 47.7865 13.1486C48.0266 13.0426 48.2406 12.8854 48.4134 12.6878C48.7631 12.3272 48.9611 11.8461 48.9665 11.3437C48.9611 10.838 48.772 10.3514 48.4344 9.97481C48.2614 9.76725 48.0431 9.60223 47.7962 9.49251C47.5493 9.38278 47.2805 9.33128 47.0105 9.34199C46.7388 9.33408 46.4688 9.38676 46.22 9.49622C45.9713 9.60568 45.75 9.76917 45.5723 9.97481C45.2209 10.3487 45.023 10.8411 45.0179 11.3542" fill="white"/>
<path d="M58.2003 7.06754C58.9081 5.99628 59.7593 5.46065 60.7539 5.46065C61.4532 5.42974 62.1469 5.59755 62.7548 5.94464C63.3627 6.29173 63.8598 6.80391 64.1886 7.42187C64.3745 7.17317 64.5745 6.93526 64.7874 6.70929C65.121 6.38768 65.4977 6.11398 65.9066 5.89604C66.3865 5.6142 66.9322 5.46401 67.4887 5.46065C68.0651 5.45236 68.636 5.57283 69.1599 5.81328C69.6837 6.05373 70.1473 6.40808 70.5168 6.8505C71.3301 7.77794 71.7367 9.31118 71.7367 11.4502V15.404C71.7413 15.666 71.7299 15.928 71.7027 16.1885C71.6669 16.3996 71.5943 16.6027 71.4883 16.7887C71.2922 17.1949 70.7121 17.3975 69.748 17.3967C68.7988 17.3967 68.2191 17.1857 68.0091 16.7638C67.915 16.575 67.8498 16.3732 67.8156 16.165C67.789 15.9044 67.7777 15.6424 67.7816 15.3805V11.4293C67.7816 10.1218 67.3148 9.46808 66.3813 9.46808C66.1711 9.44391 65.9584 9.48029 65.7682 9.57295C65.5781 9.6656 65.4183 9.81067 65.3078 9.99107C65.0961 10.4504 64.9992 10.9543 65.0254 11.4594V15.4132C65.0302 15.6751 65.0188 15.9371 64.9914 16.1977C64.9545 16.4043 64.8819 16.603 64.777 16.7847C64.5652 17.1909 63.9777 17.3936 63.0145 17.3927C62.0653 17.3927 61.4852 17.1822 61.2742 16.7612C61.1812 16.5718 61.1173 16.3695 61.0847 16.1611C61.0574 15.9005 61.0461 15.6385 61.0507 15.3766V11.428C61.0507 10.1205 60.5835 9.46677 59.649 9.46677C58.7451 9.46677 58.2932 10.1205 58.2932 11.428V15.4289C58.2984 15.6908 58.287 15.9529 58.2592 16.2134C58.2243 16.4238 58.1517 16.6263 58.0448 16.8109C57.8199 17.2031 57.2324 17.3993 56.2823 17.3993C55.3322 17.3993 54.7521 17.1966 54.542 16.7913C54.4504 16.6055 54.3865 16.4072 54.3524 16.2029C54.325 15.9424 54.3137 15.6804 54.3184 15.4184V7.45194C54.3139 7.19 54.3252 6.92802 54.3524 6.66745C54.386 6.46321 54.4588 6.26741 54.5669 6.09085C54.7935 5.68466 55.3282 5.48113 56.1711 5.48026C57.014 5.47939 57.564 5.61536 57.8212 5.88819C58.0952 6.21654 58.2311 6.63838 58.2003 7.06493" fill="white"/>
<path d="M76.6815 4.10826C76.6184 4.22207 76.5327 4.32181 76.4297 4.40139C76.3268 4.48097 76.2087 4.53872 76.0826 4.57111C75.3333 4.75155 74.5518 4.75155 73.8024 4.57111C73.675 4.53803 73.556 4.47873 73.4529 4.397C73.3498 4.31527 73.2648 4.21292 73.2036 4.09649C73.1033 3.90936 73.0344 3.70707 72.9996 3.49767C72.973 3.23705 72.9617 2.97511 72.9656 2.71318C72.9617 2.45124 72.973 2.1893 72.9996 1.92869C73.0319 1.72731 73.0968 1.53255 73.1918 1.35209C73.4019 0.951998 73.9894 0.751953 74.9543 0.751953C75.9035 0.751953 76.4758 0.955485 76.671 1.36255C76.7772 1.54914 76.8489 1.7533 76.8828 1.9653C76.91 2.22586 76.9214 2.48784 76.9168 2.74979C76.9214 3.01173 76.91 3.27371 76.8828 3.53428C76.8487 3.74031 76.7792 3.93891 76.6775 4.12133" fill="white"/>
<path d="M72.96 7.4717C72.9554 7.20976 72.9667 6.94778 72.994 6.68721C73.027 6.47893 73.0918 6.27696 73.1862 6.08839C73.3962 5.69614 73.9837 5.50002 74.9487 5.50002C75.4919 5.4508 76.0356 5.58824 76.4902 5.88965C76.6247 6.01244 76.7307 6.1631 76.8009 6.33111C76.8712 6.49913 76.9039 6.68045 76.8968 6.86242C76.9112 7.01278 76.919 7.23113 76.919 7.51616V15.4264C76.924 15.6883 76.9131 15.9503 76.8863 16.2109C76.8502 16.4217 76.7772 16.6244 76.6706 16.8097C76.4754 17.202 75.8957 17.3977 74.9317 17.3968C73.9824 17.3968 73.4023 17.1941 73.1914 16.7888C73.0996 16.6033 73.0348 16.4056 72.9992 16.2018C72.9724 15.9412 72.9611 15.6792 72.9652 15.4173L72.96 7.4717Z" fill="white"/>
<path d="M14.1757 13.3857C14.1626 13.3047 14.0528 13.2916 13.8502 13.2994H8.06324C10.8525 10.7716 12.4716 9.28981 12.9205 8.85398C13.1331 8.66406 13.3035 8.43163 13.4206 8.17172C13.5377 7.91181 13.599 7.63022 13.6004 7.34515C13.607 7.08177 13.5582 6.81995 13.4571 6.57668C13.3559 6.3334 13.2048 6.11412 13.0134 5.93307C12.8336 5.75173 12.6195 5.60804 12.3835 5.51039C12.1476 5.41274 11.8945 5.36308 11.6392 5.36431H2.01744C1.62195 5.34991 1.2263 5.38771 0.840703 5.47676C0.66845 5.54038 0.51508 5.64653 0.394852 5.78532C0.264896 5.96079 0.171119 6.16034 0.118973 6.37238C0.0281973 6.77059 -0.010913 7.17883 0.00260682 7.58703C-0.0172297 8.05455 0.120943 8.51512 0.394852 8.89451C0.621482 9.18129 1.16365 9.32424 2.02136 9.32337H7.47487C7.41472 9.38351 7.05342 9.70385 6.39097 10.2844C5.72851 10.8649 4.99022 11.5186 4.17609 12.2456C3.36284 12.9699 2.76052 13.5239 2.36915 13.9074C2.18031 14.0857 2.0306 14.3014 1.92954 14.5406C1.82848 14.7799 1.77826 15.0376 1.78209 15.2973C1.77871 15.5584 1.82908 15.8175 1.93008 16.0584C2.03107 16.2993 2.18052 16.5169 2.36915 16.6976C2.54632 16.8847 2.76008 17.0334 2.99716 17.1344C3.23424 17.2354 3.48955 17.2865 3.74724 17.2846H13.8933C14.1552 17.287 14.417 17.2761 14.6778 17.2519C14.889 17.2273 15.0936 17.1625 15.2805 17.061C15.3968 16.9972 15.4986 16.9099 15.5796 16.8049C15.6606 16.6998 15.719 16.5791 15.7512 16.4505C15.7826 16.3328 15.831 16.2112 15.7512 16.1301C14.9146 15.4382 14.3571 14.4664 14.1823 13.3949" fill="white"/>
<rect x="82.9404" y="3.12109" width="47.2038" height="15.4633" rx="4" fill="url(#paint0_linear_1_167)"/>
<path d="M89.3038 14.2735C89.3228 14.551 89.2659 14.8284 89.1141 15.0689C88.8674 15.3648 88.412 15.4203 88.1084 15.1799C88.0705 15.1429 88.0325 15.1059 88.0136 15.0689C87.8807 14.8284 87.8048 14.551 87.8428 14.2735V9.44586C87.8238 9.16841 87.8807 8.89096 88.0136 8.669C88.1274 8.50252 88.3361 8.41004 88.5638 8.41004C88.6966 8.41004 88.8484 8.44703 88.9623 8.52102C89.0951 8.6135 89.19 8.72449 89.2659 8.87246C89.4177 8.70599 89.5885 8.57651 89.7972 8.50252C90.0059 8.41004 90.2336 8.37305 90.4803 8.37305C91.0875 8.37305 91.6757 8.632 92.0742 9.09442C92.5106 9.59383 92.7383 10.2412 92.7193 10.8886C92.7383 11.5545 92.4916 12.2019 92.0552 12.7198C91.6757 13.2007 91.0875 13.4782 90.4613 13.4782C90.2526 13.4782 90.0439 13.4412 89.8351 13.3672C89.6454 13.2932 89.4556 13.1822 89.3038 13.0527V14.2735ZM89.2659 10.9256C89.2469 11.24 89.3418 11.5545 89.5315 11.8134C89.8351 12.1834 90.3854 12.2574 90.7839 11.9614C90.8408 11.9244 90.8977 11.8689 90.9357 11.7949C91.1254 11.536 91.2203 11.2215 91.2013 10.9071C91.2203 10.5927 91.1254 10.2967 90.9167 10.0378C90.6131 9.66782 90.0628 9.59383 89.6833 9.87128C89.6264 9.90828 89.5695 9.96377 89.5126 10.0193C89.3608 10.2967 89.2659 10.6112 89.2659 10.9256Z" fill="white"/>
<path d="M93.8776 12.3509V9.46539C93.8586 9.18794 93.9155 8.91049 94.0484 8.68853C94.1812 8.52206 94.3899 8.41108 94.5986 8.42957C94.7315 8.42957 94.8833 8.46657 94.9971 8.54055C95.1299 8.63304 95.2248 8.74402 95.3007 8.89199C95.4335 8.74402 95.6043 8.61454 95.7751 8.52206C95.9269 8.44807 96.1166 8.39258 96.2874 8.39258C96.4771 8.39258 96.6669 8.46657 96.8187 8.59604C96.9705 8.72552 97.0464 8.91049 97.0464 9.09546C97.0464 9.3914 96.7807 9.63186 96.2305 9.81683C96.0407 9.89082 95.8889 9.94631 95.794 9.9833C95.6422 10.0388 95.5094 10.1498 95.4335 10.2792C95.3576 10.4642 95.3197 10.6492 95.3386 10.8526V12.3509C95.3576 12.6283 95.3007 12.9058 95.1489 13.1462C94.9022 13.4422 94.4468 13.4977 94.1432 13.2387C94.1053 13.2017 94.0673 13.1832 94.0484 13.1462C93.9155 12.8873 93.8586 12.6098 93.8776 12.3509Z" fill="white"/>
<path d="M97.5391 10.907C97.5201 10.2226 97.7668 9.55672 98.2412 9.05731C99.2279 8.09548 100.822 8.09548 101.827 9.05731C102.302 9.55672 102.548 10.2226 102.53 10.907C102.548 11.5914 102.302 12.2573 101.827 12.7567C100.841 13.7185 99.2468 13.7185 98.2602 12.7567C97.7668 12.2573 97.5201 11.5914 97.5391 10.907ZM99.0761 10.8885C99.0571 11.2029 99.152 11.5174 99.3417 11.7763C99.6453 12.1463 100.196 12.2203 100.594 11.9243C100.651 11.8873 100.708 11.8318 100.746 11.7763C100.936 11.5174 101.03 11.2029 101.012 10.8885C101.03 10.574 100.936 10.2781 100.727 10.0191C100.423 9.64921 99.873 9.57522 99.4935 9.85267C99.4366 9.88967 99.3797 9.94516 99.3417 10.0006C99.152 10.2596 99.0571 10.574 99.0761 10.8885Z" fill="white"/>
<path d="M103.972 9.79847H103.915C103.706 9.81696 103.479 9.74297 103.308 9.63199C103.156 9.52101 103.08 9.35454 103.08 9.18807C103.08 9.0031 103.156 8.83663 103.308 8.72565C103.498 8.59617 103.744 8.54068 103.972 8.54068V7.91179C103.953 7.63434 104.01 7.35689 104.162 7.11643C104.294 6.94996 104.503 6.83898 104.712 6.85748C104.921 6.83898 105.129 6.94996 105.262 7.11643C105.395 7.35689 105.471 7.63434 105.433 7.91179V8.54068H105.566C105.812 8.52219 106.04 8.57768 106.249 8.70716C106.401 8.81814 106.496 8.98461 106.496 9.16957C106.515 9.35454 106.42 9.52101 106.268 9.63199C106.059 9.74297 105.812 9.79847 105.566 9.77997H105.452V12.3325C105.471 12.61 105.414 12.8874 105.281 13.1279C105.148 13.2944 104.94 13.4053 104.731 13.3868C104.503 13.4053 104.294 13.3129 104.181 13.1279C104.048 12.8874 103.972 12.61 103.991 12.3325L103.972 9.79847Z" fill="white"/>
<path d="M106.912 10.907C106.893 10.2226 107.14 9.55672 107.614 9.05731C108.601 8.09548 110.195 8.09548 111.2 9.05731C111.675 9.55672 111.922 10.2226 111.903 10.907C111.922 11.5914 111.675 12.2573 111.2 12.7567C110.214 13.7185 108.62 13.7185 107.633 12.7567C107.14 12.2573 106.893 11.5914 106.912 10.907ZM108.449 10.8885C108.43 11.2029 108.525 11.5174 108.715 11.7763C109.018 12.1463 109.569 12.2203 109.967 11.9243C110.024 11.8873 110.081 11.8318 110.119 11.7578C110.309 11.4989 110.404 11.1844 110.385 10.87C110.404 10.5555 110.309 10.2596 110.1 10.0006C109.796 9.63071 109.246 9.55672 108.867 9.83418C108.81 9.87117 108.753 9.92666 108.715 9.98215C108.525 10.2596 108.43 10.574 108.449 10.8885Z" fill="white"/>
<path d="M112.757 10.9057C112.72 10.2213 112.985 9.55539 113.46 9.05597C113.934 8.57506 114.598 8.3161 115.3 8.3531C115.718 8.3346 116.116 8.42708 116.496 8.61205C116.799 8.77852 116.951 9.00048 116.951 9.27793C116.951 9.44441 116.894 9.59238 116.78 9.72186C116.666 9.83284 116.515 9.90682 116.344 9.88833C116.192 9.86983 116.04 9.83284 115.888 9.77735C115.699 9.72186 115.509 9.68486 115.319 9.66637C115.034 9.66637 114.769 9.77735 114.579 9.99931C114.389 10.2583 114.275 10.5542 114.294 10.8687C114.275 11.1831 114.37 11.4975 114.579 11.7565C114.769 11.9785 115.072 12.0894 115.357 12.0709C115.547 12.0709 115.756 12.034 115.926 11.96C116.059 11.9045 116.211 11.8675 116.363 11.849C116.515 11.849 116.666 11.9045 116.761 12.034C116.875 12.1634 116.932 12.3114 116.932 12.4779C116.932 12.7368 116.761 12.9588 116.439 13.1623C116.059 13.3657 115.642 13.4582 115.205 13.4397C114.541 13.4582 113.896 13.1993 113.441 12.7368C112.985 12.2744 112.757 11.664 112.757 10.9057Z" fill="white"/>
<path d="M117.615 10.907C117.596 10.2226 117.843 9.55672 118.317 9.05731C119.304 8.09548 120.898 8.09548 121.904 9.05731C122.378 9.55672 122.625 10.2226 122.606 10.907C122.625 11.5914 122.378 12.2573 121.904 12.7567C120.917 13.7185 119.323 13.7185 118.336 12.7567C117.843 12.2573 117.596 11.5914 117.615 10.907ZM119.133 10.8885C119.114 11.2029 119.209 11.5174 119.399 11.7763C119.703 12.1463 120.253 12.2203 120.651 11.9243C120.708 11.8873 120.765 11.8318 120.803 11.7578C120.993 11.4989 121.088 11.1844 121.069 10.87C121.088 10.5555 120.993 10.2596 120.784 10.0006C120.48 9.63071 119.93 9.55672 119.551 9.83418C119.494 9.87117 119.437 9.92666 119.399 9.98215C119.228 10.2596 119.114 10.574 119.133 10.8885Z" fill="white"/>
<path d="M123.782 7.43328C123.763 7.15583 123.82 6.87838 123.972 6.63792C124.104 6.47145 124.313 6.36047 124.522 6.37896C124.731 6.36047 124.939 6.47145 125.072 6.63792C125.205 6.87838 125.281 7.15583 125.262 7.43328V12.3534C125.281 12.6309 125.224 12.9083 125.091 13.1488C124.958 13.3153 124.769 13.4262 124.541 13.4077C124.313 13.4262 124.104 13.3153 123.991 13.1488C123.858 12.9083 123.782 12.6309 123.801 12.3534L123.782 7.43328Z" fill="white"/>
<defs>
<linearGradient id="paint0_linear_1_167" x1="84.4995" y1="13.5" x2="132.5" y2="7.5" gradientUnits="userSpaceOnUse">
<stop stop-color="#F74B01"/>
<stop offset="1" stop-color="#F9AC13"/>
</linearGradient>
</defs>
</svg>
