<svg width="23" height="24" viewBox="0 0 23 24" fill="none" xmlns="http://www.w3.org/2000/svg">
<mask id="path-1-inside-1_227_265" fill="white">
<path fill-rule="evenodd" clip-rule="evenodd" d="M13.8448 20.4277C18.4584 19.0344 21.9619 15.3385 22.5826 10.7674C22.6235 10.4617 22.424 10.1606 22.1016 10.0448C22.0733 10.0348 22.0447 10.0263 22.016 10.0195C21.9499 10.0037 21.883 9.99611 21.8168 9.99639C21.5777 9.99711 21.3475 10.0988 21.2011 10.281C19.1648 12.801 15.8903 14.3065 12.4469 14.3065C12.203 14.3065 11.9592 14.2991 11.7156 14.284C11.0297 14.2416 10.5333 13.6457 10.5333 12.9585C10.5333 11.9348 9.89379 11.4762 9.25935 11.4762C8.84492 11.4762 8.43048 11.6615 8.0314 12.0181L3.68242 15.9556C2.72565 16.8219 2.72565 18.2255 3.68242 19.0917L8.0314 23.0292C8.43048 23.3906 8.84492 23.5712 9.25935 23.5712C9.89379 23.5712 10.5333 23.1126 10.5333 22.0889C10.5333 21.4811 11.0102 20.9846 11.6128 20.906C12.3793 20.8062 13.1255 20.6449 13.8448 20.4277Z"/>
</mask>
<path d="M13.8448 20.4277L13.3822 18.896H13.3822L13.8448 20.4277ZM22.5826 10.7674L24.168 10.9827L24.1684 10.9797L22.5826 10.7674ZM22.1016 10.0448L22.6426 8.53898L22.6351 8.53632L22.1016 10.0448ZM22.016 10.0195L21.6431 11.5754L21.6449 11.5759L22.016 10.0195ZM21.8168 9.99639L21.8215 11.5964L21.8235 11.5964L21.8168 9.99639ZM21.2011 10.281L22.4456 11.2866L22.4485 11.283L21.2011 10.281ZM11.7156 14.284L11.6168 15.881H11.6168L11.7156 14.284ZM8.0314 12.0181L6.96514 10.8252L6.95753 10.8321L8.0314 12.0181ZM3.68242 15.9556L2.60856 14.7695L2.60856 14.7695L3.68242 15.9556ZM3.68242 19.0917L4.75629 17.9056H4.75629L3.68242 19.0917ZM8.0314 23.0292L6.95753 24.2153H6.95754L8.0314 23.0292ZM11.6128 20.906L11.8196 22.4926H11.8196L11.6128 20.906ZM14.3074 21.9594C19.4318 20.4118 23.4512 16.2616 24.168 10.9827L20.9971 10.5521C20.4725 14.4154 17.485 17.657 13.3822 18.896L14.3074 21.9594ZM24.1684 10.9797C24.3237 9.82 23.5681 8.87152 22.6426 8.539L21.5606 11.5505C21.2798 11.4496 20.9233 11.1034 20.9967 10.5551L24.1684 10.9797ZM22.6351 8.53632C22.5531 8.50734 22.4703 8.48297 22.3871 8.46312L21.6449 11.5759C21.6191 11.5697 21.5935 11.5622 21.5681 11.5532L22.6351 8.53632ZM22.3888 8.46353C22.1967 8.4175 22.0023 8.3956 21.81 8.39641L21.8235 11.5964C21.7637 11.5966 21.7032 11.5898 21.6431 11.5754L22.3888 8.46353ZM21.812 8.3964C21.1382 8.39842 20.4319 8.68371 19.9537 9.27901L22.4485 11.283C22.2631 11.5138 22.0172 11.5958 21.8215 11.5964L21.812 8.3964ZM19.9567 9.27539C18.2454 11.3931 15.442 12.7065 12.4469 12.7065V15.9065C16.3385 15.9065 20.0841 14.209 22.4456 11.2866L19.9567 9.27539ZM12.4469 12.7065C12.2354 12.7065 12.0246 12.7001 11.8144 12.6871L11.6168 15.881C11.8938 15.8981 12.1706 15.9065 12.4469 15.9065V12.7065ZM11.8144 12.6871C11.9263 12.694 12.0199 12.7506 12.0722 12.8104C12.119 12.864 12.1333 12.918 12.1333 12.9585H8.93334C8.93334 14.3823 9.98291 15.7799 11.6168 15.881L11.8144 12.6871ZM12.1333 12.9585C12.1333 12.1016 11.857 11.3018 11.2736 10.7101C10.7026 10.1309 9.95826 9.87616 9.25935 9.87616V13.0762C9.19487 13.0762 9.08757 13.0508 8.99487 12.9567C8.9505 12.9117 8.93071 12.8711 8.92474 12.8551C8.91959 12.8413 8.93334 12.8693 8.93334 12.9585H12.1333ZM9.25935 9.87616C8.34059 9.87616 7.56266 10.2912 6.96517 10.8252L9.09764 13.2111C9.19654 13.1227 9.26162 13.0878 9.28746 13.0764C9.30912 13.0668 9.29655 13.0762 9.25935 13.0762V9.87616ZM6.95753 10.8321L2.60856 14.7695L4.75629 17.1417L9.10527 13.2042L6.95753 10.8321ZM2.60856 14.7695C0.950273 16.2709 0.950272 18.7764 2.60856 20.2778L4.75629 17.9056C4.60648 17.77 4.56484 17.6306 4.56484 17.5237C4.56484 17.4168 4.60648 17.2774 4.75629 17.1417L2.60856 14.7695ZM2.60856 20.2778L6.95753 24.2153L9.10527 21.8431L4.75629 17.9056L2.60856 20.2778ZM6.95754 24.2153C7.56709 24.7672 8.34792 25.1712 9.25935 25.1712V21.9712C9.29076 21.9712 9.30215 21.9792 9.284 21.9712C9.26173 21.9614 9.20029 21.9292 9.10527 21.8431L6.95754 24.2153ZM9.25935 25.1712C9.95826 25.1712 10.7026 24.9165 11.2736 24.3372C11.857 23.7455 12.1333 22.9458 12.1333 22.0889H8.93334C8.93334 22.178 8.91959 22.206 8.92474 22.1922C8.93071 22.1763 8.9505 22.1356 8.99487 22.0906C9.08757 21.9966 9.19487 21.9712 9.25935 21.9712V25.1712ZM12.1333 22.0889C12.1333 22.2156 12.0811 22.3213 12.0206 22.3866C11.9636 22.4481 11.8926 22.4831 11.8196 22.4926L11.4061 19.3195C10.083 19.4919 8.93334 20.6025 8.93334 22.0889H12.1333ZM11.8196 22.4926C12.6729 22.3814 13.5047 22.2018 14.3074 21.9594L13.3822 18.896C12.7464 19.0881 12.0857 19.2309 11.4061 19.3195L11.8196 22.4926Z" fill="#636363" mask="url(#path-1-inside-1_227_265)"/>
<mask id="path-3-inside-2_227_265" fill="white">
<path fill-rule="evenodd" clip-rule="evenodd" d="M9.25286 3.51028C4.63929 4.90356 1.13578 8.59951 0.515091 13.1706C0.474159 13.4763 0.6737 13.7774 0.996037 13.8932C1.02411 13.9032 1.05248 13.9115 1.08102 13.9184C1.14726 13.9343 1.21443 13.9419 1.2809 13.9416C1.51995 13.9409 1.75013 13.8392 1.89653 13.657C3.93287 11.137 7.2074 9.63148 10.6508 9.63148C10.8946 9.63148 11.1385 9.63889 11.382 9.65396C12.0679 9.6964 12.5643 10.2923 12.5643 10.9795C12.5643 12.0032 13.2039 12.4618 13.8383 12.4618C14.2527 12.4618 14.6672 12.2765 15.0663 11.9199L19.4152 7.98236C20.372 7.11612 20.372 5.71251 19.4152 4.84627L15.0663 0.908775C14.6672 0.547451 14.2527 0.366791 13.8383 0.366791C13.2039 0.366791 12.5643 0.825392 12.5643 1.84914C12.5643 2.4569 12.0875 2.95343 11.4848 3.03196C10.7183 3.13183 9.97211 3.29307 9.25286 3.51028Z"/>
</mask>
<path d="M9.25286 3.51028L9.71542 5.04196L9.71542 5.04196L9.25286 3.51028ZM0.515091 13.1706L-1.07036 12.9553L-1.07076 12.9583L0.515091 13.1706ZM0.996037 13.8932L0.45504 15.399L0.462543 15.4017L0.996037 13.8932ZM1.08102 13.9184L1.45515 12.3627L1.45342 12.3623L1.08102 13.9184ZM1.2809 13.9416L1.27611 12.3416L1.2742 12.3416L1.2809 13.9416ZM1.89653 13.657L0.652052 12.6514L0.649138 12.655L1.89653 13.657ZM11.382 9.65396L11.4808 8.05701L11.4808 8.05701L11.382 9.65396ZM15.0663 11.9199L16.1325 13.1128L16.1401 13.1059L15.0663 11.9199ZM19.4152 7.98236L18.3414 6.79627L18.3414 6.79627L19.4152 7.98236ZM19.4152 4.84627L20.4891 3.66018L19.4152 4.84627ZM15.0663 0.908775L13.9924 2.09486L13.9924 2.09487L15.0663 0.908775ZM11.4848 3.03196L11.6916 4.61854L11.4848 3.03196ZM8.7903 1.9786C3.66587 3.52616 -0.353563 7.67639 -1.07036 12.9553L2.10054 13.3859C2.62511 9.52262 5.6127 6.28096 9.71542 5.04196L8.7903 1.9786ZM-1.07076 12.9583C-1.22602 14.118 -0.470471 15.0665 0.455046 15.399L1.53703 12.3875C1.81787 12.4884 2.17434 12.8346 2.10094 13.3829L-1.07076 12.9583ZM0.462543 15.4017C0.543897 15.4304 0.626058 15.4547 0.70862 15.4744L1.45342 12.3623C1.4789 12.3684 1.50431 12.3759 1.52953 12.3848L0.462543 15.4017ZM0.706882 15.474C0.899616 15.5203 1.09471 15.5424 1.28761 15.5416L1.2742 12.3416C1.33415 12.3414 1.39491 12.3482 1.45515 12.3627L0.706882 15.474ZM1.2857 15.5416C1.95944 15.5396 2.66573 15.2543 3.14392 14.659L0.649138 12.655C0.834526 12.4242 1.08045 12.3422 1.27611 12.3416L1.2857 15.5416ZM3.141 14.6626C4.85224 12.5449 7.65569 11.2315 10.6508 11.2315L10.6508 8.03148C6.75911 8.03148 3.01351 9.72904 0.652058 12.6514L3.141 14.6626ZM10.6508 11.2315C10.8622 11.2315 11.0731 11.2379 11.2832 11.2509L11.4808 8.05701C11.2038 8.03987 10.927 8.03148 10.6508 8.03148L10.6508 11.2315ZM11.2832 11.2509C11.1714 11.244 11.0777 11.1874 11.0255 11.1276C10.9786 11.074 10.9643 11.02 10.9643 10.9795L14.1643 10.9795C14.1643 9.5557 13.1148 8.15812 11.4808 8.05701L11.2832 11.2509ZM10.9643 10.9795C10.9643 11.8364 11.2407 12.6362 11.824 13.2279C12.3951 13.8071 13.1394 14.0618 13.8383 14.0618L13.8383 10.8618C13.9028 10.8618 14.0101 10.8872 14.1028 10.9813C14.1472 11.0263 14.1669 11.0669 14.1729 11.0829C14.1781 11.0967 14.1643 11.0687 14.1643 10.9795L10.9643 10.9795ZM13.8383 14.0618C14.7571 14.0618 15.535 13.6468 16.1325 13.1128L14 10.7269C13.9011 10.8153 13.836 10.8502 13.8102 10.8616C13.7885 10.8712 13.8011 10.8618 13.8383 10.8618L13.8383 14.0618ZM16.1401 13.1059L20.4891 9.16845L18.3414 6.79627L13.9924 10.7338L16.1401 13.1059ZM20.4891 9.16845C22.1474 7.66707 22.1474 5.16156 20.4891 3.66018L18.3414 6.03236C18.4912 6.168 18.5328 6.30739 18.5328 6.41432C18.5328 6.52124 18.4912 6.66063 18.3414 6.79627L20.4891 9.16845ZM20.4891 3.66018L16.1401 -0.277315L13.9924 2.09487L18.3414 6.03236L20.4891 3.66018ZM16.1401 -0.277314C15.5306 -0.829198 14.7497 -1.23321 13.8383 -1.23321L13.8383 1.96679C13.8069 1.96679 13.7955 1.95881 13.8137 1.96679C13.8359 1.97659 13.8974 2.00883 13.9924 2.09486L16.1401 -0.277314ZM13.8383 -1.23321C13.1394 -1.23321 12.3951 -0.978504 11.824 -0.399239C11.2407 0.192469 10.9643 0.992244 10.9643 1.84914L14.1643 1.84914C14.1643 1.75996 14.1781 1.73195 14.1729 1.74575C14.1669 1.76172 14.1472 1.80235 14.1028 1.84736C14.0101 1.94139 13.9028 1.96679 13.8383 1.96679L13.8383 -1.23321ZM10.9643 1.84914C10.9643 1.72238 11.0166 1.61667 11.077 1.55144C11.134 1.48995 11.2051 1.45488 11.2781 1.44537L11.6916 4.61854C13.0147 4.44614 14.1643 3.33551 14.1643 1.84914L10.9643 1.84914ZM11.2781 1.44537C10.4247 1.55656 9.59295 1.73621 8.7903 1.9786L9.71542 5.04196C10.3513 4.84994 11.0119 4.7071 11.6916 4.61854L11.2781 1.44537Z" fill="#636363" mask="url(#path-3-inside-2_227_265)"/>
</svg>
