<svg width="14" height="18" viewBox="0 0 14 18" fill="none" xmlns="http://www.w3.org/2000/svg">
<path d="M10.5472 6.38219C10.9665 6.38219 11.3608 6.3794 11.7552 6.38219C12.7216 6.39337 13.513 7.02179 13.7352 7.96303C13.7741 8.12502 13.7879 8.29819 13.7907 8.46577C13.7935 10.7393 13.7935 13.0128 13.7935 15.2891C13.7935 16.4928 12.9104 17.381 11.7135 17.381C8.50326 17.3838 5.29302 17.3838 2.07999 17.381C0.883095 17.381 0.00277703 16.4928 0 15.2863C0 13.0211 0 10.7504 0.00277703 8.48253C0.00277703 7.26757 0.883095 6.38499 2.0911 6.38219C2.46878 6.38219 2.84368 6.38219 3.24635 6.38219C3.24635 6.31237 3.24635 6.25372 3.24635 6.19506C3.24635 5.35158 3.24357 4.5081 3.24635 3.6674C3.24912 2.0335 4.22386 0.667729 5.77622 0.176163C7.85066 -0.480191 10.0084 0.759898 10.4666 2.86023C10.5249 3.12836 10.5416 3.41045 10.5444 3.68696C10.5555 4.51927 10.5472 5.34879 10.5472 6.1811C10.5472 6.24254 10.5472 6.30399 10.5472 6.38219ZM6.90092 7.74238C5.31246 7.74238 3.724 7.74238 2.13554 7.74238C1.61901 7.74238 1.35241 8.00772 1.35241 8.52442C1.35241 10.7644 1.35241 13.0044 1.35241 15.2444C1.35241 15.7611 1.61901 16.0264 2.13554 16.0264C5.3069 16.0264 8.47827 16.0264 11.6496 16.0264C12.1773 16.0264 12.4411 15.7639 12.4411 15.236C12.4411 13.0016 12.4411 10.7672 12.4411 8.5328C12.4411 8.00492 12.18 7.74238 11.6496 7.74238C10.0667 7.73959 8.48382 7.74238 6.90092 7.74238ZM9.18919 6.37382C9.19196 6.33471 9.19474 6.30678 9.19474 6.27885C9.19474 5.37392 9.20307 4.46899 9.18919 3.56406C9.18641 3.33783 9.14198 3.10043 9.06978 2.88537C8.70598 1.82124 7.62294 1.20678 6.47325 1.3967C5.39299 1.57545 4.60431 2.51669 4.59876 3.63947C4.59598 4.5053 4.59876 5.37113 4.59876 6.23417C4.59876 6.27885 4.59876 6.32075 4.59876 6.37382C6.13446 6.37382 7.65349 6.37382 9.18919 6.37382Z" fill="#636363"/>
<path d="M7.57376 12.0345C7.57376 12.5289 7.57653 13.0148 7.57376 13.5008C7.57098 13.7717 7.45157 13.9812 7.21274 14.1097C6.98503 14.2326 6.75453 14.2214 6.53792 14.0846C6.32132 13.9477 6.22134 13.741 6.22134 13.4841C6.22134 13.0037 6.22134 12.5233 6.22134 12.0289C5.85755 11.7664 5.64372 11.4089 5.64928 10.9452C5.65483 10.5961 5.78535 10.2917 6.04084 10.0543C6.56014 9.57388 7.35715 9.6074 7.81536 10.1129C8.2458 10.5877 8.34022 11.4619 7.57376 12.0345Z" fill="#636363"/>
</svg>
