<svg width="18" height="17" viewBox="0 0 18 17" fill="none" xmlns="http://www.w3.org/2000/svg">
    <path d="M16.2031 1L9.95996 5.63686L11.1145 2.90118L16.2031 1Z" fill="#E2761B" stroke="#E2761B" strokeLinecap="round" strokeLinejoin="round"/>
    <path d="M1.79054 1L7.98348 5.68078L6.88544 2.90118L1.79054 1ZM13.9568 11.7482L12.2941 14.2957L15.8517 15.2745L16.8745 11.8047L13.9568 11.7482ZM1.13171 11.8047L2.14818 15.2745L5.70583 14.2957L4.04309 11.7482L1.13171 11.8047Z" fill="#E4761B" stroke="#E4761B" strokeLinecap="round" strokeLinejoin="round"/>
    <path d="M5.50517 7.44427L4.51379 8.94388L8.04634 9.10074L7.92085 5.30466L5.50517 7.44427ZM12.4887 7.44427L10.0416 5.26074L9.96007 9.10074L13.4863 8.94388L12.4887 7.44427ZM5.70595 14.296L7.82674 13.2607L5.99458 11.8302L5.70595 14.296ZM10.1671 13.2607L12.2942 14.296L11.9993 11.8302L10.1671 13.2607Z" fill="#E4761B" stroke="#E4761B" strokeLinecap="round" strokeLinejoin="round"/>
    <path d="M12.2941 14.296L10.167 13.2607L10.3365 14.6474L10.3176 15.2309L12.2941 14.296ZM5.70587 14.296L7.68234 15.2309L7.66979 14.6474L7.82666 13.2607L5.70587 14.296Z" fill="#D7C1B3" stroke="#D7C1B3" strokeLinecap="round" strokeLinejoin="round"/>
    <path d="M7.71375 10.9135L5.94434 10.3928L7.19296 9.82178L7.71375 10.9135ZM10.28 10.9135L10.8008 9.82178L12.0557 10.3928L10.28 10.9135Z" fill="#233447" stroke="#233447" strokeLinecap="round" strokeLinejoin="round"/>
    <path d="M5.7059 14.2955L6.00707 11.7481L4.04315 11.8045L5.7059 14.2955ZM11.993 11.7481L12.2941 14.2955L13.9569 11.8045L11.993 11.7481ZM13.4863 8.94336L9.96002 9.10022L10.2863 10.9136L10.8071 9.82179L12.062 10.3928L13.4863 8.94336ZM5.94433 10.3928L7.19923 9.82179L7.71374 10.9136L8.04629 9.10022L4.51374 8.94336L5.94433 10.3928Z" fill="#CD6116" stroke="#CD6116" strokeLinecap="round" strokeLinejoin="round"/>
    <path d="M4.51379 8.94336L5.99458 11.8296L5.94438 10.3928L4.51379 8.94336ZM12.062 10.3928L11.9993 11.8296L13.4863 8.94336L12.062 10.3928ZM8.04634 9.10022L7.71379 10.9136L8.12791 13.0532L8.22203 10.2359L8.04634 9.10022ZM9.96007 9.10022L9.79066 10.2296L9.86595 13.0532L10.2863 10.9136L9.96007 9.10022Z" fill="#E4751F" stroke="#E4751F" strokeLinecap="round" strokeLinejoin="round"/>
    <path d="M10.2863 10.9139L9.86591 13.0535L10.1671 13.2605L11.9992 11.8299L12.062 10.3931L10.2863 10.9139ZM5.94434 10.3931L5.99453 11.8299L7.82669 13.2605L8.12787 13.0535L7.71375 10.9139L5.94434 10.3931Z" fill="#F6851B" stroke="#F6851B" strokeLinecap="round" strokeLinejoin="round"/>
    <path d="M10.3176 15.2308L10.3365 14.6473L10.1796 14.5092H7.81411L7.66979 14.6473L7.68234 15.2308L5.70587 14.2959L6.39607 14.8606L7.79528 15.8332H10.1984L11.6039 14.8606L12.2941 14.2959L10.3176 15.2308Z" fill="#C0AD9E" stroke="#C0AD9E" strokeLinecap="round" strokeLinejoin="round"/>
    <path d="M10.1671 13.2608L9.86588 13.0537H8.12784L7.82666 13.2608L7.6698 14.6474L7.81411 14.5094H10.1796L10.3365 14.6474L10.1671 13.2608Z" fill="#161616" stroke="#161616" strokeLinecap="round" strokeLinejoin="round"/>
    <path d="M16.4667 5.93804L17 3.37804L16.2031 1L10.1671 5.48L12.4886 7.44392L15.7702 8.40392L16.498 7.55686L16.1843 7.33098L16.6863 6.87294L16.2973 6.57177L16.7992 6.18902L16.4667 5.93804ZM1 3.37804L1.53333 5.93804L1.19451 6.18902L1.69647 6.57177L1.31373 6.87294L1.81569 7.33098L1.50196 7.55686L2.22353 8.40392L5.5051 7.44392L7.82667 5.48L1.79059 1L1 3.37804Z" fill="#763D16" stroke="#763D16" strokeLinecap="round" strokeLinejoin="round"/>
    <path d="M15.7701 8.40411L12.4886 7.44411L13.4862 8.94372L11.9992 11.83L13.9568 11.8049H16.8745L15.7701 8.40411ZM5.50505 7.44411L2.22348 8.40411L1.13171 11.8049H4.04309L5.99446 11.83L4.51367 8.94372L5.50505 7.44411ZM9.95995 9.10058L10.167 5.48019L11.1207 2.90137H6.88544L7.82662 5.48019L8.04622 9.10058L8.12152 10.2425L8.12779 13.0535H9.86583L9.87838 10.2425L9.95995 9.10058Z" fill="#F6851B" stroke="#F6851B" strokeLinecap="round" strokeLinejoin="round"/>
</svg>