<svg width="241" height="117" viewBox="0 0 241 117" fill="none" xmlns="http://www.w3.org/2000/svg">
<path d="M246.615 -17.2171C242.408 -18.8666 237.676 -17.481 235.046 -13.852C208.887 22.0426 166.821 43.487 122.587 43.487C114.371 43.487 106.155 42.7612 98.0047 41.2436V24.286C98.0047 9.70387 89.7888 3.17157 81.6386 3.17157C76.3146 3.17157 70.9907 5.81088 65.864 10.8915L9.99562 66.9768C-2.29542 79.3156 -2.29542 99.3083 9.99562 111.647L65.864 167.732C70.9907 172.879 76.3146 175.452 81.6386 175.452C89.7888 175.452 98.0047 168.92 98.0047 154.338V138.898C177.338 134.213 242.999 73.0472 252.793 -6.92378C253.319 -11.2786 250.755 -15.5675 246.615 -17.2171Z" fill="#EFEEEE"/>
</svg>
