<svg width="335" height="150" viewBox="0 0 365 150" fill="none" xmlns="http://www.w3.org/2000/svg">
<path d="M322.614 84.3071L248.6 10.6578C241.808 3.81279 234.755 0.433594 227.702 0.433594C216.905 0.433594 206.02 9.01157 206.02 28.1604V48.4356C100.921 54.5875 13.9334 134.822 0.959227 239.924C0.262628 245.816 3.57147 251.448 9.14426 253.614C10.7116 254.22 12.366 254.567 13.9334 254.567C18.0259 254.567 21.9443 252.661 24.4694 249.281C59.1252 202.146 114.853 173.986 173.454 173.986C184.339 173.986 195.223 174.939 206.02 176.932V199.2C206.02 206.305 207.414 212.197 210.287 216.876C214.118 223.288 220.475 226.927 227.702 226.927C234.755 226.927 241.808 223.461 248.6 216.789L322.614 143.14C338.897 126.764 338.897 100.423 322.614 84.3071Z" fill="#EFEEEE"/>
</svg>
