<svg width="22" height="22" viewBox="0 0 22 22" fill="none" xmlns="http://www.w3.org/2000/svg">
<path d="M10.9691 5.48438C7.92205 5.48438 5.48438 7.92205 5.48438 10.9691C5.48438 14.0162 7.92205 16.4539 10.9691 16.4539C14.0162 16.4539 16.4539 14.0162 16.4539 10.9691C16.4539 7.92205 14.0162 5.48438 10.9691 5.48438Z" fill="white"/>
<path d="M10.97 3.83934C10.3606 3.83934 9.87305 3.3518 9.87305 2.74238V1.09695C9.87305 0.487535 10.3606 0 10.97 0C11.5794 0 12.067 0.487535 12.067 1.09695V2.80332C12.067 3.3518 11.5794 3.83934 10.97 3.83934Z" fill="white"/>
<path d="M10.97 18.0996C10.3606 18.0996 9.87305 18.5871 9.87305 19.1966V20.9029C9.87305 21.5124 10.3606 21.9999 10.97 21.9999C11.5794 21.9999 12.067 21.5124 12.067 20.9029V19.1966C12.067 18.5871 11.5794 18.0996 10.97 18.0996Z" fill="white"/>
<path d="M15.9664 5.97248C15.5398 5.54589 15.5398 4.87553 15.9664 4.44894L17.1853 3.2301C17.6119 2.80351 18.2822 2.80351 18.7088 3.2301C19.1354 3.65669 19.1354 4.32705 18.7088 4.75365L17.49 5.97248C17.1243 6.33813 16.393 6.33813 15.9664 5.97248Z" fill="white"/>
<path d="M5.97248 16.027C5.54589 15.6004 4.87553 15.6004 4.44894 16.027L3.2301 17.2458C2.80351 17.6724 2.80351 18.3428 3.2301 18.7694C3.65669 19.196 4.32705 19.196 4.75365 18.7694L5.97248 17.5505C6.33813 17.1239 6.33813 16.3926 5.97248 16.027Z" fill="white"/>
<path d="M18.0996 10.97C18.0996 10.3606 18.5871 9.87305 19.1966 9.87305H20.9029C21.5124 9.87305 21.9999 10.3606 21.9999 10.97C21.9999 11.5794 21.5124 12.067 20.9029 12.067H19.1966C18.5871 12.067 18.0996 11.5794 18.0996 10.97Z" fill="white"/>
<path d="M3.83934 10.97C3.83934 10.3606 3.3518 9.87305 2.74238 9.87305H1.09695C0.487535 9.87305 0 10.3606 0 10.97C0 11.5794 0.487535 12.067 1.09695 12.067H2.80332C3.3518 12.067 3.83934 11.5794 3.83934 10.97Z" fill="white"/>
<path d="M15.9656 16.027C16.3922 15.6004 17.0626 15.6004 17.4892 16.027L18.708 17.2458C19.1346 17.6724 19.1346 18.3428 18.708 18.7694C18.2814 19.196 17.6111 19.196 17.1845 18.7694L15.9656 17.5505C15.6 17.1239 15.6 16.3926 15.9656 16.027Z" fill="white"/>
<path d="M5.97248 5.97248C6.39908 5.54589 6.39908 4.87553 5.97248 4.44894L4.75365 3.2301C4.32705 2.80351 3.65669 2.80351 3.2301 3.2301C2.80351 3.65669 2.80351 4.32705 3.2301 4.75365L4.44894 5.97248C4.81459 6.33813 5.54589 6.33813 5.97248 5.97248Z" fill="white"/>
</svg>
