<svg width="23" height="23" viewBox="0 0 23 23" fill="none" xmlns="http://www.w3.org/2000/svg">
<path d="M19.9909 11.8193C19.7574 11.6882 19.4909 11.7473 19.3382 11.9317C18.8368 12.3871 18.2648 12.8152 17.579 13.1178C14.3457 14.5447 10.5328 13.0668 9.10594 9.83358C8.24114 7.87403 8.42099 5.62906 9.56198 3.83785C9.69307 3.60441 9.70457 3.36521 9.54748 3.14189C9.41201 2.96755 9.12958 2.85808 8.93362 2.94456C8.54746 2.99792 8.30252 3.10602 8.05758 3.21412C3.6486 5.1599 1.6233 10.3849 3.56908 14.7939C5.51487 19.2029 10.7399 21.2282 15.1489 19.2824C17.9412 18.0501 19.9107 15.4836 20.3209 12.4345C20.3324 12.1953 20.2243 11.9504 19.9909 11.8193Z" fill="#767676"/>
</svg>
