<svg width="35" height="35" viewBox="0 0 35 35" fill="none" xmlns="http://www.w3.org/2000/svg">
<path d="M17.3467 34.6932C20.7775 34.6932 24.1312 33.6759 26.9838 31.7699C29.8365 29.8638 32.0598 27.1547 33.3728 23.9851C34.6857 20.8155 35.0293 17.3277 34.36 13.9628C33.6908 10.5979 32.0388 7.50703 29.6129 5.08102C27.187 2.65502 24.0962 1.00285 20.7314 0.333426C17.3665 -0.335997 13.8787 0.00739827 10.709 1.32019C7.53932 2.63298 4.83009 4.8562 2.92391 7.70872C1.01774 10.5612 0.000226062 13.9149 5.18038e-05 17.3457C-0.00552579 19.6253 0.439344 21.8836 1.30911 23.9907C2.17887 26.0979 3.45638 28.0124 5.06827 29.6244C6.68015 31.2364 8.59463 32.514 10.7017 33.3838C12.8089 34.2537 15.0671 34.6987 17.3467 34.6932Z" fill="#2775CA"/>
<path d="M22.1176 20.093C22.1176 17.5634 20.5995 16.6956 17.5642 16.3343C15.3959 16.0453 14.9624 15.4674 14.9624 14.455C14.9624 13.4426 15.6849 12.7924 17.1307 12.7924C18.4321 12.7924 19.1572 13.2259 19.5158 14.3105C19.5531 14.4152 19.6215 14.5059 19.7119 14.5705C19.8024 14.6351 19.9104 14.6704 20.0215 14.6717H21.181C21.2478 14.6733 21.3144 14.6613 21.3764 14.6364C21.4385 14.6116 21.4948 14.5744 21.5421 14.5271C21.5894 14.4798 21.6266 14.4234 21.6514 14.3614C21.6763 14.2993 21.6883 14.2328 21.6868 14.166V14.0937C21.5465 13.3105 21.1517 12.5956 20.5635 12.0598C19.9753 11.524 19.2267 11.1974 18.4338 11.1307V9.39586C18.4338 9.10687 18.2171 8.89012 17.8558 8.81787H16.7712C16.4822 8.81787 16.2655 9.03462 16.1933 9.39586V11.0584C14.0249 11.3474 12.6513 12.7933 12.6513 14.6004C12.6513 16.9854 14.0972 17.9247 17.1325 18.2868C19.159 18.648 19.8065 19.0798 19.8065 20.2384C19.8065 21.397 18.7942 22.19 17.4215 22.19C15.5421 22.19 14.891 21.397 14.6743 20.3106C14.6525 20.1913 14.5904 20.0831 14.4983 20.0042C14.4062 19.9253 14.2898 19.8804 14.1685 19.8771H12.9394C12.8726 19.8756 12.8061 19.8876 12.744 19.9125C12.682 19.9373 12.6256 19.9745 12.5784 20.0218C12.5311 20.0691 12.4939 20.1254 12.469 20.1875C12.4442 20.2495 12.4321 20.316 12.4337 20.3828V20.4551C12.7227 22.2622 13.8796 23.5627 16.2646 23.9248V25.6596C16.2646 25.9486 16.4814 26.1654 16.8426 26.2376H17.9263C18.2153 26.2376 18.4321 26.0209 18.5043 25.6596V23.9248C19.4714 23.8401 20.3736 23.4031 21.0396 22.6968C21.7055 21.9905 22.0889 21.0643 22.1167 20.0939" fill="white"/>
<path d="M13.6603 27.6825C11.5802 26.92 9.78443 25.5371 8.51579 23.7209C7.24715 21.9046 6.56685 19.7427 6.56685 17.5272C6.56685 15.3118 7.24715 13.1498 8.51579 11.3335C9.78443 9.51729 11.5802 8.13444 13.6603 7.37194C13.7988 7.31167 13.915 7.20962 13.9927 7.0801C14.0704 6.95057 14.1058 6.80003 14.0938 6.64946V5.63797C14.1035 5.50552 14.065 5.37402 13.9853 5.26777C13.9056 5.16153 13.7902 5.08772 13.6603 5.05998C13.5585 5.04932 13.4561 5.07491 13.3713 5.13223C10.7397 5.96832 8.44249 7.62021 6.8122 9.84876C5.18192 12.0773 4.30316 14.7669 4.30316 17.5281C4.30316 20.2893 5.18192 22.9789 6.8122 25.2074C8.44249 27.436 10.7397 29.0878 13.3713 29.9239C13.4314 29.9585 13.4988 29.9784 13.5681 29.982C13.6373 29.9856 13.7065 29.9728 13.7698 29.9446C13.8332 29.9164 13.889 29.8737 13.9328 29.8199C13.9765 29.7661 14.0069 29.7027 14.0215 29.6349C14.0938 29.5627 14.0938 29.4904 14.0938 29.3459V28.3336C14.071 28.2009 14.0206 28.0745 13.946 27.9625C13.8713 27.8505 13.774 27.7554 13.6603 27.6834V27.6825ZM21.3256 5.12782C21.2655 5.09325 21.1981 5.07339 21.1288 5.0698C21.0596 5.06621 20.9905 5.07901 20.9271 5.10717C20.8638 5.13533 20.8079 5.17804 20.7642 5.23185C20.7204 5.28566 20.69 5.34903 20.6754 5.41682C20.6032 5.48906 20.6032 5.56132 20.6032 5.70581V6.7173C20.6156 6.86278 20.6611 7.0035 20.7363 7.12871C20.8114 7.25392 20.9141 7.36033 21.0366 7.43978C23.1167 8.20228 24.9125 9.58513 26.1812 11.4014C27.4498 13.2176 28.1301 15.3796 28.1301 17.5951C28.1301 19.8105 27.4498 21.9725 26.1812 23.7887C24.9125 25.605 23.1167 26.9878 21.0366 27.7503C20.8981 27.8106 20.7819 27.9126 20.7042 28.0422C20.6265 28.1717 20.5912 28.3222 20.6032 28.4728V29.4913C20.5934 29.6238 20.632 29.7553 20.7116 29.8615C20.7913 29.9678 20.9068 30.0416 21.0366 30.0693C21.1385 30.08 21.2408 30.0544 21.3256 29.9971C23.9555 29.1487 26.2486 27.4882 27.8752 25.2544C29.5018 23.0205 30.3781 20.3284 30.3781 17.5651C30.3781 14.8018 29.5018 12.1097 27.8752 9.87581C26.2486 7.64196 23.9555 5.98148 21.3256 5.13312" fill="white"/>
</svg>
