<svg width="35" height="31" viewBox="0 0 35 31" fill="none" xmlns="http://www.w3.org/2000/svg">
<path fill-rule="evenodd" clip-rule="evenodd" d="M6.40814 0.149692L0.0262228 13.5549C0.00194804 13.6048 -0.00574191 13.6611 0.00427698 13.7156C0.0142959 13.7702 0.0414983 13.8201 0.0819083 13.8581L17.318 30.3743C17.3669 30.4213 17.4321 30.4475 17.5 30.4475C17.5679 30.4475 17.6331 30.4213 17.682 30.3743L34.9181 13.8592C34.9585 13.8212 34.9857 13.7713 34.9957 13.7168C35.0057 13.6622 34.9981 13.6059 34.9738 13.556L28.5919 0.150682C28.5713 0.105619 28.5382 0.0674403 28.4965 0.0407194C28.4547 0.0139985 28.4062 -0.000132074 28.3567 2.00724e-05H6.6453C6.59554 -0.000601006 6.54666 0.0132029 6.50457 0.0397637C6.46249 0.0663245 6.42899 0.104505 6.40814 0.149692Z" fill="#50AF95"/>
<path fill-rule="evenodd" clip-rule="evenodd" d="M19.7145 14.9315C19.5908 14.9408 18.9513 14.979 17.5253 14.979C16.391 14.979 15.5855 14.9449 15.3032 14.9315C10.9196 14.7387 7.64768 13.9756 7.64768 13.0619C7.64768 12.1482 10.9196 11.3863 15.3032 11.1904V14.1715C15.5898 14.1922 16.4105 14.2406 17.5449 14.2406C18.906 14.2406 19.5877 14.1841 19.7104 14.1725V11.1924C24.0846 11.3873 27.3493 12.1503 27.3493 13.0619C27.3493 13.9735 24.0856 14.7366 19.7104 14.9304L19.7145 14.9315ZM19.7145 10.8841V8.21644H25.8189V4.14844H9.19854V8.21644H15.3016V10.883C10.3408 11.1108 6.60959 12.0936 6.60959 13.2715C6.60959 14.4494 10.3408 15.4308 15.3016 15.6601V24.2079H19.7129V15.6564C24.6625 15.4286 28.3871 14.4468 28.3871 13.2702C28.3871 12.0936 24.6661 11.1119 19.7133 10.883L19.7145 10.8841Z" fill="white"/>
</svg>
