<svg width="35" height="28" viewBox="0 0 35 28" fill="none" xmlns="http://www.w3.org/2000/svg">
<path d="M2.5625 4.12375L23.493 0.074667C24.0841 -0.0399246 24.6932 -0.022437 25.2768 0.125879C25.8604 0.274194 26.404 0.54967 26.8687 0.932594C27.3333 1.31552 27.7076 1.79642 27.9648 2.34089C28.2219 2.88536 28.3555 3.47994 28.356 4.08207V18.2193L10.9615 24.1556L2.5625 4.12375Z" fill="#9F9F9F"/>
<path d="M4.26918 3.72461H30.736C31.8674 3.72599 32.9519 4.17639 33.7514 4.97686C34.5509 5.77734 35 6.86244 35 7.99379V23.3618C34.9986 24.4924 34.549 25.5763 33.7497 26.3758C32.9504 27.1754 31.8666 27.6254 30.736 27.6271H4.26918C3.13771 27.6267 2.05262 27.1774 1.25218 26.3777C0.451735 25.578 0.00138022 24.4933 0 23.3618L0 7.99379C0 6.86153 0.449788 5.77565 1.25041 4.97502C2.05104 4.1744 3.13692 3.72461 4.26918 3.72461Z" fill="#C4C4C4"/>
<path d="M17.8813 19.5235C17.2839 20.1393 16.3452 20.1393 15.7478 19.5235L12.448 16.1217C11.8507 15.5059 11.8507 14.5381 12.448 13.9223C13.0454 13.3065 13.9841 13.3065 14.5815 13.9223L16.5443 15.9457C16.6865 16.0924 16.9426 16.0924 17.0848 15.9457L22.4043 10.4619C23.0016 9.84604 23.9404 9.84604 24.5377 10.4619C24.8222 10.7551 24.9929 11.1364 24.9929 11.5762C24.9929 12.0161 24.8222 12.3974 24.5377 12.6906L17.8813 19.5235Z" fill="#F64A00"/>
</svg>
