<svg width="19" height="16" viewBox="0 0 19 16" fill="none" xmlns="http://www.w3.org/2000/svg">
<path d="M1.97864 2.96977L12.6926 0.897108C12.9952 0.83845 13.307 0.847402 13.6058 0.923322C13.9045 0.999243 14.1827 1.14026 14.4206 1.33627C14.6585 1.53228 14.8501 1.77845 14.9817 2.05716C15.1133 2.33586 15.1817 2.64022 15.182 2.94844V10.1851L6.27797 13.2238L1.97864 2.96977Z" fill="#DDDDDD"/>
<path d="M2.85196 2.76562H16.4C16.9791 2.76633 17.5342 2.99688 17.9435 3.40664C18.3528 3.81639 18.5826 4.37183 18.5826 4.95096V12.8176C18.5819 13.3963 18.3518 13.9512 17.9426 14.3605C17.5334 14.7697 16.9787 15.0001 16.4 15.001H2.85196C2.27277 15.0008 1.71733 14.7708 1.3076 14.3614C0.897863 13.952 0.667332 13.3968 0.666626 12.8176L0.666626 4.95096C0.666626 4.37137 0.896866 3.81552 1.3067 3.40569C1.71652 2.99586 2.27237 2.76563 2.85196 2.76562Z" fill="white"/>
</svg>
