<svg width="27" height="19" viewBox="0 0 27 19" fill="none" xmlns="http://www.w3.org/2000/svg">
<path d="M1.39062 5.23861L12.7529 3.04053C13.0738 2.97833 13.4045 2.98782 13.7213 3.06833C14.0381 3.14885 14.3331 3.29839 14.5854 3.50627C14.8377 3.71414 15.0408 3.9752 15.1804 4.27077C15.32 4.56634 15.3925 4.88911 15.3928 5.21598V12.8905L5.95009 16.113L1.39062 5.23861Z" fill="#DDDDDD"/>
<path fill-rule="evenodd" clip-rule="evenodd" d="M16.1568 5.11328H2.31756C1.7029 5.11328 1.11342 5.35745 0.678796 5.79208C0.24417 6.2267 0 6.81618 0 7.43084V15.7735C0.00074926 16.3877 0.245228 16.9765 0.679752 17.4107C1.11428 17.8448 1.70333 18.0887 2.31756 18.0889H16.6853C17.299 18.088 17.8873 17.8437 18.3212 17.4097C18.7552 16.9756 18.9993 16.3872 19 15.7735V7.87447C17.6322 7.52243 16.5476 6.4651 16.1568 5.11328Z" fill="white"/>
<circle cx="20.5" cy="3.5" r="3.5" fill="white"/>
<g filter="url(#filter0_d_557_4269)">
<path d="M19 3.5H22" stroke="#F74B01" stroke-width="0.7" strokeLinecap="round" stroke-linejoin="round"/>
</g>
<path d="M20.5 2L20.5 5" stroke="#F74B01" stroke-width="0.7" strokeLinecap="round"/>
<defs>
<filter id="filter0_d_557_4269" x="14.65" y="3.15039" width="11.7" height="8.69922" filterUnits="userSpaceOnUse" color-interpolation-filters="sRGB">
<feFlood flood-opacity="0" result="BackgroundImageFix"/>
<feColorMatrix in="SourceAlpha" type="matrix" values="0 0 0 0 0 0 0 0 0 0 0 0 0 0 0 0 0 0 127 0" result="hardAlpha"/>
<feOffset dy="4"/>
<feGaussianBlur stdDeviation="2"/>
<feComposite in2="hardAlpha" operator="out"/>
<feColorMatrix type="matrix" values="0 0 0 0 0 0 0 0 0 0 0 0 0 0 0 0 0 0 0.25 0"/>
<feBlend mode="normal" in2="BackgroundImageFix" result="effect1_dropShadow_557_4269"/>
<feBlend mode="normal" in="SourceGraphic" in2="effect1_dropShadow_557_4269" result="shape"/>
</filter>
</defs>
</svg>
