<svg width="112" height="84" viewBox="0 0 112 84" fill="none" xmlns="http://www.w3.org/2000/svg">
<path d="M107.316 28.0056L82.7886 4.11708C80.5379 1.89684 78.2006 0.800781 75.8633 0.800781C72.2853 0.800781 68.6783 3.5831 68.6783 9.79412V16.3705C33.8499 18.3659 5.02331 44.3904 0.72386 78.4808C0.493017 80.3918 1.58952 82.2186 3.43627 82.9212C3.95567 83.118 4.50392 83.2304 5.02332 83.2304C6.37952 83.2304 7.67801 82.6121 8.51482 81.516C19.9993 66.2273 38.4667 57.0935 57.8864 57.0935C61.4933 57.0935 65.1003 57.4026 68.6783 58.049V65.2718C68.6783 67.5763 69.14 69.4874 70.0923 71.005C71.3619 73.0847 73.4683 74.2651 75.8633 74.2651C78.2006 74.2651 80.5379 73.141 82.7886 70.9769L107.316 47.0884C112.712 41.7767 112.712 33.233 107.316 28.0056Z" fill="white"/>
<path d="M68.2172 65.0984C68.2172 67.3978 68.6839 69.3046 69.6464 70.8188C70.9297 72.8938 73.0589 74.0715 75.4797 74.0715C77.8422 74.0715 80.2047 72.9499 82.4797 70.7907L107.271 46.956C112.726 41.7124 112.726 33.216 107.271 27.9724L82.4797 4.13764C80.2047 1.89437 77.8422 0.800781 75.4797 0.800781C71.863 0.800781 68.2172 3.57682 68.2172 9.77385V16.3354C67.0797 16.3915 65.9422 16.5037 64.8047 16.6158V57.3872C65.9422 57.5274 67.0797 57.6957 68.2172 57.8919V65.0984Z" fill="white"/>
</svg>
