<svg width="21" height="14" viewBox="0 0 21 14" fill="none" xmlns="http://www.w3.org/2000/svg">
<path d="M2.50052 0H18.0025C18.6652 0.000808603 19.3004 0.264612 19.7687 0.733463C20.2369 1.20231 20.5 1.83787 20.5 2.50052V11.5018C20.4992 12.164 20.2358 12.7988 19.7676 13.2671C19.2995 13.7354 18.6647 13.999 18.0025 14H2.50052C1.8378 13.9998 1.20224 13.7366 0.733416 13.2682C0.264588 12.7998 0.000808411 12.1645 0 11.5018L0 2.50052C0 1.83734 0.263447 1.20132 0.732385 0.732385C1.20132 0.263447 1.83734 0 2.50052 0Z" fill="#F64A00"/>
<g clip-path="url(#clip0)">
<path d="M9.84627 10.2709C9.45123 10.6782 8.83046 10.6782 8.43542 10.2709L6.25331 8.02136C5.85827 7.61411 5.85827 6.97416 6.25331 6.56691C6.64835 6.15967 7.26912 6.15967 7.66416 6.56691L8.96214 7.905C9.05619 8.00197 9.22549 8.00197 9.31955 7.905L12.8373 4.27858C13.2323 3.87133 13.8531 3.87133 14.2481 4.27858C14.4362 4.47251 14.5491 4.72461 14.5491 5.0155C14.5491 5.30639 14.4362 5.55849 14.2481 5.75242L9.84627 10.2709Z" fill="#FA7137"/>
</g>
<defs>
<clipPath id="clip0">
<rect width="8.59676" height="6.6129" fill="white" transform="translate(5.95166 3.96777)"/>
</clipPath>
</defs>
</svg>
