<svg width="37" height="20" viewBox="0 0 37 20" fill="none" xmlns="http://www.w3.org/2000/svg">
<path d="M5.82566 19.4739L16.7283 6.46842C16.9174 6.2429 17.0415 5.96866 17.0867 5.67601C17.1319 5.38336 17.0966 5.08372 16.9846 4.8102C16.8725 4.53668 16.6882 4.29995 16.452 4.12618C16.2158 3.95241 15.9368 3.84837 15.646 3.82556L0 2.59668L17.615 2.61082C18.9784 2.55225 19.5092 2.66083 20.011 3.31175C20.8299 4.20133 19.9139 5.27031 19.4534 5.73851L5.81724 19.4739" fill="#F95204"/>
<path d="M15.8946 11.6842L22.0023 4.29427C22.1932 4.06338 22.3174 3.7823 22.3608 3.48277C22.4043 3.18325 22.3653 2.87722 22.2482 2.59926C22.1311 2.3213 21.9406 2.08248 21.6983 1.90979C21.4559 1.73709 21.1714 1.6374 20.8767 1.62198L0 0.529501L23.2479 0.0139129C24.608 -0.0451175 25.1377 0.0643222 25.6377 0.7212C26.4543 1.61731 25.5409 2.69519 25.0816 3.16755L15.8946 11.6842Z" fill="#F95204"/>
<path d="M31.1743 -0.000238928L20.2717 13.0052C20.0826 13.2307 19.9585 13.505 19.9133 13.7976C19.8681 14.0903 19.9034 14.3899 20.0154 14.6634C20.1275 14.9369 20.3118 15.1737 20.548 15.3474C20.7842 15.5212 21.0632 15.6253 21.354 15.6481L37 16.877L19.385 16.8628C18.0216 16.9214 17.4908 16.8128 16.989 16.1619C16.1701 15.2723 17.0861 14.2033 17.5466 13.7351L31.1828 -0.000238927" fill="#F95204"/>
<path d="M21.1054 7.78942L14.9977 15.1794C14.8068 15.4102 14.6826 15.6913 14.6392 15.9909C14.5957 16.2904 14.6347 16.5964 14.7518 16.8744C14.8689 17.1523 15.0594 17.3912 15.3017 17.5638C15.5441 17.7365 15.8286 17.8362 16.1233 17.8516L37 18.9441L13.7521 19.4597C12.392 19.5187 11.8623 19.4093 11.3623 18.7524C10.5457 17.8563 11.4591 16.7784 11.9184 16.3061L21.1054 7.78942Z" fill="#F95204"/>
</svg>
