<svg width="26" height="27" viewBox="0 0 26 27" fill="none" xmlns="http://www.w3.org/2000/svg">
<path d="M25.8623 13.0038C25.8623 15.5751 25.1039 18.0887 23.6831 20.2268C22.2622 22.3648 20.2426 24.0312 17.8797 25.0152C15.5169 25.9992 12.9168 26.2567 10.4084 25.755C7.90003 25.2534 5.59591 24.0151 3.78746 22.1969C1.979 20.3787 0.747427 18.0621 0.248475 15.5401C-0.250477 13.0182 0.00560291 10.4041 0.984333 8.02846C1.96306 5.65283 3.62048 3.62234 5.747 2.19376C7.87352 0.765185 10.3736 0.00268555 12.9312 0.00268555H12.9322C16.3616 0.00296318 19.6504 1.37284 22.0753 3.81098C24.5001 6.24912 25.8623 9.55584 25.8623 13.0038Z" fill="#3B80EE"/>
<path d="M12.941 0.129453C14.6405 0.113828 16.3264 0.43314 17.9025 1.06915C19.4785 1.70516 20.9138 2.64542 22.1265 3.83621C23.3391 5.02701 24.3053 6.44502 24.9698 8.00926C25.6343 9.5735 25.9842 11.2533 25.9995 12.9528C26.0147 14.6523 25.695 16.3381 25.0587 17.914C24.4223 19.4899 23.4817 20.925 22.2907 22.1374C21.0996 23.3498 19.6814 24.3156 18.117 24.9798C16.5526 25.644 14.8727 25.9935 13.1732 26.0084C13.0958 26.0091 13.0184 26.0091 12.941 26.0084" fill="#FDCF5B"/>
<path d="M12.4294 12.6308H25.9897C25.9897 9.28155 24.561 6.0695 22.018 3.70124C19.475 1.33298 16.4727 -0.0673954 12.4294 0.00249901" fill="#6FCDA4"/>
<path d="M20.1773 16.8323C20.1773 13.0564 17.9137 11.7615 13.3856 11.2223C10.1513 10.791 9.5049 9.92741 9.5049 8.41684C9.5049 6.90627 10.5833 5.93586 12.7391 5.93586C14.6795 5.93586 15.7579 6.5828 16.2956 8.20119C16.3512 8.35759 16.4534 8.49314 16.5885 8.58955C16.7235 8.68595 16.8849 8.73857 17.0508 8.74031H18.7756C18.8717 8.74338 18.9675 8.72748 19.0575 8.69351C19.1474 8.65954 19.2298 8.60817 19.3 8.54233C19.3701 8.47649 19.4266 8.39747 19.4662 8.30978C19.5058 8.22209 19.5278 8.12746 19.5308 8.03127C19.5313 8.01603 19.5313 8.00079 19.5308 7.98555V7.88086C19.3225 6.71136 18.7339 5.64351 17.8565 4.84331C16.9792 4.0431 15.8623 3.55537 14.6795 3.45592V0.866074C14.6795 0.434781 14.3563 0.110265 13.8165 0.00244141H12.2005C11.7695 0.00244141 11.4452 0.325911 11.3375 0.866074V3.35124C8.10326 3.78254 6.05519 5.94005 6.05519 8.63772C6.05519 12.1969 8.211 13.6007 12.7391 14.1398C15.7579 14.679 16.7275 15.3269 16.7275 17.0532C16.7275 18.7794 15.2182 19.9665 13.1711 19.9665C10.3679 19.9665 9.39821 18.7794 9.075 17.161C9.04263 16.9829 8.95 16.8214 8.81266 16.7035C8.67532 16.5857 8.50165 16.5188 8.32083 16.514H6.48614C6.29204 16.5081 6.10355 16.5796 5.96211 16.7128C5.82068 16.8459 5.7379 17.0299 5.73197 17.2241C5.73151 17.2394 5.73151 17.2546 5.73197 17.2699V17.3745C6.16293 20.0712 7.88778 22.013 11.4452 22.5532V25.142C11.4452 25.5733 11.7685 25.8968 12.3071 26.0046H13.9243C14.3552 26.0046 14.6795 25.6811 14.7872 25.142V22.5511C18.0215 22.012 20.1773 19.7456 20.1773 16.8333" fill="white"/>
</svg>
