<svg xmlns="http://www.w3.org/2000/svg" width="15" height="14" fill="none">
<mask id="A" maskUnits="userSpaceOnUse" x="0" y="-.727" width="15" height="15" fill="#000"><path fill="#fff" d="M0-.727h15v15H0z"/><path d="M9.636 12.671h.439l.38.003a.26.26 0 0 1 .247.269c0 .139-.108.256-.25.269-.037.003-.077.003-.114.003H1.361h-.077c-.167-.009-.284-.12-.284-.275s.111-.263.275-.269h.655c.117.003.148-.031.148-.148l-.003-5.34v-.127c.003-.219.102-.315.318-.315h1.313.127l-.08-.732c-.04-1.588 1.013-2.984 2.632-3.36l2.323-.587c.028-.006.056-.019.083-.028-.022-.099-.053-.188-.062-.284-.022-.247.059-.463.232-.642l.571-.571c.355-.349.837-.352 1.192 0l2.153 2.15.784.785c.361.364.365.843.003 1.211l-.491.491c-.371.371-.673.42-1.146.179l-.074.108-1.26 1.949c-.259.417-.553.803-.92 1.13-.105.096-.142.198-.142.34l.003 3.623.003.17zM5.775 6.738l.117-.198c.667-.973 2.054-.967 2.761.015.148.204.139.306-.037.485L6.665 8.999c-.059.059-.117.12-.161.191-.275.432-.062.939.436 1.029a.68.68 0 0 0 .639-.219l2.23-2.267a.92.92 0 0 0 .117-.148l1.285-1.977.417-.646-.046-.053-2.313-2.344c-.053-.052-.099-.059-.167-.04l-2.65.673c-.951.247-1.625.825-1.977 1.748-.225.587-.232 1.186-.053 1.795l1.353-.003zm1.825.559H2.628v5.353h6.446V9.283c-.012-.006-.022-.015-.034-.022-.028.037-.049.08-.08.111l-1.084 1.093c-.516.488-1.34.411-1.779-.145-.386-.491-.334-1.177.133-1.652l1.016-1.019.355-.352zm4.892-2.313c.086-.049.173-.077.235-.136l.556-.55a.27.27 0 0 0 0-.429L10.349.934c-.145-.145-.29-.142-.439.003l-.519.516c-.161.161-.158.3.006.466l1.075 1.084 1.81 1.828c.056.059.13.096.21.151zM8.095 6.738c-.463-.547-1.34-.439-1.64 0h1.64z"/></mask><path d="M9.636 12.671h.439l.38.003a.26.26 0 0 1 .247.269c0 .139-.108.256-.25.269-.037.003-.077.003-.114.003H1.361h-.077c-.167-.009-.284-.12-.284-.275s.111-.263.275-.269h.655c.117.003.148-.031.148-.148l-.003-5.34v-.127c.003-.219.102-.315.318-.315h1.313.127l-.08-.732c-.04-1.588 1.013-2.984 2.632-3.36l2.323-.587c.028-.006.056-.019.083-.028-.022-.099-.053-.188-.062-.284-.022-.247.059-.463.232-.642l.571-.571c.355-.349.837-.352 1.192 0l2.153 2.15.784.785c.361.364.365.843.003 1.211l-.491.491c-.371.371-.673.42-1.146.179l-.074.108-1.26 1.949c-.259.417-.553.803-.92 1.13-.105.096-.142.198-.142.34l.003 3.623.003.17zM5.775 6.738l.117-.198c.667-.973 2.054-.967 2.761.015.148.204.139.306-.037.485L6.665 8.999c-.059.059-.117.12-.161.191-.275.432-.062.939.436 1.029a.68.68 0 0 0 .639-.219l2.23-2.267a.92.92 0 0 0 .117-.148l1.285-1.977.417-.646-.046-.053-2.313-2.344c-.053-.052-.099-.059-.167-.04l-2.65.673c-.951.247-1.625.825-1.977 1.748-.225.587-.232 1.186-.053 1.795l1.353-.003zm1.825.559H2.628v5.353h6.446V9.283c-.012-.006-.022-.015-.034-.022-.028.037-.049.08-.08.111l-1.084 1.093c-.516.488-1.34.411-1.779-.145-.386-.491-.334-1.177.133-1.652l1.016-1.019.355-.352zm4.892-2.313c.086-.049.173-.077.235-.136l.556-.55a.27.27 0 0 0 0-.429L10.349.934c-.145-.145-.29-.142-.439.003l-.519.516c-.161.161-.158.3.006.466l1.075 1.084 1.81 1.828c.056.059.13.096.21.151zM8.095 6.738c-.463-.547-1.34-.439-1.64 0h1.64z" fill="#636363"/><path d="M9.636 12.671h-.25v.25h.25v-.25zm.818.003l.016-.249h-.004l-.012.25zm.247.269l-.25-.005v.005h.25zm-.25.269l.021.249h.001l-.022-.249zm-9.167.003l-.014.25h.014v-.25zm-.009-.544l-.007-.25h-.002l.009.25zm.655 0l-.011.25h.004l.007-.25zm.148-.148h.25 0-.25zm-.003-5.467l-.25-.004v.004h.25zm1.757-.315v.25h.279l-.031-.278-.248.028zm-.08-.732l-.25.006h0l.25-.006zm2.632-3.36l.057.243h0l-.057-.243zm2.323-.587l-.054-.244-.008.002.062.242zm.083-.028l.079.237.213-.071-.048-.22-.244.053zm-.062-.284l-.249.022v.002l.249-.024zm.232-.642L8.781.932 8.78.933l.18.174zm.571-.571L9.356.357h0l.175.178zm1.192 0l.176-.178h0l-.176.178zM13.66 3.47l-.178.176h0l.178-.176zm.003 1.211l-.178-.175h0l.178.175zm-.491.491l-.177-.177.177.177zm-1.146.179l.114-.223-.19-.097-.126.173.202.147zm-.074.108l.21.136.006-.01-.216-.126zm-1.26 1.949l.212.132h0l-.213-.132zm-.92 1.13l-.166-.187-.002.002.168.185zm-.142.34h-.25v.001l.25-.001zm.003 3.623h-.25v.007.007l.25-.015zM5.775 6.738v.25h.143l.073-.123-.215-.127zm.117-.198l.205.143.001-.002-.206-.141zm2.761.015l-.203.146v.001l.202-.147zm-.037.485l.177.177.002-.002-.178-.175zM6.665 8.999l.177.177.001-.001-.178-.176zm-.161.191l.211.134.003-.004-.214-.13zm.436 1.029l.046-.246h-.001l-.044.246zm.639-.219l.178.175h0l-.179-.175zm2.23-2.267l-.177-.177-.002.002.179.175zm.117-.148l-.209-.137-.001.001.21.136zm1.285-1.977l.209.137h0l-.209-.137zm.417-.646l.21.135.101-.157-.121-.141-.19.163zm-.046-.053l-.178.176.001.001.177-.177zM9.268 2.565l.178-.175-.001-.001-.177.177zm-.167-.04l.062.242.004-.001-.066-.241zm-2.65.673l-.063-.242h0l.063.242zM4.475 4.946l.233.09v-.001l-.234-.089zm-.053 1.795l-.24.071.053.181.188-.001-.002-.25zm3.178.556l.175.179.439-.429H7.6v.25zm-4.973 0v-.25h-.25v.25h.25zm0 5.353h-.25v.25h.25v-.25zm6.446 0v.25h.25v-.25h-.25zm0-3.367h.25v-.155l-.138-.069-.112.224zm-.034-.022l.112-.224-.187-.093-.125.167.2.15zm-.08.111l-.177-.177-.001.001.178.176zm-1.084 1.093l.172.182h0l-.172-.181zm-1.779-.145l-.197.155h0l.196-.155zm.133-1.652l.178.175v-.001l-.179-.174zm1.016-1.019l.177.177.002-.003-.179-.174zm5.248-2.665l-.142.206.13.09.137-.078-.124-.217zm.235-.136l-.171-.183-.001.001.172.181zm.556-.55l.178.175h0l-.179-.175zM10.349.934l-.177.177h0l.176-.177zm-.439.003L9.736.759 9.734.76l.177.177zm-.519.516l.177.177-.177-.177zm.006.466l-.178.175v.001l.178-.176zm1.075 1.084l.178-.175-.001-.001-.178.176zm1.81 1.828l.181-.172-.004-.004-.177.176zM8.095 6.738v.25h.54l-.349-.412-.191.162zm-1.64 0l-.206-.141-.267.391h.474v-.25zm3.181 6.183h.021.021.02.02.02.02.021.021.021.021.02.02.02.02.02.02.02.02.021.021.021l.009-.5h-.02-.021-.021-.02-.02-.02-.02-.02-.02-.02-.02-.02-.021-.021-.021-.02-.02-.02-.02-.021-.021l-.011.5zm.439 0l.368.003.024-.499-.392-.003v.5zm.364.003l.513.025a.51.51 0 0 0-.481-.524l-.032.499zm.013.019c0 .007-.006.018-.022.02l.043.498a.52.52 0 0 0 .479-.518h-.5zm-.021.02c-.025.002-.054.002-.094.002v.5l.135-.004-.041-.498zm-.094.002h-.035-.035-.035-.035-.035-.035-.035-.035-.035-.035-.035-.035-.035-.035-.035-.035-.035-.035-.035-.035H9.6h-.035-.035-.035-.035-.035-.035-.035-.035-.035-.035-.035-.035-.035-.035-.035-.035-.035-.035-.035-.035-.035-.035-.035-.035-.035-.035-.035-.035-.035-.035-.035-.035-.035-.035-.035-.035-.035-.035-.035-.035-.035-.035-.035-.035-.035-.035-.035-.035-.035-.035-.035-.035-.035-.035-.035-.035-.035-.035-.035-.035-.035-.035-.035-.035-.035-.035-.035-.035-.035-.035-.035-.035-.035-.035-.035-.035-.035-.035-.035-.035-.035-.035-.035-.035-.035-.035-.035-.035-.035-.035-.035-.035-.035-.035-.035-.035H6.2h-.035-.035-.035-.035-.035-.035-.035-.035-.035-.035-.035-.035-.035-.035-.035-.035-.035-.035-.035-.035-.035-.035-.035-.035-.035-.035-.035-.035-.035-.035-.035-.035-.035-.035-.035-.035-.035-.035-.035-.035-.035-.035-.035-.035-.035-.035-.035-.035-.035-.035-.035-.035-.035-.035-.035-.035-.035-.035-.035-.035-.035-.035-.035-.035-.035-.035-.035-.035-.035-.035-.035-.035-.035-.035-.035-.035H3.5h-.035-.035-.035-.035-.035-.035-.035-.035-.035-.035-.035-.035-.035-.035-.035-.035-.035-.035-.035-.035-.035-.035-.035-.035-.035-.035-.035-.035-.035-.035-.035-.035-.035-.035-.035-.035-.035-.035-.035-.035-.035-.035-.035-.035-.035-.035-.035-.035-.035-.035-.035-.035-.035-.035-.035-.035-.035-.035-.035-.035-.035v.5h.035.035.035.035.035.035.035.035.035.035.035.035.035.035.035.035.035.035.035.035.035.035.035.035.035.035.035.035.035.035.035.035.035.035.035.035.035.035.035.035.035.035.035.035.035.035.035.035.035.035.035.035.035.035.035.035.035.035.035.035.035.035.035.035.035.035.035.035.035.035.035.035.035.035.035.035.035.035.035.035.035.035.035.035.035.035.035.035.035.035.035.035.035.035.035.035.035.035.035.035.035.035.035.035.035.035.035.035.035.035.035.035.035.035.035.035.035.035.035.035.035.035.035.035.035.035.035.035.035.035.035.035.035.035.035.035.035.035.035.035.035.035.035.035.035.035.035.035.035.035.035.035.035.035.035.035.035.035.035.035.035.035.035.035.035.035.035.035.035.035.035.035.035.035.035.035.035.035.035.035.035.035.035.035.035.035.035.035.035.035.035.035.035.035.035.035.035.035.035.035.035.035.035.035.035.035.035.035.035.035.035.035.035.035.035.035.035.035.035.035.035.035.035.035.035.035.035.035.035.035.035.035.035.035.035.035.035.035.035.035.035.035.035.035.035.035.035.035.035.035.035.035.035.035.035.035v-.5zm-8.976 0h-.02-.02-.02l-.017.5h.02.02.02l.017-.5zm-.063 0c-.031-.002-.043-.012-.045-.014L.75 12.94c0 .308.243.509.52.524l.028-.499zm-.048-.025c.012-.016.021-.018.034-.019l-.019-.5c-.285.011-.515.221-.515.519h.5zm.032-.019h.637l.021-.5h-.673l.014.5zm.641 0c.063.002.2.001.303-.104s.102-.235.102-.295h-.5c0 .021-.002.023 0 .015s.012-.041.041-.071.062-.041.075-.044l-.022.499zm.405-.399l-.003-5.34h-.5l.003 5.341.5-.001zm-.003-5.34v-.02-.02-.02-.02-.02-.02l-.5-.006v.02.02.02.02.02.02l.5.006zm0-.123c.001-.078.019-.079.005-.065s-.013-.003.064-.003v-.5c-.139 0-.296.03-.414.147s-.152.273-.154.414l.5.007zm.068-.069h.021.021.021.021.021.021.021.021.021.021.021.021.021.021.021.02.021.02.021.02.02.02.021.02.02.02.02.02.02.02.02.02.02.02.02.02.02.02.02.02.02.02.02.02.021.021.02.021.021.021.021.021.021.021.021.021.021.021.021.021.021.021.021.021v-.5h-.021-.021-.021-.021-.021-.021-.021-.021-.021H3.5 3.48h-.021-.021-.021-.021-.021-.021-.02-.021-.021-.02-.02-.02-.02-.02-.02-.02-.02-.02-.02-.02-.02-.02-.02-.02-.02-.02-.02-.02-.02-.02-.021-.02-.02-.02-.021-.02-.021-.02-.021-.021-.021-.021-.021-.021-.021-.021-.021-.021-.021-.021-.021-.021-.021v.5zm1.313 0h.02.02.02.02.02.02l.006-.5h-.02-.02-.02-.02-.02-.02l-.006.5zm.375-.278l-.079-.711-.5.013c.006.254.057.531.082.753l.497-.055zm-.079-.711c-.037-1.469.935-2.761 2.438-3.111l-.113-.487c-1.734.404-2.868 1.904-2.825 3.61l.5-.013zM6.44 2.892l2.327-.588-.124-.484-2.318.586.114.487zm2.32-.586c.03-.007.056-.016.072-.022l.036-.013-.158-.474-.028.01-.019.007.097.492zm.273-.325l-.037-.15c-.011-.043-.017-.075-.02-.105l-.498.048c.006.066.02.127.032.177l.034.137.488-.107zm-.057-.253c-.015-.172.038-.318.162-.447L8.78.933a1.04 1.04 0 0 0-.301.838l.498-.044zm.161-.445l.569-.569-.351-.356-.574.574.356.351zm.568-.568c.137-.134.285-.191.421-.191s.284.056.42.19l.352-.355c-.219-.217-.49-.336-.772-.335s-.552.12-.771.335l.35.357zm.841-.001l2.152 2.149.354-.354-2.154-2.15-.352.355zm2.152 2.149l.784.783.356-.351-.786-.786-.354.354zm.784.784c.142.143.2.293.2.429s-.056.286-.198.43l.356.351a1.11 1.11 0 0 0 .341-.783c-.001-.286-.125-.558-.345-.779l-.355.352zm.002.86l-.489.489.354.354.493-.493-.357-.35zm-.489.489c-.168.168-.29.232-.397.249s-.245-.006-.459-.116l-.227.445c.258.132.508.204.764.164s.47-.186.672-.389l-.354-.354zm-1.171.209l-.088.129.432.252c.014-.023.032-.048.06-.087l-.404-.294zm-.082.119L10.48 7.276l.425.263 1.258-1.945-.42-.272zM10.48 7.276c-.252.404-.53.769-.874 1.076l.333.373c.391-.348.699-.756.966-1.185l-.425-.264zm-.877 1.078c-.076.069-.135.148-.174.243s-.05.189-.05.281h.5c0-.05.006-.076.013-.093s.018-.035.047-.062l-.337-.369zm-.224.526l.003 3.622h.5L9.88 8.877l-.5.003zm.004 3.636l.003.155h.5l-.004-.185-.499.029zM5.99 6.865l.107-.181-.41-.287c-.05.071-.1.167-.128.214l.43.254zm.108-.183c.564-.822 1.74-.829 2.352.02l.406-.292c-.803-1.115-2.4-1.134-3.17-.011l.412.283zm2.353.021a.47.47 0 0 1 .053.086c-.009.013-.028.038-.066.076l.357.35c.093-.095.198-.221.211-.389s-.071-.309-.15-.418l-.404.294zm-.012.161L6.487 8.823l.355.352 1.951-1.957-.354-.354zM6.488 8.822c-.059.059-.137.139-.197.238l.427.26c.026-.043.066-.087.124-.145l-.354-.354zm-.195.234c-.178.28-.206.601-.091.874s.366.475.693.534l.089-.492c-.17-.031-.275-.127-.321-.237s-.044-.259.053-.411l-.422-.268zm.601 1.408c.345.064.636-.059.863-.29l-.357-.351c-.131.133-.26.177-.416.149l-.091.492zm.863-.29l1.114-1.133 1.116-1.134-.357-.35L8.516 8.69 7.4 9.824l.357.35zm2.228-2.265c.059-.059.11-.126.151-.189l-.42-.272a.67.67 0 0 1-.084.107l.354.354zm.15-.188l.643-.989.642-.988-.419-.273-.643.989-.642.988.419.273zm1.285-1.977l.418-.647-.421-.27-.416.644.419.273zm.397-.945l-.059-.067-.354.354c.006.006.008.009.033.038l.38-.325zm-.058-.066L9.446 2.39l-.356.351 2.314 2.345.356-.351zM9.445 2.388c-.049-.049-.115-.095-.201-.114s-.156-.005-.208.01l.132.482c.016-.004-.001.003-.03-.003-.015-.003-.027-.009-.037-.014l.344-.36zm-.405-.106l-2.651.674.125.484 2.649-.673-.124-.484zm-2.651.674c-1.026.266-1.765.899-2.147 1.901l.467.178c.322-.844.929-1.368 1.806-1.595l-.126-.484zm-2.147 1.9c-.247.643-.252 1.299-.059 1.955l.48-.141c-.165-.561-.158-1.104.046-1.634l-.467-.179zm.183 2.134l1.351-.003v-.5l-1.355.003.003.5zm3.177.056h-.03-.03-.03-.03-.03-.03-.03-.03-.03-.03-.03-.029-.03-.029-.029-.029-.029-.029-.029-.029-.029-.029-.029-.029-.029-.029-.029-.029-.029-.029-.029-.029-.029-.029-.029-.029-.029-.029-.029-.029-.029-.029-.029-.029-.029-.029-.029-.029-.029-.029H6.1h-.029-.029-.029-.029-.029-.029-.029-.029-.029-.029-.029-.029-.029-.029-.029-.029-.029-.029-.029-.029-.029-.029-.029H5.4h-.029-.029-.029-.029-.029-.029-.029-.029-.029-.029-.029-.029-.029-.029-.029-.029-.029-.029-.029-.029-.029-.029-.029-.029-.029-.029-.029-.029-.029-.029-.029-.029-.029-.029-.029-.029-.029-.029-.029-.029-.029-.029-.029-.029-.029-.029-.029-.029-.029-.029-.029-.029-.029-.029-.029-.029-.029-.029-.029-.029-.029-.029-.029-.029-.029-.029-.029-.029-.029-.029-.029-.029-.029-.029-.029-.029-.029-.029-.029-.029-.029-.029-.029-.029-.029-.029-.029-.029-.029-.029-.029-.029-.029-.029-.029l-.019.5h.029.029.029.029.029.029.029.029.029.029.029.029.029.029.029.029.029.029.029.029.029.029.029.029.029.029.029.029.029.029.029.029.029.029.029.029.029.029.029.029.029.029.029.029.029.029.029.029.029.029.029.029.029.029.029.029.029.029.029.029.029.029.029.029.029.029.029.029.029.029.029.029.029.029.029.029.029.029.029.029.029.029.029.029.029.029.029.029.029.029.029.029.029.029.029.029.029.029.029.029.029.029.029.029.029.029.029.029.029.029.029.029.029.029.029.029.029.029.029.029.029.029.029.029.029.029.029.029.029.029.029.029.029.029.029.029.029.029.029.029.029.029.029.029.029.029.029.029.029.029.029.029.029.029.029.029.029.029.03.03.03.03.03.03.03.03.03.03.03.03l.02-.5zm-5.223.25v.021.021.021.021.021.021.021.021.021.021.021.021.021.021.021.021.021.021.021.021.021.021.021.021.021.021.021.021.021.021.021.021.021.021.021.021.021.021.021.021.021.021.021.021.021.021.021.021.021.021.021.021.021.021.021.021.021.021.021.021.021.021.021.021.021.021.021.021.021.021.021.021.021.021.021.021.021.021.021.021.021.021.021.021.021.021.021.021.021.021.021.021.021.021.021.021.021.021.021.021.021.021.021.021.021.021.021.021.021.021.021.021.021.021.021.021.021.021.021.021.021.021.021.021.021.021.021.021.021.021.021.021.021.021.021.021.021.021.021.021.021.021.021.021.021.021.021.021.021.021.021.021.021.021.021.021.021.021.021.021.021.021.021.021.021.021.021.021.021.021.021.021.021.021.021.021.021.021.021.021.021.021.021.021.021.021.021.021.021.021.021.021.021.021.021.021.021.021.021.021.021.021.021.021.021.021.021.021.021.021.021.021.021.021.021.021.021.021.021.021.021.021.021.021.021.021.021.021.021.021.021.021.021.021.021.021.021.021.021.021.021.021.021.021.021.021.021.021.021.021.021.021.021.021.021.021h.5v-.021-.021-.021-.021-.021-.021-.021-.021-.021-.021-.021-.021-.021-.021-.021-.021-.021-.021-.021-.021-.021-.021-.021-.021-.021-.021-.021-.021-.021-.021-.021-.021-.021-.021-.021-.021-.021-.021-.021-.021-.021-.021-.021-.021-.021-.021-.021-.021-.021-.021-.021-.021-.021-.021-.021-.021-.021-.021-.021-.021-.021-.021-.021-.021-.021-.021-.021-.021-.021-.021-.021-.021-.021-.021-.021-.021-.021-.021-.021-.021-.021-.021-.021-.021-.021-.021-.021-.021-.021-.021-.021-.021-.021-.021-.021-.021-.021-.021-.021-.021-.021-.021-.021-.021-.021-.021-.021-.021-.021-.021-.021-.021-.021-.021-.021-.021-.021-.021-.021-.021-.021-.021-.021-.021-.021-.021-.021-.021-.021-.021-.021-.021-.021-.021-.021-.021-.021-.021-.021-.021-.021-.021-.021-.021-.021-.021-.021-.021-.021-.021-.021-.021-.021-.021-.021-.021-.021-.021-.021-.021-.021-.021-.021-.021-.021-.021-.021-.021-.021-.021-.021-.021-.021-.021-.021-.021-.021-.021-.021-.021-.021-.021-.021-.021-.021-.021-.021-.021V8.7 8.68v-.021-.021-.021-.021-.021-.021-.021-.021-.021-.021-.021-.021-.021-.021-.021-.021-.021-.021-.021-.021-.021-.021-.021-.021-.021-.021-.021-.021-.021-.021-.021-.021-.021-.021-.021-.021-.021-.021-.021-.021-.021V7.8v-.021-.021-.021-.021-.021-.021-.021-.021-.021-.021-.021-.021-.021-.021-.021-.021-.021-.021-.021-.021-.021-.021-.021-.021h-.5zm.25 5.603h.025.025.025.025.025.025.025.025.025.025.025.025.025.025.025.025.025.025.025.025.025.025.025.025.025.025.025.025.025.025.025.025.025.025.025.025.025.025.025.025.025.025.025.025.025.025.025.025.025.025.025.025.025.025.025.025.025.025.025.025.025.025.025.025.025.025.025.025.025.025.025.025.025.025.025.025.025.025.025.025.025.025.025.025.025.025.025.025.025.025.025.025.025.025.025.025.025.025.025.025.025.025.025.025.025.025.025.025.025.025.025.025.025.025.025.025.025.025.025.025.025.025.025.025.025.025.025.025.025.025.025.025.025.025.025.025.025.025.025.025.025.025.025.025.025.025.025.025.025.025.025.025.025.025.025.025.025.025.025.025.025.025.025.025.025.025.025.025.025.025.025.025.025.025.025.025.025.025.025.025.025.025.025.025.025.025.025.025.025.025.025.025.025.025.025.025.025.025.025.025.025.025.025.025.025.025.025.025.025.025.025.025.025.025.025.025.025.025.025.025.025.025.025.025.025.025.025.025.025.025.025.025.025.025.025.025.025.025.025.025.025.025.025.025.025.025.025.025.025.025.025.025.025.025.025.025v-.5h-.025-.025-.025-.025-.025-.025-.025-.025-.025-.025-.025-.025-.025-.025-.025-.025-.025-.025-.025-.025-.025-.025-.025-.025-.025-.025-.025-.025-.025-.025-.025-.025-.025-.025-.025-.025-.025-.025-.025-.025-.025-.025-.025-.025-.025-.025-.025-.025-.025-.025-.025-.025-.025-.025-.025-.025-.025-.025-.025-.025-.025-.025-.025-.025-.025-.025-.025-.025-.025-.025-.025-.025-.025-.025-.025-.025-.025-.025-.025-.025-.025-.025-.025-.025-.025-.025-.025-.025-.025-.025-.025-.025-.025-.025-.025-.025-.025-.025-.025-.025-.025-.025-.025-.025-.025-.025-.025-.025-.025-.025-.025-.025-.025-.025-.025-.025-.025-.025-.025-.025-.025-.025-.025-.025-.025-.025-.025-.025-.025-.025-.025-.025-.025-.025-.025-.025-.025-.025-.025-.025-.025-.025-.025-.025-.025H5.4h-.025-.025-.025-.025-.025-.025-.025-.025-.025-.025-.025-.025-.025-.025-.025-.025-.025-.025-.025-.025-.025-.025-.025-.025-.025-.025-.025-.025-.025-.025-.025-.025-.025-.025-.025-.025-.025-.025-.025-.025-.025-.025-.025-.025-.025-.025-.025-.025-.025-.025-.025-.025-.025-.025-.025-.025-.025-.025-.025-.025-.025-.025-.025-.025-.025-.025-.025-.025-.025-.025-.025-.025-.025-.025-.025-.025-.025-.025-.025-.025-.025-.025-.025-.025-.025-.025-.025-.025-.025-.025-.025-.025-.025-.025-.025-.025-.025-.025-.025-.025-.025-.025-.025-.025-.025-.025-.025-.025-.025-.025v.5zm6.696-.25v-.027-.027-.026-.027-.026-.027-.026-.026-.027-.027-.026-.027-.026-.026-.027-.026-.026-.026-.027-.026-.026-.026-.026-.026-.026-.026-.026-.026-.026-.026-.026-.026-.026-.026-.026-.026-.026-.026-.026-.026-.026-.026-.026-.026-.026-.026-.026-.026-.026-.026-.026-.026-.026-.026-.026-.026-.026-.026-.026-.026-.026-.026-.026-.026-.026-.026-.026-.026-.026-.026-.026-.026-.026-.026-.026-.026-.026-.026-.026-.026-.026-.026-.026-.026-.026-.026-.026-.026-.026-.026-.026-.026-.026-.026-.026-.026-.026-.026-.026-.026-.026-.026-.026-.026-.026-.026-.026-.026-.026-.026-.026-.026-.026-.026-.026-.026-.026-.026-.026-.026-.026-.026-.026-.026-.026-.026-.026-.026h-.5v.026.026.026.026.026.026.026.026.026.026.026.026.026.026.026.026.026.026.026.026.026.026.026.026.026.026.026.026.026.026.026.026.026.026.026.026.026.026.026.026.026.026.026.026.026.026.026.026.026.026.026.026.026.026.026.026.026.026.026.026.026.026.026.026.026.026.026.026.026.026.026.026.026.026.026.026.026.026.026.026.026.026.026.026.026.026.026.026.026.026.026.026.026.026.026.026.026.026.026.026.026.026.026.026.026.026.026.026.026.027.026.026.026.027.026.026.027.026.027.027.026.026.027.026.027.026.027.027h.5zm-.138-3.59l.017.009-.017-.011c-.008-.005-.02-.013-.034-.02l-.224.447-.017-.009.017.011c.008.005.02.013.034.02l.224-.447zm-.346.052l-.029.041-.019.029-.009.014.354.354a.58.58 0 0 0 .073-.092l.03-.046-.4-.3zm-.058.085l-1.079 1.088.344.363 1.089-1.099-.355-.352zm-1.078 1.088c-.405.383-1.059.327-1.411-.118l-.393.31c.526.666 1.52.765 2.147.172l-.344-.363zm-1.411-.118c-.302-.384-.271-.929.115-1.323l-.357-.35c-.547.558-.621 1.384-.151 1.982l.393-.309zm.115-1.324l1.014-1.017-.354-.354L6.05 8.494l.358.349zm1.016-1.019l.351-.348-.349-.358-.36.357.359.349zM12.617 5.2c.037-.021.06-.03.116-.059.046-.023.109-.058.167-.113l-.344-.362c-.004.004-.015.012-.05.03l-.137.07.248.434zm.282-.17l.563-.557-.357-.351-.548.542.342.365zm.564-.558a.56.56 0 0 0 .176-.391c0-.159-.078-.29-.178-.39l-.354.354c.039.039.031.051.031.037s.008 0-.033.041l.357.35zm-.002-.781L10.526.757l-.353.354 2.934 2.934.354-.354zM10.526.757c-.101-.101-.234-.182-.398-.181s-.293.084-.393.182l.35.357c.048-.047.063-.039.048-.039s-.006-.01.039.034l.354-.354zM9.734.76l-.259.257-.26.259.354.354.259-.257.26-.259L9.734.76zm-.519.516c-.102.102-.194.239-.192.411s.096.305.196.407l.357-.35c-.063-.065-.053-.083-.053-.064s-.013.008.045-.05l-.354-.354zm.005.819l.537.542.537.542.355-.352-.537-.542-.537-.542-.355.352zm1.074 1.084l1.811 1.829.354-.353-1.809-1.828-.356.351zm1.807 1.825c.047.05.098.086.139.113l.11.072.285-.411-.118-.077c-.03-.02-.044-.032-.052-.04l-.363.344zM8.285 6.576c-.29-.342-.705-.474-1.083-.458-.37.016-.748.177-.954.478l.413.282c.094-.137.304-.25.563-.261.252-.011.507.077.68.281l.381-.323zm-1.831.412h.022.022.022.022.022.022.022.022.022.022.022.022.022.022.022.022.022.022.022.022.022.022.022.022.022.022.022.022.022.022.022.022.022.022.022.022.022.022.022.022.022.022.022.022.022.022.022.022.022.022.022.023.023.023.023.023.023.023.023.023.023.023.023.023.023.023.023.023H8h.023.023.023.023l.003-.5h-.023-.023-.023-.023-.023-.023-.023-.023-.023-.023-.023-.023-.023-.023-.023-.023-.023-.023-.023-.023-.023-.022-.022-.022-.022-.022-.022-.022-.022-.022-.022-.022-.022-.022-.022-.022-.022-.022-.022-.022-.022-.022-.022-.022-.022-.022-.022-.022-.022-.022-.022-.022-.022-.022-.022-.022-.022-.022-.022-.022-.022-.022-.022-.022-.022-.022-.022-.022-.022-.022-.022-.022-.022l-.003.5z" fill="#636363" mask="url(#A)"/></svg>
