<svg width="13" height="14" viewBox="0 0 13 14" fill="none" xmlns="http://www.w3.org/2000/svg">
<mask id="path-1-inside-1_2_272" fill="white">
<path fill-rule="evenodd" clip-rule="evenodd" d="M12.7825 5.73466C12.7532 5.71546 12.7211 5.6993 12.6865 5.68679C12.6355 5.66863 12.5829 5.65935 12.5308 5.65832C12.3859 5.65513 12.2451 5.71519 12.1565 5.82545C10.96 7.30614 9.03598 8.19075 7.01273 8.19075C6.86945 8.19075 6.72617 8.1864 6.58306 8.17754C6.18005 8.1526 5.88837 7.80247 5.88837 7.39869C5.88837 6.79715 5.51258 6.52769 5.1398 6.52769C4.89629 6.52769 4.65278 6.63656 4.41828 6.84615L1.86292 9.15973C1.30074 9.66872 1.30074 10.4934 1.86292 11.0024L4.41828 13.316C4.65278 13.5283 4.89629 13.6345 5.1398 13.6345C5.51258 13.6345 5.88837 13.365 5.88837 12.7635C5.88837 12.4064 6.16854 12.1146 6.52266 12.0685C6.97287 12.0098 7.41119 11.9151 7.83367 11.7876C7.94594 11.7775 8.06053 11.7529 8.17609 11.7123C10.7166 10.8188 12.6198 8.70701 12.9683 6.11606C12.9708 6.09721 12.9718 6.07842 12.9713 6.0598C12.9696 5.93153 12.8981 5.80994 12.7825 5.73466Z"/>
</mask>
<path d="M12.7825 5.73466L12.18 6.65498L12.182 6.65629L12.7825 5.73466ZM12.6865 5.68679L13.0608 4.65243L13.0556 4.65058L12.6865 5.68679ZM12.5308 5.65832L12.5065 6.75806L12.5092 6.75811L12.5308 5.65832ZM12.1565 5.82545L13.0121 6.51682L13.0141 6.51432L12.1565 5.82545ZM6.58306 8.17754L6.651 7.07964L6.65099 7.07964L6.58306 8.17754ZM4.41828 6.84615L3.68523 6.02597L3.68 6.03071L4.41828 6.84615ZM1.86292 9.15973L2.6012 9.97517L2.6012 9.97517L1.86292 9.15973ZM1.86292 11.0024L2.6012 10.187L1.86292 11.0024ZM4.41828 13.316L5.15657 12.5006V12.5006L4.41828 13.316ZM6.52266 12.0685L6.66478 13.1593H6.66478L6.52266 12.0685ZM7.83367 11.7876L7.73567 10.6919L7.62352 10.702L7.51572 10.7345L7.83367 11.7876ZM8.17609 11.7123L8.54106 12.75L8.54106 12.75L8.17609 11.7123ZM12.9683 6.11606L14.0585 6.26268L14.059 6.25885L12.9683 6.11606ZM12.9713 6.0598L11.8714 6.07448L11.8716 6.08577L12.9713 6.0598ZM13.385 4.81433C13.2842 4.7483 13.1754 4.69391 13.0608 4.65244L12.3122 6.72114C12.2667 6.70468 12.2223 6.68262 12.18 6.65498L13.385 4.81433ZM13.0556 4.65058C12.8906 4.59177 12.7204 4.56183 12.5523 4.55854L12.5092 6.75811C12.4454 6.75686 12.3805 6.74549 12.3174 6.723L13.0556 4.65058ZM12.555 4.55859C12.1026 4.54861 11.6222 4.73411 11.2989 5.13657L13.0141 6.51432C12.868 6.69626 12.6691 6.76164 12.5065 6.75806L12.555 4.55859ZM11.301 5.13408C10.328 6.33817 8.72778 7.09075 7.01273 7.09075V9.29075C9.34418 9.29075 11.5921 8.27411 13.0121 6.51682L11.301 5.13408ZM7.01273 7.09075C6.89173 7.09075 6.77111 7.08707 6.651 7.07964L6.51512 9.27544C6.68123 9.28572 6.84717 9.29075 7.01273 9.29075V7.09075ZM6.65099 7.07964C6.76213 7.08652 6.85608 7.14133 6.91297 7.20645C6.96613 7.26731 6.98837 7.33647 6.98837 7.39869H4.78837C4.78837 8.30888 5.46034 9.21017 6.51512 9.27544L6.65099 7.07964ZM6.98837 7.39869C6.98837 6.86072 6.81436 6.3479 6.43721 5.96535C6.06849 5.59134 5.58861 5.42769 5.1398 5.42769V7.62769C5.06377 7.62769 4.95818 7.59877 4.87055 7.50988C4.77448 7.41244 4.78837 7.33512 4.78837 7.39869H6.98837ZM5.1398 5.42769C4.54956 5.42769 4.05615 5.69449 3.68525 6.02599L5.15132 7.6663C5.19938 7.62335 5.2238 7.6129 5.22105 7.61412C5.21917 7.61495 5.21057 7.61853 5.19567 7.62184C5.18053 7.6252 5.1615 7.62769 5.1398 7.62769V5.42769ZM3.68 6.03071L1.12464 8.3443L2.6012 9.97517L5.15657 7.66158L3.68 6.03071ZM1.12464 8.3443C0.0801668 9.28994 0.0801668 10.8722 1.12464 11.8179L2.6012 10.187C2.54601 10.137 2.54128 10.0979 2.54128 10.0811C2.54128 10.0643 2.54601 10.0251 2.6012 9.97517L1.12464 8.3443ZM1.12464 11.8179L3.68 14.1315L5.15657 12.5006L2.6012 10.187L1.12464 11.8179ZM3.68 14.1315C4.05919 14.4748 4.5546 14.7345 5.1398 14.7345V12.5345C5.15944 12.5345 5.17725 12.5367 5.19208 12.5399C5.20673 12.5431 5.21575 12.5467 5.21867 12.548C5.22387 12.5503 5.20196 12.5417 5.15657 12.5006L3.68 14.1315ZM5.1398 14.7345C5.58861 14.7345 6.06849 14.5708 6.43721 14.1968C6.81436 13.8143 6.98837 13.3015 6.98837 12.7635H4.78837C4.78837 12.827 4.77449 12.7497 4.87055 12.6523C4.95818 12.5634 5.06377 12.5345 5.1398 12.5345V14.7345ZM6.98837 12.7635C6.98837 13.0104 6.80599 13.1409 6.66478 13.1593L6.38053 10.9777C5.53109 11.0884 4.78837 11.8023 4.78837 12.7635H6.98837ZM6.66478 13.1593C7.1747 13.0928 7.67182 12.9855 8.15162 12.8406L7.51572 10.7345C7.15056 10.8448 6.77104 10.9268 6.38053 10.9777L6.66478 13.1593ZM7.93167 12.8832C8.13703 12.8648 8.34121 12.8203 8.54106 12.75L7.81113 10.6746C7.77985 10.6856 7.75486 10.6902 7.73567 10.6919L7.93167 12.8832ZM8.54106 12.75C11.4181 11.7381 13.6478 9.31656 14.0585 6.26268L11.8781 5.96943C11.5919 8.09747 10.015 9.89947 7.81113 10.6746L8.54106 12.75ZM14.059 6.25885C14.0689 6.1836 14.0728 6.10838 14.071 6.03383L11.8716 6.08577C11.8707 6.04845 11.8727 6.01082 11.8776 5.97326L14.059 6.25885ZM14.0712 6.04512C14.0641 5.51076 13.7712 5.06596 13.383 4.81303L12.182 6.65629C12.0249 6.55392 11.8751 6.3523 11.8714 6.07448L14.0712 6.04512Z" fill="#636363" mask="url(#path-1-inside-1_2_272)"/>
<mask id="path-3-inside-2_2_272" fill="white">
<path fill-rule="evenodd" clip-rule="evenodd" d="M0.457395 7.97627C0.399865 7.97709 0.341359 7.96786 0.284928 7.94776C0.244463 7.93311 0.2073 7.91345 0.174118 7.88979C0.0675383 7.81418 0.00206378 7.69795 0.000129735 7.57556C-0.000358545 7.55668 0.000609436 7.53761 0.00311283 7.51849C0.35158 4.92753 2.25485 2.81576 4.79534 1.92225C4.91083 1.88163 5.02534 1.85706 5.13754 1.847C5.56009 1.71941 5.99848 1.62469 6.44878 1.56601C6.8029 1.51987 7.08307 1.22813 7.08307 0.871016C7.08307 0.269484 7.45885 1.91944e-05 7.83164 1.9227e-05C8.07515 1.92483e-05 8.31866 0.106172 8.55315 0.318477L11.1085 2.63206C11.6707 3.14105 11.6707 3.96578 11.1085 4.47477L8.55315 6.78835C8.31866 6.99794 8.07515 7.10681 7.83164 7.10681C7.45885 7.10681 7.08307 6.83735 7.08307 6.23581C7.08307 5.83203 6.79139 5.4819 6.38838 5.45696C6.24527 5.4481 6.10199 5.44375 5.9587 5.44375C3.93546 5.44375 2.01142 6.32836 0.814904 7.80905C0.729744 7.91507 0.596338 7.97468 0.457395 7.97627Z"/>
</mask>
<path d="M0.284928 7.94776L-0.0894099 8.98212L-0.084221 8.98397L0.284928 7.94776ZM0.457395 7.97627L0.444792 6.87634L0.441719 6.87638L0.457395 7.97627ZM0.174118 7.88979L0.812789 6.99418L0.810595 6.99263L0.174118 7.88979ZM0.000129735 7.57556L1.10005 7.55818L1.09976 7.54713L0.000129735 7.57556ZM0.00311283 7.51849L-1.08708 7.37187L-1.08758 7.37571L0.00311283 7.51849ZM4.79534 1.92225L5.1603 2.95994L5.1603 2.95994L4.79534 1.92225ZM5.13754 1.847L5.23572 2.94261L5.3478 2.93257L5.45552 2.90004L5.13754 1.847ZM6.44878 1.56601L6.30665 0.475233L6.30665 0.475233L6.44878 1.56601ZM8.55315 0.318477L7.81487 1.13391L8.55315 0.318477ZM11.1085 2.63206L10.3702 3.4475L11.1085 2.63206ZM11.1085 4.47477L10.3702 3.65933L10.3702 3.65933L11.1085 4.47477ZM8.55315 6.78835L9.2862 7.60853L9.29143 7.60379L8.55315 6.78835ZM6.38838 5.45696L6.45632 4.35906L6.45632 4.35906L6.38838 5.45696ZM0.814904 7.80905L-0.0406751 7.11768L-0.0426778 7.12017L0.814904 7.80905ZM-0.084221 8.98397C0.0985383 9.04908 0.287579 9.0788 0.47307 9.07616L0.441719 6.87638C0.512151 6.87538 0.58418 6.88665 0.654078 6.91155L-0.084221 8.98397ZM-0.464551 8.78539C-0.349763 8.86725 -0.223638 8.93353 -0.0894051 8.98211L0.659262 6.91341C0.712564 6.9327 0.764364 6.95965 0.812787 6.99419L-0.464551 8.78539ZM-1.09973 7.59294C-1.09168 8.10243 -0.823311 8.53088 -0.462359 8.78695L0.810595 6.99263C0.958387 7.09748 1.09581 7.29347 1.09999 7.55818L-1.09973 7.59294ZM-1.08758 7.37571C-1.09757 7.45203 -1.10146 7.52835 -1.0995 7.60399L1.09976 7.54713C1.10074 7.585 1.09879 7.62319 1.09381 7.66128L-1.08758 7.37571ZM4.43037 0.884559C1.5533 1.89645 -0.676345 4.31799 -1.08707 7.37187L1.0933 7.66511C1.3795 5.53708 2.9564 3.73507 5.1603 2.95994L4.43037 0.884559ZM5.03936 0.751392C4.83414 0.769782 4.63009 0.814314 4.43037 0.884559L5.1603 2.95994C5.19156 2.94894 5.21654 2.94433 5.23572 2.94261L5.03936 0.751392ZM6.30665 0.475233C5.79664 0.541686 5.29944 0.649057 4.81956 0.793964L5.45552 2.90004C5.82074 2.78976 6.20032 2.70768 6.59091 2.65679L6.30665 0.475233ZM5.98307 0.871016C5.98307 0.624084 6.16545 0.493632 6.30665 0.475233L6.5909 2.65679C7.44034 2.54611 8.18307 1.83217 8.18307 0.871016L5.98307 0.871016ZM7.83164 -1.09998C7.38283 -1.09998 6.90295 -0.936326 6.53423 -0.562325C6.15707 -0.179768 5.98307 0.333047 5.98307 0.871016L8.18307 0.871016C8.18307 0.807452 8.19695 0.88477 8.10089 0.982211C8.01325 1.0711 7.90766 1.10002 7.83164 1.10002L7.83164 -1.09998ZM9.29144 -0.49696C8.91224 -0.840274 8.41683 -1.09998 7.83164 -1.09998L7.83164 1.10002C7.812 1.10002 7.79419 1.09782 7.77935 1.09458C7.76471 1.09138 7.75569 1.08777 7.75276 1.08648C7.74756 1.08419 7.76948 1.09282 7.81487 1.13391L9.29144 -0.49696ZM11.8468 1.81663L9.29144 -0.49696L7.81487 1.13391L10.3702 3.4475L11.8468 1.81663ZM11.8468 5.2902C12.8913 4.34456 12.8913 2.76227 11.8468 1.81663L10.3702 3.4475C10.4254 3.49747 10.4302 3.53661 10.4302 3.55341C10.4302 3.57022 10.4254 3.60936 10.3702 3.65933L11.8468 5.2902ZM9.29143 7.60379L11.8468 5.2902L10.3702 3.65933L7.81487 5.97292L9.29143 7.60379ZM7.83164 8.20681C8.42187 8.20681 8.91529 7.94001 9.28619 7.60851L7.82011 5.9682C7.77206 6.01114 7.74764 6.0216 7.75039 6.02038C7.75226 6.01955 7.76086 6.01597 7.77576 6.01266C7.7909 6.0093 7.80993 6.00681 7.83164 6.00681L7.83164 8.20681ZM5.98307 6.23581C5.98307 6.77378 6.15707 7.2866 6.53423 7.66915C6.90295 8.04316 7.38283 8.20681 7.83164 8.20681L7.83164 6.00681C7.90766 6.00681 8.01325 6.03573 8.10089 6.12462C8.19695 6.22206 8.18307 6.29938 8.18307 6.23581L5.98307 6.23581ZM6.32044 6.55486C6.2093 6.54798 6.11536 6.49317 6.05847 6.42805C6.0053 6.36719 5.98307 6.29803 5.98307 6.23581L8.18307 6.23581C8.18307 5.32562 7.51109 4.42433 6.45632 4.35906L6.32044 6.55486ZM5.9587 6.54375C6.07971 6.54375 6.20033 6.54743 6.32044 6.55486L6.45632 4.35906C6.29021 4.34878 6.12426 4.34375 5.9587 4.34375L5.9587 6.54375ZM1.67048 8.50042C2.64348 7.29632 4.24365 6.54375 5.9587 6.54375L5.9587 4.34375C3.62726 4.34375 1.37935 5.36039 -0.0406713 7.11768L1.67048 8.50042ZM0.469997 9.0762C0.904883 9.07121 1.36148 8.8851 1.67249 8.49793L-0.0426778 7.12017C0.0980063 6.94504 0.287793 6.87814 0.444792 6.87634L0.469997 9.0762Z" fill="#636363" mask="url(#path-3-inside-2_2_272)"/>
</svg>
