<svg width="12" height="15" viewBox="0 0 12 15" fill="none" xmlns="http://www.w3.org/2000/svg">
<path d="M8.52534 5.15877C8.63986 5.15877 8.75207 5.15851 8.86276 5.15826C9.07967 5.15776 9.29072 5.15728 9.50178 5.15877C10.2829 5.1678 10.9227 5.67576 11.1022 6.43657C11.1337 6.56751 11.1449 6.70748 11.1471 6.84294C11.1494 8.68062 11.1494 10.5183 11.1494 12.3582C11.1494 13.3313 10.4356 14.0492 9.46811 14.0492C6.87324 14.0514 4.27838 14.0514 1.68127 14.0492C0.713812 14.0492 0.00224469 13.3313 0 12.356C0 10.5251 0 8.68965 0.00224469 6.85648C0.00224469 5.87443 0.713812 5.16103 1.69025 5.15877H2.62404V5.00751C2.62404 4.78016 2.62379 4.55281 2.62354 4.32555C2.62305 3.87127 2.62255 3.41733 2.62404 2.96439C2.62629 1.64369 3.41417 0.53973 4.66896 0.142393C6.34574 -0.388142 8.08987 0.614231 8.46024 2.31194C8.50738 2.52867 8.52085 2.75669 8.52309 2.98019C8.52938 3.45104 8.52796 3.92077 8.52655 4.39095C8.52594 4.59259 8.52534 4.7943 8.52534 4.99622V5.15877ZM5.57806 6.25822H1.72617C1.30865 6.25822 1.09316 6.47269 1.09316 6.89035V12.3221C1.09316 12.7398 1.30865 12.9542 1.72617 12.9542H9.41648C9.84297 12.9542 10.0562 12.742 10.0562 12.3153V6.89712C10.0562 6.47043 9.84521 6.25822 9.41648 6.25822C8.5635 6.25671 7.71051 6.25722 6.85753 6.25772C6.43104 6.25797 6.00455 6.25822 5.57806 6.25822ZM7.42768 5.152C7.42821 5.14458 7.42873 5.13767 7.42923 5.13113C7.43086 5.1098 7.43217 5.09252 7.43217 5.07524C7.43217 4.87575 7.43267 4.67626 7.43317 4.47678C7.43451 3.9448 7.43584 3.41283 7.42768 2.88086C7.42544 2.69799 7.38952 2.5061 7.33116 2.33226C7.03711 1.47212 6.16168 0.975446 5.23237 1.12896C4.35919 1.27345 3.7217 2.03426 3.71721 2.94181C3.71571 3.40855 3.71621 3.87529 3.71671 4.34135C3.71696 4.57414 3.71721 4.80675 3.71721 5.03912V5.152H7.42768Z" fill="#A0A0A0"/>
<path d="M8.52534 5.15877C8.63986 5.15877 8.75207 5.15851 8.86276 5.15826C9.07967 5.15776 9.29072 5.15728 9.50178 5.15877C10.2829 5.1678 10.9227 5.67576 11.1022 6.43657C11.1337 6.56751 11.1449 6.70748 11.1471 6.84294C11.1494 8.68062 11.1494 10.5183 11.1494 12.3582C11.1494 13.3313 10.4356 14.0492 9.46811 14.0492C6.87324 14.0514 4.27838 14.0514 1.68127 14.0492C0.713812 14.0492 0.00224469 13.3313 0 12.356C0 10.5251 0 8.68965 0.00224469 6.85648C0.00224469 5.87443 0.713812 5.16103 1.69025 5.15877H2.62404V5.00751C2.62404 4.78016 2.62379 4.55281 2.62354 4.32555C2.62305 3.87127 2.62255 3.41733 2.62404 2.96439C2.62629 1.64369 3.41417 0.53973 4.66896 0.142393C6.34574 -0.388142 8.08987 0.614231 8.46024 2.31194C8.50738 2.52867 8.52085 2.75669 8.52309 2.98019C8.52938 3.45104 8.52796 3.92077 8.52655 4.39095C8.52594 4.59259 8.52534 4.7943 8.52534 4.99622V5.15877ZM5.57806 6.25822H1.72617C1.30865 6.25822 1.09316 6.47269 1.09316 6.89035V12.3221C1.09316 12.7398 1.30865 12.9542 1.72617 12.9542H9.41648C9.84297 12.9542 10.0562 12.742 10.0562 12.3153V6.89712C10.0562 6.47043 9.84521 6.25822 9.41648 6.25822C8.5635 6.25671 7.71051 6.25722 6.85753 6.25772C6.43104 6.25797 6.00455 6.25822 5.57806 6.25822ZM7.42768 5.152C7.42821 5.14458 7.42873 5.13767 7.42923 5.13113C7.43086 5.1098 7.43217 5.09252 7.43217 5.07524C7.43217 4.87575 7.43267 4.67626 7.43317 4.47678C7.43451 3.9448 7.43584 3.41283 7.42768 2.88086C7.42544 2.69799 7.38952 2.5061 7.33116 2.33226C7.03711 1.47212 6.16168 0.975446 5.23237 1.12896C4.35919 1.27345 3.7217 2.03426 3.71721 2.94181C3.71571 3.40855 3.71621 3.87529 3.71671 4.34135C3.71696 4.57414 3.71721 4.80675 3.71721 5.03912V5.152H7.42768Z" stroke="#A0A0A0"/>
<path d="M6.12194 9.7275C6.12194 9.86121 6.12219 9.99415 6.12244 10.1266C6.12294 10.39 6.12343 10.6514 6.12194 10.9127C6.1197 11.1317 6.02317 11.301 5.83013 11.4049C5.64607 11.5042 5.45976 11.4952 5.28467 11.3846C5.10958 11.274 5.02878 11.1069 5.02878 10.8992V9.72299C4.73472 9.51078 4.56188 9.2218 4.56637 8.84704C4.57086 8.56484 4.67636 8.31877 4.88287 8.12687C5.30263 7.73856 5.94685 7.76566 6.31723 8.17428C6.66516 8.55807 6.74148 9.2647 6.12194 9.7275Z" fill="#A0A0A0"/>
<path d="M6.12194 9.7275C6.12194 9.86121 6.12219 9.99415 6.12244 10.1266C6.12294 10.39 6.12343 10.6514 6.12194 10.9127C6.1197 11.1317 6.02317 11.301 5.83013 11.4049C5.64607 11.5042 5.45976 11.4952 5.28467 11.3846C5.10958 11.274 5.02878 11.1069 5.02878 10.8992V9.72299C4.73472 9.51078 4.56188 9.2218 4.56637 8.84704C4.57086 8.56484 4.67636 8.31877 4.88287 8.12687C5.30263 7.73856 5.94685 7.76566 6.31723 8.17428C6.66516 8.55807 6.74148 9.2647 6.12194 9.7275Z" stroke="#A0A0A0"/>
</svg>
