<svg class="uzd-icon" width="16" height="16" viewBox="0 0 16 16" fill="none" xmlns="http://www.w3.org/2000/svg">
<path d="M4.82662 0.656319C3.37418 1.28395 2.14047 2.32819 1.2815 3.65699C0.422534 4.98578 -0.02311 6.53945 0.000923282 8.12151C0.0249566 9.70358 0.517587 11.243 1.41652 12.5451C2.31545 13.8472 3.58031 14.8535 5.05115 15.4367C6.52199 16.0199 8.13274 16.1539 9.67972 15.8217C11.2267 15.4894 12.6404 14.706 13.7421 13.5703C14.8438 12.4346 15.584 10.9977 15.8691 9.44136C16.1542 7.885 15.9713 6.27906 15.3437 4.82662C14.9269 3.86223 14.3243 2.98937 13.5703 2.25787C12.8162 1.52637 11.9254 0.950564 10.9488 0.563315C9.97225 0.176067 8.92894 -0.0150347 7.87848 0.000922995C6.82803 0.0168807 5.79101 0.239585 4.82662 0.656319Z" fill="#636363"/>
<path d="M12.4767 9.36382L12.2323 8.90048C12.1888 8.81839 12.1144 8.75689 12.0257 8.72942C11.9369 8.70194 11.8408 8.71072 11.7585 8.75384L9.42331 9.98528L8.2921 7.84016L10.0062 3.70569C10.0251 3.65319 10.0334 3.59749 10.0306 3.54178C10.0278 3.48607 10.0141 3.43146 9.99015 3.38109L9.7458 2.91774C9.70221 2.83566 9.6279 2.77416 9.53911 2.74668C9.45031 2.7192 9.35425 2.72798 9.27191 2.7711L6.41378 4.27835L5.81866 3.14982C5.77506 3.06774 5.70075 3.00624 5.61196 2.97876C5.52317 2.95129 5.42712 2.96006 5.34478 3.00317L4.88143 3.24752C4.79935 3.29112 4.73785 3.36543 4.71038 3.45421C4.6829 3.543 4.69168 3.63905 4.73479 3.72139L5.32991 4.84992L3.67 5.72526C3.58792 5.76886 3.52642 5.84317 3.49894 5.93196C3.47146 6.02075 3.48024 6.1168 3.52334 6.19915L3.76769 6.66249C3.81129 6.74457 3.8856 6.80606 3.97439 6.83354C4.06318 6.86102 4.15923 6.85224 4.24157 6.80913L5.90148 5.93379L6.93972 7.90259L5.13621 12.2527C5.11606 12.3034 5.10726 12.358 5.11042 12.4125C5.11358 12.467 5.12862 12.5201 5.15449 12.5682C5.16492 12.5874 5.17136 12.6008 5.18095 12.619L5.42529 13.0824C5.4689 13.1644 5.54321 13.2259 5.632 13.2534C5.72078 13.2809 5.81684 13.2721 5.89918 13.229L8.91103 11.6407L9.28318 12.3464C9.32678 12.4285 9.40109 12.49 9.48988 12.5175C9.57867 12.545 9.67473 12.5362 9.75707 12.4931L10.2204 12.2487C10.3025 12.2051 10.364 12.1308 10.3915 12.042C10.419 11.9532 10.4102 11.8572 10.3671 11.7748L9.99489 11.0691L12.33 9.8377C12.4121 9.79411 12.4736 9.7198 12.5011 9.63101C12.5286 9.54222 12.5198 9.44616 12.4767 9.36382V9.36382ZM6.98535 5.3622L8.27491 4.68217L7.54946 6.43192L6.98535 5.3622ZM6.83735 11.349L7.68236 9.31083L8.33945 10.5568L6.83735 11.349Z" fill="#FFFFFF"/>
<defs>
<linearGradient id="paint0_linear_67_13999" x1="9.2459" y1="1.27816" x2="6.66481" y2="15.2224" gradientUnits="userSpaceOnUse">
<stop stop-color="#FFB515"/>
<stop offset="0.19046" stop-color="#FF931C"/>
<stop offset="0.41364" stop-color="#FF7322"/>
<stop offset="0.62821" stop-color="#FF5B26"/>
<stop offset="0.82823" stop-color="#FF4D29"/>
<stop offset="0.99932" stop-color="#FF482A"/>
</linearGradient>
</defs>
</svg>
